<?xml version="1.0" encoding="UTF-8" standalone="no"?>
<!-- 2026-04-14 15:24:12 Generated by QCAD 3.28.2 SVG Exporter -->

<svg
   width="89mm"
   height="84.1657mm"
   viewBox="-44.5 -44.5 89 84.1657"
   version="1.1"
   style="stroke-linecap:round;stroke-linejoin:round;fill:none"
   id="svg70"
   sodipodi:docname="clock-face-arial.svg"
   inkscape:version="1.4.3 (0d15f75042, 2025-12-25)"
   xmlns:inkscape="http://www.inkscape.org/namespaces/inkscape"
   xmlns:sodipodi="http://sodipodi.sourceforge.net/DTD/sodipodi-0.dtd"
   xmlns="http://www.w3.org/2000/svg"
   xmlns:svg="http://www.w3.org/2000/svg">
  <defs
     id="defs70" />
  <sodipodi:namedview
     id="namedview70"
     pagecolor="#ffffff"
     bordercolor="#000000"
     borderopacity="0.25"
     inkscape:showpageshadow="2"
     inkscape:pageopacity="0.0"
     inkscape:pagecheckerboard="0"
     inkscape:deskcolor="#d1d1d1"
     inkscape:document-units="mm"
     inkscape:zoom="2.4079979"
     inkscape:cx="168.18952"
     inkscape:cy="159.0533"
     inkscape:window-width="1920"
     inkscape:window-height="979"
     inkscape:window-x="320"
     inkscape:window-y="1440"
     inkscape:window-maximized="1"
     inkscape:current-layer="svg70" />
  <g
     transform="scale(1,-1)"
     id="g70"
     style="fill:#000000;stroke:none">
    <!-- Line -->
    <path
       style="baseline-shift:baseline;display:inline;overflow:visible;vector-effect:none;fill:#000000;stroke-linecap:butt;stroke-linejoin:miter;enable-background:accumulate;stop-color:#000000;stop-opacity:1;opacity:1;stroke:none"
       d="m -18.310547,10.283203 -5.197265,3 a 0.25,0.25 0 0 0 -0.0918,0.341797 0.25,0.25 0 0 0 0.341797,0.0918 l 5.197265,-3 a 0.25,0.25 0 0 0 0.08984,-0.341797 0.25,0.25 0 0 0 -0.339844,-0.0918 z"
       id="path1" />
    <!-- Line -->
    <path
       style="baseline-shift:baseline;display:inline;overflow:visible;vector-effect:none;fill:#000000;stroke-linecap:butt;stroke-linejoin:miter;enable-background:accumulate;stop-color:#000000;stop-opacity:1;opacity:1;stroke:none"
       d="M 0,-27.25 A 0.25,0.25 0 0 0 -0.25,-27 v 6 A 0.25,0.25 0 0 0 0,-20.75 0.25,0.25 0 0 0 0.25,-21 v -6 A 0.25,0.25 0 0 0 0,-27.25 Z"
       id="path2" />
    <!-- Line -->
    <path
       style="baseline-shift:baseline;display:inline;overflow:visible;vector-effect:none;fill:#000000;stroke-linecap:butt;stroke-linejoin:miter;enable-background:accumulate;stop-color:#000000;stop-opacity:1;opacity:1;stroke:none"
       d="m 18.310547,10.283203 a 0.25,0.25 0 0 0 -0.339844,0.0918 0.25,0.25 0 0 0 0.08984,0.341797 l 5.197265,3 a 0.25,0.25 0 0 0 0.341797,-0.0918 0.25,0.25 0 0 0 -0.0918,-0.341797 z"
       id="path3" />
    <!-- Arc -->
    <path
       style="baseline-shift:baseline;display:inline;overflow:visible;vector-effect:none;fill:#000000;stroke-linecap:butt;stroke-linejoin:miter;enable-background:accumulate;stop-color:#000000;stop-opacity:1;opacity:1;stroke:none"
       d="M -25.277344,35.095703 A 0.25,0.25 0 0 0 -25.625,35.152344 0.25,0.25 0 0 0 -25.568359,35.5 c 15.270852,10.998722 35.865866,10.998722 51.136718,0 a 0.25,0.25 0 0 0 0.05664,-0.347656 0.25,0.25 0 0 0 -0.347656,-0.05664 c -15.097872,10.874134 -35.456816,10.874134 -50.554688,0 z"
       id="path4" />
    <!-- Arc -->
    <path
       style="baseline-shift:baseline;display:inline;overflow:visible;vector-effect:none;fill:#000000;stroke-linecap:butt;stroke-linejoin:miter;enable-background:accumulate;stop-color:#000000;stop-opacity:1;opacity:1;stroke:none"
       d="m -37.199219,3.546875 c -2.025771,-0.1455704 -4.098458,0.037491 -6.144531,0.5800781 a 0.25,0.25 0 0 0 -0.177734,0.3046875 0.25,0.25 0 0 0 0.304687,0.1777344 c 7.968326,-2.1130755 16.362506,1.3763328 20.484375,8.515625 4.121869,7.139292 2.946956,16.151862 -2.867187,21.996094 a 0.25,0.25 0 0 0 0,0.353515 0.25,0.25 0 0 0 0.353515,0 c 5.971725,-6.002628 7.178897,-15.26682 2.945313,-22.599609 -3.175189,-5.4995916 -8.821124,-8.8914138 -14.898438,-9.328125 z"
       id="path5" />
    <!-- Arc -->
    <path
       style="baseline-shift:baseline;display:inline;overflow:visible;vector-effect:none;fill:#000000;stroke-linecap:butt;stroke-linejoin:miter;enable-background:accumulate;stop-color:#000000;stop-opacity:1;opacity:1;stroke:none"
       d="M 37.199219,3.546875 C 31.121905,3.9835862 25.47597,7.3754084 22.300781,12.875 c -4.233584,7.332789 -3.026412,16.596981 2.945313,22.599609 a 0.25,0.25 0 0 0 0.353515,0 0.25,0.25 0 0 0 0,-0.353515 C 19.785466,29.276862 18.610553,20.264292 22.732422,13.125 26.854291,5.9857078 35.248471,2.4962995 43.216797,4.609375 A 0.25,0.25 0 0 0 43.521484,4.4316406 0.25,0.25 0 0 0 43.34375,4.1269531 C 41.297677,3.5843665 39.22499,3.4013046 37.199219,3.546875 Z"
       id="path6" />
    <!-- Arc -->
    <path
       style="baseline-shift:baseline;display:inline;overflow:visible;vector-effect:none;fill:#000000;stroke-linecap:butt;stroke-linejoin:miter;enable-background:accumulate;stop-color:#000000;stop-opacity:1;opacity:1;stroke:none"
       d="m -17.958984,-39.894531 c -17.160617,7.725591 -27.46008,25.562786 -25.570313,44.2871091 a 0.25,0.25 0 0 0 0.273438,0.2246094 0.25,0.25 0 0 0 0.224609,-0.2734375 c -1.868361,-18.512223 8.311115,-36.143171 25.277344,-43.78125 a 0.25,0.25 0 0 0 0.125,-0.330078 0.25,0.25 0 0 0 -0.330078,-0.126953 z"
       id="path7" />
    <!-- Arc -->
    <path
       style="baseline-shift:baseline;display:inline;overflow:visible;vector-effect:none;fill:#000000;stroke-linecap:butt;stroke-linejoin:miter;enable-background:accumulate;stop-color:#000000;stop-opacity:1;opacity:1;stroke:none"
       d="m -17.921875,-39.90625 a 0.25,0.25 0 0 0 -0.175781,0.306641 C -15.885075,-31.426648 -8.4671598,-25.75 0,-25.75 c 8.4671598,0 15.885075,-5.676648 18.097656,-13.849609 a 0.25,0.25 0 0 0 -0.175781,-0.306641 0.25,0.25 0 0 0 -0.306641,0.175781 C 15.461039,-31.773175 8.2437295,-26.25 0,-26.25 c -8.2437295,0 -15.461039,-5.523175 -17.615234,-13.480469 a 0.25,0.25 0 0 0 -0.306641,-0.175781 z"
       id="path8" />
    <!-- Arc -->
    <path
       style="baseline-shift:baseline;display:inline;overflow:visible;vector-effect:none;fill:#000000;stroke-linecap:butt;stroke-linejoin:miter;enable-background:accumulate;stop-color:#000000;stop-opacity:1;opacity:1;stroke:none"
       d="m 17.958984,-39.894531 a 0.25,0.25 0 0 0 -0.330078,0.126953 0.25,0.25 0 0 0 0.125,0.330078 c 16.966229,7.638079 27.145705,25.269027 25.277344,43.78125 a 0.25,0.25 0 0 0 0.224609,0.2734375 0.25,0.25 0 0 0 0.273438,-0.2246094 C 45.419064,-14.331745 35.119601,-32.16894 17.958984,-39.894531 Z"
       id="path9" />
    <!-- Line -->
    <path
       style="baseline-shift:baseline;display:inline;overflow:visible;vector-effect:none;fill:#000000;stroke-linecap:butt;stroke-linejoin:miter;enable-background:accumulate;stop-color:#000000;stop-opacity:1;opacity:1;stroke:none"
       d="m 0,38.25 a 0.25,0.25 0 0 0 -0.25,0.25 v 6 A 0.25,0.25 0 0 0 0,44.75 0.25,0.25 0 0 0 0.25,44.5 v -6 A 0.25,0.25 0 0 0 0,38.25 Z"
       id="path10" />
    <!-- Line -->
    <path
       style="baseline-shift:baseline;display:inline;overflow:visible;vector-effect:none;fill:#000000;stroke-linecap:butt;stroke-linejoin:miter;enable-background:accumulate;stop-color:#000000;stop-opacity:1;opacity:1;stroke:none"
       d="m -19.125,33.125 a 0.25,0.25 0 0 0 -0.341797,0.0918 l -3,5.197265 a 0.25,0.25 0 0 0 0.0918,0.339844 0.25,0.25 0 0 0 0.341797,-0.08984 l 3,-5.197265 A 0.25,0.25 0 0 0 -19.125,33.125 Z"
       id="path11" />
    <!-- Line -->
    <path
       style="baseline-shift:baseline;display:inline;overflow:visible;vector-effect:none;fill:#000000;stroke-linecap:butt;stroke-linejoin:miter;enable-background:accumulate;stop-color:#000000;stop-opacity:1;opacity:1;stroke:none"
       d="M -44.5,-0.25 A 0.25,0.25 0 0 0 -44.75,0 0.25,0.25 0 0 0 -44.5,0.25 h 6 A 0.25,0.25 0 0 0 -38.25,0 0.25,0.25 0 0 0 -38.5,-0.25 Z"
       id="path12" />
    <!-- Line -->
    <path
       style="baseline-shift:baseline;display:inline;overflow:visible;vector-effect:none;fill:#000000;stroke-linecap:butt;stroke-linejoin:miter;enable-background:accumulate;stop-color:#000000;stop-opacity:1;opacity:1;stroke:none"
       d="m -38.414062,-22.466797 a 0.25,0.25 0 0 0 -0.339844,0.0918 0.25,0.25 0 0 0 0.08984,0.341797 l 5.197265,3 a 0.25,0.25 0 0 0 0.341797,-0.0918 0.25,0.25 0 0 0 -0.0918,-0.341797 z"
       id="path13" />
    <!-- Line -->
    <path
       style="baseline-shift:baseline;display:inline;overflow:visible;vector-effect:none;fill:#000000;stroke-linecap:butt;stroke-linejoin:miter;enable-background:accumulate;stop-color:#000000;stop-opacity:1;opacity:1;stroke:none"
       d="m -22.375,-38.753906 a 0.25,0.25 0 0 0 -0.0918,0.339844 l 3,5.197265 a 0.25,0.25 0 0 0 0.341797,0.0918 0.25,0.25 0 0 0 0.0918,-0.341797 l -3,-5.197265 a 0.25,0.25 0 0 0 -0.341797,-0.08984 z"
       id="path14" />
    <!-- Line -->
    <path
       style="baseline-shift:baseline;display:inline;overflow:visible;vector-effect:none;fill:#000000;stroke-linecap:butt;stroke-linejoin:miter;enable-background:accumulate;stop-color:#000000;stop-opacity:1;opacity:1;stroke:none"
       d="m 22.375,-38.753906 a 0.25,0.25 0 0 0 -0.341797,0.08984 l -3,5.197265 a 0.25,0.25 0 0 0 0.0918,0.341797 0.25,0.25 0 0 0 0.341797,-0.0918 l 3,-5.197265 a 0.25,0.25 0 0 0 -0.0918,-0.339844 z"
       id="path15" />
    <!-- Line -->
    <path
       style="baseline-shift:baseline;display:inline;overflow:visible;vector-effect:none;fill:#000000;stroke-linecap:butt;stroke-linejoin:miter;enable-background:accumulate;stop-color:#000000;stop-opacity:1;opacity:1;stroke:none"
       d="m 38.414062,-22.466797 -5.197265,3 a 0.25,0.25 0 0 0 -0.0918,0.341797 0.25,0.25 0 0 0 0.341797,0.0918 l 5.197265,-3 a 0.25,0.25 0 0 0 0.08984,-0.341797 0.25,0.25 0 0 0 -0.339844,-0.0918 z"
       id="path16" />
    <!-- Line -->
    <path
       style="baseline-shift:baseline;display:inline;overflow:visible;vector-effect:none;fill:#000000;stroke-linecap:butt;stroke-linejoin:miter;enable-background:accumulate;stop-color:#000000;stop-opacity:1;opacity:1;stroke:none"
       d="M 38.5,-0.25 A 0.25,0.25 0 0 0 38.25,0 0.25,0.25 0 0 0 38.5,0.25 h 6 A 0.25,0.25 0 0 0 44.75,0 0.25,0.25 0 0 0 44.5,-0.25 Z"
       id="path17" />
    <!-- Line -->
    <path
       style="baseline-shift:baseline;display:inline;overflow:visible;vector-effect:none;fill:#000000;stroke-linecap:butt;stroke-linejoin:miter;enable-background:accumulate;stop-color:#000000;stop-opacity:1;opacity:1;stroke:none"
       d="m 19.125,33.125 a 0.25,0.25 0 0 0 -0.0918,0.341797 l 3,5.197265 a 0.25,0.25 0 0 0 0.341797,0.08984 0.25,0.25 0 0 0 0.0918,-0.339844 l -3,-5.197265 A 0.25,0.25 0 0 0 19.125,33.125 Z"
       id="path18" />
    <!-- Line -->
    <path
       style="baseline-shift:baseline;display:inline;overflow:visible;vector-effect:none;fill:#000000;stroke-linecap:butt;stroke-linejoin:miter;enable-background:accumulate;stop-color:#000000;stop-opacity:1;opacity:1;stroke:none"
       d="m -4.3242187,41.148437 a 0.125,0.125 0 0 0 -0.1386719,0.111329 l -0.3125,2.982421 a 0.125,0.125 0 0 0 0.1113281,0.138672 0.125,0.125 0 0 0 0.1367188,-0.111328 l 0.3144531,-2.984375 a 0.125,0.125 0 0 0 -0.1113281,-0.136719 z"
       id="path19" />
    <!-- Line -->
    <path
       style="baseline-shift:baseline;display:inline;overflow:visible;vector-effect:none;fill:#000000;stroke-linecap:butt;stroke-linejoin:miter;enable-background:accumulate;stop-color:#000000;stop-opacity:1;opacity:1;stroke:none"
       d="M -8.6015625,40.470703 A 0.125,0.125 0 0 0 -8.75,40.566406 l -0.625,2.935547 a 0.125,0.125 0 0 0 0.097656,0.148438 0.125,0.125 0 0 0 0.1484375,-0.09766 l 0.6230469,-2.933593 a 0.125,0.125 0 0 0 -0.095703,-0.148438 z"
       id="path20" />
    <!-- Line -->
    <path
       style="baseline-shift:baseline;display:inline;overflow:visible;vector-effect:none;fill:#000000;stroke-linecap:butt;stroke-linejoin:miter;enable-background:accumulate;stop-color:#000000;stop-opacity:1;opacity:1;stroke:none"
       d="m -12.785156,39.349609 a 0.125,0.125 0 0 0 -0.158203,0.08008 l -0.927735,2.853516 a 0.125,0.125 0 0 0 0.08203,0.158203 0.125,0.125 0 0 0 0.15625,-0.08008 l 0.927735,-2.853516 a 0.125,0.125 0 0 0 -0.08008,-0.158203 z"
       id="path21" />
    <!-- Line -->
    <path
       style="baseline-shift:baseline;display:inline;overflow:visible;vector-effect:none;fill:#000000;stroke-linecap:butt;stroke-linejoin:miter;enable-background:accumulate;stop-color:#000000;stop-opacity:1;opacity:1;stroke:none"
       d="m -16.828125,37.798828 a 0.125,0.125 0 0 0 -0.166016,0.0625 l -1.220703,2.740234 a 0.125,0.125 0 0 0 0.06445,0.166016 0.125,0.125 0 0 0 0.164063,-0.06445 l 1.220703,-2.740234 a 0.125,0.125 0 0 0 -0.0625,-0.164063 z"
       id="path22" />
    <!-- Line -->
    <path
       style="baseline-shift:baseline;display:inline;overflow:visible;vector-effect:none;fill:#000000;stroke-linecap:butt;stroke-linejoin:miter;enable-background:accumulate;stop-color:#000000;stop-opacity:1;opacity:1;stroke:none"
       d="m -18.0625,20.060547 a 0.125,0.125 0 0 0 -0.175781,0.0078 l -2.931641,3.25586 a 0.125,0.125 0 0 0 0.0098,0.175781 0.125,0.125 0 0 0 0.175781,-0.0078 l 2.931641,-3.255859 a 0.125,0.125 0 0 0 -0.0098,-0.175781 z"
       id="path23" />
    <!-- Line -->
    <path
       style="baseline-shift:baseline;display:inline;overflow:visible;vector-effect:none;fill:#000000;stroke-linecap:butt;stroke-linejoin:miter;enable-background:accumulate;stop-color:#000000;stop-opacity:1;opacity:1;stroke:none"
       d="m -18.835937,16.792969 -2.556641,2.300781 a 0.125,0.125 0 0 0 -0.0078,0.175781 0.125,0.125 0 0 0 0.175782,0.0098 l 2.554687,-2.300781 a 0.125,0.125 0 0 0 0.0098,-0.177735 0.125,0.125 0 0 0 -0.175781,-0.0078 z"
       id="path24" />
    <!-- Line -->
    <path
       style="baseline-shift:baseline;display:inline;overflow:visible;vector-effect:none;fill:#000000;stroke-linecap:butt;stroke-linejoin:miter;enable-background:accumulate;stop-color:#000000;stop-opacity:1;opacity:1;stroke:none"
       d="m -19.724609,14.175781 -2.503907,1.820313 a 0.125,0.125 0 0 0 -0.02734,0.173828 0.125,0.125 0 0 0 0.173828,0.02734 l 2.503906,-1.81836 a 0.125,0.125 0 0 0 0.02734,-0.173828 0.125,0.125 0 0 0 -0.173828,-0.0293 z"
       id="path25" />
    <!-- Line -->
    <path
       style="baseline-shift:baseline;display:inline;overflow:visible;vector-effect:none;fill:#000000;stroke-linecap:butt;stroke-linejoin:miter;enable-background:accumulate;stop-color:#000000;stop-opacity:1;opacity:1;stroke:none"
       d="m -22.242187,9.765625 -2.826172,1.259766 a 0.125,0.125 0 0 0 -0.06445,0.164062 0.125,0.125 0 0 0 0.166015,0.06445 l 2.826172,-1.2597654 a 0.125,0.125 0 0 0 0.06445,-0.1640625 0.125,0.125 0 0 0 -0.166015,-0.064453 z"
       id="path26" />
    <!-- Line -->
    <path
       style="baseline-shift:baseline;display:inline;overflow:visible;vector-effect:none;fill:#000000;stroke-linecap:butt;stroke-linejoin:miter;enable-background:accumulate;stop-color:#000000;stop-opacity:1;opacity:1;stroke:none"
       d="m -24.037109,7.6796875 -3.271485,1.0625 a 0.125,0.125 0 0 0 -0.08008,0.15625 0.125,0.125 0 0 0 0.158203,0.080078 l 3.269532,-1.0625 a 0.125,0.125 0 0 0 0.08008,-0.15625 0.125,0.125 0 0 0 -0.15625,-0.080078 z"
       id="path27" />
    <!-- Line -->
    <path
       style="baseline-shift:baseline;display:inline;overflow:visible;vector-effect:none;fill:#000000;stroke-linecap:butt;stroke-linejoin:miter;enable-background:accumulate;stop-color:#000000;stop-opacity:1;opacity:1;stroke:none"
       d="m -26.550781,5.515625 -4.285156,0.9101562 a 0.125,0.125 0 0 0 -0.0957,0.1484375 0.125,0.125 0 0 0 0.148438,0.097656 L -26.5,5.7597656 a 0.125,0.125 0 0 0 0.0957,-0.1484375 0.125,0.125 0 0 0 -0.146484,-0.095703 z"
       id="path28" />
    <!-- Line -->
    <path
       style="baseline-shift:baseline;display:inline;overflow:visible;vector-effect:none;fill:#000000;stroke-linecap:butt;stroke-linejoin:miter;enable-background:accumulate;stop-color:#000000;stop-opacity:1;opacity:1;stroke:none"
       d="m -44.242187,-4.7753906 a 0.125,0.125 0 0 0 -0.138672,0.1113281 0.125,0.125 0 0 0 0.111328,0.1367188 l 2.984375,0.3144531 a 0.125,0.125 0 0 0 0.136719,-0.1113281 0.125,0.125 0 0 0 -0.111329,-0.1386719 z"
       id="path29" />
    <!-- Line -->
    <path
       style="baseline-shift:baseline;display:inline;overflow:visible;vector-effect:none;fill:#000000;stroke-linecap:butt;stroke-linejoin:miter;enable-background:accumulate;stop-color:#000000;stop-opacity:1;opacity:1;stroke:none"
       d="m -43.501953,-9.375 a 0.125,0.125 0 0 0 -0.148438,0.097656 0.125,0.125 0 0 0 0.09766,0.1484375 l 2.933593,0.6230469 a 0.125,0.125 0 0 0 0.148438,-0.095703 0.125,0.125 0 0 0 -0.0957,-0.1484375 z"
       id="path30" />
    <!-- Line -->
    <path
       style="baseline-shift:baseline;display:inline;overflow:visible;vector-effect:none;fill:#000000;stroke-linecap:butt;stroke-linejoin:miter;enable-background:accumulate;stop-color:#000000;stop-opacity:1;opacity:1;stroke:none"
       d="m -42.283203,-13.871094 a 0.125,0.125 0 0 0 -0.158203,0.08203 0.125,0.125 0 0 0 0.08008,0.15625 l 2.853516,0.927735 a 0.125,0.125 0 0 0 0.158203,-0.08008 0.125,0.125 0 0 0 -0.08008,-0.158203 z"
       id="path31" />
    <!-- Line -->
    <path
       style="baseline-shift:baseline;display:inline;overflow:visible;vector-effect:none;fill:#000000;stroke-linecap:butt;stroke-linejoin:miter;enable-background:accumulate;stop-color:#000000;stop-opacity:1;opacity:1;stroke:none"
       d="m -40.601562,-18.214844 a 0.125,0.125 0 0 0 -0.166016,0.06445 0.125,0.125 0 0 0 0.06445,0.164063 l 2.740234,1.220703 a 0.125,0.125 0 0 0 0.164063,-0.0625 0.125,0.125 0 0 0 -0.0625,-0.166016 z"
       id="path32" />
    <!-- Line -->
    <path
       style="baseline-shift:baseline;display:inline;overflow:visible;vector-effect:none;fill:#000000;stroke-linecap:butt;stroke-linejoin:miter;enable-background:accumulate;stop-color:#000000;stop-opacity:1;opacity:1;stroke:none"
       d="m -35.927734,-26.257812 a 0.125,0.125 0 0 0 -0.173828,0.02734 0.125,0.125 0 0 0 0.02734,0.175782 l 2.425782,1.763671 a 0.125,0.125 0 0 0 0.175781,-0.0293 0.125,0.125 0 0 0 -0.02734,-0.173829 z"
       id="path33" />
    <!-- Line -->
    <path
       style="baseline-shift:baseline;display:inline;overflow:visible;vector-effect:none;fill:#000000;stroke-linecap:butt;stroke-linejoin:miter;enable-background:accumulate;stop-color:#000000;stop-opacity:1;opacity:1;stroke:none"
       d="m -32.986328,-29.869141 a 0.125,0.125 0 0 0 -0.175781,0.0098 0.125,0.125 0 0 0 0.0078,0.175781 l 2.230469,2.007813 a 0.125,0.125 0 0 0 0.175781,-0.0098 0.125,0.125 0 0 0 -0.0098,-0.175781 z"
       id="path34" />
    <!-- Line -->
    <path
       style="baseline-shift:baseline;display:inline;overflow:visible;vector-effect:none;fill:#000000;stroke-linecap:butt;stroke-linejoin:miter;enable-background:accumulate;stop-color:#000000;stop-opacity:1;opacity:1;stroke:none"
       d="m -29.859375,-33.162109 a 0.125,0.125 0 0 0 -0.0098,0.175781 l 2.007813,2.228516 a 0.125,0.125 0 0 0 0.175781,0.0098 0.125,0.125 0 0 0 0.0098,-0.175781 l -2.007813,-2.230469 a 0.125,0.125 0 0 0 -0.175781,-0.0078 z"
       id="path35" />
    <!-- Line -->
    <path
       style="baseline-shift:baseline;display:inline;overflow:visible;vector-effect:none;fill:#000000;stroke-linecap:butt;stroke-linejoin:miter;enable-background:accumulate;stop-color:#000000;stop-opacity:1;opacity:1;stroke:none"
       d="m -26.230469,-36.101562 a 0.125,0.125 0 0 0 -0.02734,0.173828 L -24.494141,-33.5 a 0.125,0.125 0 0 0 0.173829,0.02734 0.125,0.125 0 0 0 0.0293,-0.175781 l -1.763671,-2.425782 a 0.125,0.125 0 0 0 -0.175782,-0.02734 z"
       id="path36" />
    <!-- Line -->
    <path
       style="baseline-shift:baseline;display:inline;overflow:visible;vector-effect:none;fill:#000000;stroke-linecap:butt;stroke-linejoin:miter;enable-background:accumulate;stop-color:#000000;stop-opacity:1;opacity:1;stroke:none"
       d="m -9.7714844,-30.076172 a 0.125,0.125 0 0 0 -0.080078,0.158203 l 1.3535156,4.166016 a 0.125,0.125 0 0 0 0.15625,0.08008 0.125,0.125 0 0 0 0.080078,-0.158203 l -1.3535156,-4.166016 a 0.125,0.125 0 0 0 -0.15625,-0.08008 z"
       id="path37" />
    <!-- Line -->
    <path
       style="baseline-shift:baseline;display:inline;overflow:visible;vector-effect:none;fill:#000000;stroke-linecap:butt;stroke-linejoin:miter;enable-background:accumulate;stop-color:#000000;stop-opacity:1;opacity:1;stroke:none"
       d="m -5.9882812,-28.169922 a 0.125,0.125 0 0 0 -0.095703,0.148438 l 0.7148438,3.365234 a 0.125,0.125 0 0 0 0.1484375,0.0957 0.125,0.125 0 0 0 0.095703,-0.148437 l -0.7148437,-3.363282 a 0.125,0.125 0 0 0 -0.1484375,-0.09766 z"
       id="path38" />
    <!-- Line -->
    <path
       style="baseline-shift:baseline;display:inline;overflow:visible;vector-effect:none;fill:#000000;stroke-linecap:butt;stroke-linejoin:miter;enable-background:accumulate;stop-color:#000000;stop-opacity:1;opacity:1;stroke:none"
       d="m -2.875,-27.359375 a 0.125,0.125 0 0 0 -0.1113281,0.136719 l 0.3222656,3.078125 a 0.125,0.125 0 0 0 0.1386719,0.111328 0.125,0.125 0 0 0 0.1113281,-0.138672 l -0.3242188,-3.076172 A 0.125,0.125 0 0 0 -2.875,-27.359375 Z"
       id="path39" />
    <!-- Line -->
    <path
       style="baseline-shift:baseline;display:inline;overflow:visible;vector-effect:none;fill:#000000;stroke-linecap:butt;stroke-linejoin:miter;enable-background:accumulate;stop-color:#000000;stop-opacity:1;opacity:1;stroke:none"
       d="m 2.875,-27.359375 a 0.125,0.125 0 0 0 -0.1367187,0.111328 l -0.3242188,3.076172 a 0.125,0.125 0 0 0 0.1113281,0.138672 0.125,0.125 0 0 0 0.1386719,-0.111328 l 0.3222656,-3.078125 A 0.125,0.125 0 0 0 2.875,-27.359375 Z"
       id="path40" />
    <!-- Line -->
    <path
       style="baseline-shift:baseline;display:inline;overflow:visible;vector-effect:none;fill:#000000;stroke-linecap:butt;stroke-linejoin:miter;enable-background:accumulate;stop-color:#000000;stop-opacity:1;opacity:1;stroke:none"
       d="m 5.9882812,-28.169922 a 0.125,0.125 0 0 0 -0.1484375,0.09766 L 5.125,-24.708984 a 0.125,0.125 0 0 0 0.095703,0.148437 0.125,0.125 0 0 0 0.1484375,-0.0957 l 0.7148438,-3.365234 a 0.125,0.125 0 0 0 -0.095703,-0.148438 z"
       id="path41" />
    <!-- Line -->
    <path
       style="baseline-shift:baseline;display:inline;overflow:visible;vector-effect:none;fill:#000000;stroke-linecap:butt;stroke-linejoin:miter;enable-background:accumulate;stop-color:#000000;stop-opacity:1;opacity:1;stroke:none"
       d="m 9.7714844,-30.076172 a 0.125,0.125 0 0 0 -0.15625,0.08008 l -1.3535156,4.166016 a 0.125,0.125 0 0 0 0.080078,0.158203 0.125,0.125 0 0 0 0.15625,-0.08008 l 1.3535156,-4.166016 a 0.125,0.125 0 0 0 -0.080078,-0.158203 z"
       id="path42" />
    <!-- Line -->
    <path
       style="baseline-shift:baseline;display:inline;overflow:visible;vector-effect:none;fill:#000000;stroke-linecap:butt;stroke-linejoin:miter;enable-background:accumulate;stop-color:#000000;stop-opacity:1;opacity:1;stroke:none"
       d="m 26.230469,-36.101562 a 0.125,0.125 0 0 0 -0.175782,0.02734 l -1.763671,2.425782 a 0.125,0.125 0 0 0 0.0293,0.175781 0.125,0.125 0 0 0 0.173829,-0.02734 l 1.763671,-2.427734 a 0.125,0.125 0 0 0 -0.02734,-0.173828 z"
       id="path43" />
    <!-- Line -->
    <path
       style="baseline-shift:baseline;display:inline;overflow:visible;vector-effect:none;fill:#000000;stroke-linecap:butt;stroke-linejoin:miter;enable-background:accumulate;stop-color:#000000;stop-opacity:1;opacity:1;stroke:none"
       d="m 29.859375,-33.162109 a 0.125,0.125 0 0 0 -0.175781,0.0078 l -2.007813,2.230469 a 0.125,0.125 0 0 0 0.0098,0.175781 0.125,0.125 0 0 0 0.175781,-0.0098 l 2.007813,-2.228516 a 0.125,0.125 0 0 0 -0.0098,-0.175781 z"
       id="path44" />
    <!-- Line -->
    <path
       style="baseline-shift:baseline;display:inline;overflow:visible;vector-effect:none;fill:#000000;stroke-linecap:butt;stroke-linejoin:miter;enable-background:accumulate;stop-color:#000000;stop-opacity:1;opacity:1;stroke:none"
       d="m 32.986328,-29.869141 -2.228516,2.007813 a 0.125,0.125 0 0 0 -0.0098,0.175781 0.125,0.125 0 0 0 0.175781,0.0098 l 2.230469,-2.007813 a 0.125,0.125 0 0 0 0.0078,-0.175781 0.125,0.125 0 0 0 -0.175781,-0.0098 z"
       id="path45" />
    <!-- Line -->
    <path
       style="baseline-shift:baseline;display:inline;overflow:visible;vector-effect:none;fill:#000000;stroke-linecap:butt;stroke-linejoin:miter;enable-background:accumulate;stop-color:#000000;stop-opacity:1;opacity:1;stroke:none"
       d="M 35.927734,-26.257812 33.5,-24.494141 a 0.125,0.125 0 0 0 -0.02734,0.173829 0.125,0.125 0 0 0 0.175781,0.0293 l 2.425782,-1.763671 a 0.125,0.125 0 0 0 0.02734,-0.175782 0.125,0.125 0 0 0 -0.173828,-0.02734 z"
       id="path46" />
    <!-- Line -->
    <path
       style="baseline-shift:baseline;display:inline;overflow:visible;vector-effect:none;fill:#000000;stroke-linecap:butt;stroke-linejoin:miter;enable-background:accumulate;stop-color:#000000;stop-opacity:1;opacity:1;stroke:none"
       d="m 40.601562,-18.214844 -2.740234,1.220703 a 0.125,0.125 0 0 0 -0.0625,0.166016 0.125,0.125 0 0 0 0.164063,0.0625 l 2.740234,-1.220703 a 0.125,0.125 0 0 0 0.06445,-0.164063 0.125,0.125 0 0 0 -0.166016,-0.06445 z"
       id="path47" />
    <!-- Line -->
    <path
       style="baseline-shift:baseline;display:inline;overflow:visible;vector-effect:none;fill:#000000;stroke-linecap:butt;stroke-linejoin:miter;enable-background:accumulate;stop-color:#000000;stop-opacity:1;opacity:1;stroke:none"
       d="m 42.283203,-13.871094 -2.853516,0.927735 a 0.125,0.125 0 0 0 -0.08008,0.158203 0.125,0.125 0 0 0 0.158203,0.08008 l 2.853516,-0.927735 a 0.125,0.125 0 0 0 0.08008,-0.15625 0.125,0.125 0 0 0 -0.158203,-0.08203 z"
       id="path48" />
    <!-- Line -->
    <path
       style="baseline-shift:baseline;display:inline;overflow:visible;vector-effect:none;fill:#000000;stroke-linecap:butt;stroke-linejoin:miter;enable-background:accumulate;stop-color:#000000;stop-opacity:1;opacity:1;stroke:none"
       d="m 43.501953,-9.375 -2.935547,0.625 a 0.125,0.125 0 0 0 -0.0957,0.1484375 0.125,0.125 0 0 0 0.148438,0.095703 l 2.933593,-0.6230469 A 0.125,0.125 0 0 0 43.650391,-9.2773438 0.125,0.125 0 0 0 43.501953,-9.375 Z"
       id="path49" />
    <!-- Line -->
    <path
       style="baseline-shift:baseline;display:inline;overflow:visible;vector-effect:none;fill:#000000;stroke-linecap:butt;stroke-linejoin:miter;enable-background:accumulate;stop-color:#000000;stop-opacity:1;opacity:1;stroke:none"
       d="m 44.242187,-4.7753906 -2.982421,0.3125 a 0.125,0.125 0 0 0 -0.111329,0.1386719 0.125,0.125 0 0 0 0.136719,0.1113281 l 2.984375,-0.3144531 a 0.125,0.125 0 0 0 0.111328,-0.1367188 0.125,0.125 0 0 0 -0.138672,-0.1113281 z"
       id="path50" />
    <!-- Line -->
    <path
       style="baseline-shift:baseline;display:inline;overflow:visible;vector-effect:none;fill:#000000;stroke-linecap:butt;stroke-linejoin:miter;enable-background:accumulate;stop-color:#000000;stop-opacity:1;opacity:1;stroke:none"
       d="M 26.550781,5.515625 A 0.125,0.125 0 0 0 26.404297,5.6113281 0.125,0.125 0 0 0 26.5,5.7597656 l 4.283203,0.9121094 a 0.125,0.125 0 0 0 0.148438,-0.097656 0.125,0.125 0 0 0 -0.0957,-0.1484375 z"
       id="path51" />
    <!-- Line -->
    <path
       style="baseline-shift:baseline;display:inline;overflow:visible;vector-effect:none;fill:#000000;stroke-linecap:butt;stroke-linejoin:miter;enable-background:accumulate;stop-color:#000000;stop-opacity:1;opacity:1;stroke:none"
       d="m 24.037109,7.6796875 a 0.125,0.125 0 0 0 -0.15625,0.080078 0.125,0.125 0 0 0 0.08008,0.15625 l 3.269532,1.0625 a 0.125,0.125 0 0 0 0.158203,-0.080078 0.125,0.125 0 0 0 -0.08008,-0.15625 z"
       id="path52" />
    <!-- Line -->
    <path
       style="baseline-shift:baseline;display:inline;overflow:visible;vector-effect:none;fill:#000000;stroke-linecap:butt;stroke-linejoin:miter;enable-background:accumulate;stop-color:#000000;stop-opacity:1;opacity:1;stroke:none"
       d="m 22.242187,9.765625 a 0.125,0.125 0 0 0 -0.166015,0.064453 0.125,0.125 0 0 0 0.06445,0.1640625 l 2.826172,1.2597654 a 0.125,0.125 0 0 0 0.166015,-0.06445 0.125,0.125 0 0 0 -0.06445,-0.164062 z"
       id="path53" />
    <!-- Line -->
    <path
       style="baseline-shift:baseline;display:inline;overflow:visible;vector-effect:none;fill:#000000;stroke-linecap:butt;stroke-linejoin:miter;enable-background:accumulate;stop-color:#000000;stop-opacity:1;opacity:1;stroke:none"
       d="m 19.724609,14.175781 a 0.125,0.125 0 0 0 -0.173828,0.0293 0.125,0.125 0 0 0 0.02734,0.173828 l 2.503906,1.81836 a 0.125,0.125 0 0 0 0.173828,-0.02734 0.125,0.125 0 0 0 -0.02734,-0.173828 z"
       id="path54" />
    <!-- Line -->
    <path
       style="baseline-shift:baseline;display:inline;overflow:visible;vector-effect:none;fill:#000000;stroke-linecap:butt;stroke-linejoin:miter;enable-background:accumulate;stop-color:#000000;stop-opacity:1;opacity:1;stroke:none"
       d="m 18.835937,16.792969 a 0.125,0.125 0 0 0 -0.175781,0.0078 0.125,0.125 0 0 0 0.0098,0.177735 l 2.554687,2.300781 a 0.125,0.125 0 0 0 0.175782,-0.0098 0.125,0.125 0 0 0 -0.0078,-0.175781 z"
       id="path55" />
    <!-- Line -->
    <path
       style="baseline-shift:baseline;display:inline;overflow:visible;vector-effect:none;fill:#000000;stroke-linecap:butt;stroke-linejoin:miter;enable-background:accumulate;stop-color:#000000;stop-opacity:1;opacity:1;stroke:none"
       d="m 18.0625,20.060547 a 0.125,0.125 0 0 0 -0.0098,0.175781 l 2.931641,3.255859 a 0.125,0.125 0 0 0 0.175781,0.0078 0.125,0.125 0 0 0 0.0098,-0.175781 l -2.931641,-3.25586 a 0.125,0.125 0 0 0 -0.175781,-0.0078 z"
       id="path56" />
    <!-- Line -->
    <path
       style="baseline-shift:baseline;display:inline;overflow:visible;vector-effect:none;fill:#000000;stroke-linecap:butt;stroke-linejoin:miter;enable-background:accumulate;stop-color:#000000;stop-opacity:1;opacity:1;stroke:none"
       d="m 16.828125,37.798828 a 0.125,0.125 0 0 0 -0.0625,0.164063 l 1.220703,2.740234 a 0.125,0.125 0 0 0 0.164063,0.06445 0.125,0.125 0 0 0 0.06445,-0.166016 l -1.220703,-2.740234 a 0.125,0.125 0 0 0 -0.166016,-0.0625 z"
       id="path57" />
    <!-- Line -->
    <path
       style="baseline-shift:baseline;display:inline;overflow:visible;vector-effect:none;fill:#000000;stroke-linecap:butt;stroke-linejoin:miter;enable-background:accumulate;stop-color:#000000;stop-opacity:1;opacity:1;stroke:none"
       d="m 12.785156,39.349609 a 0.125,0.125 0 0 0 -0.08008,0.158203 l 0.927735,2.853516 a 0.125,0.125 0 0 0 0.15625,0.08008 0.125,0.125 0 0 0 0.08203,-0.158203 l -0.927735,-2.853516 a 0.125,0.125 0 0 0 -0.158203,-0.08008 z"
       id="path58" />
    <!-- Line -->
    <path
       style="baseline-shift:baseline;display:inline;overflow:visible;vector-effect:none;fill:#000000;stroke-linecap:butt;stroke-linejoin:miter;enable-background:accumulate;stop-color:#000000;stop-opacity:1;opacity:1;stroke:none"
       d="m 8.6015625,40.470703 a 0.125,0.125 0 0 0 -0.095703,0.148438 l 0.6230469,2.933593 A 0.125,0.125 0 0 0 9.2773438,43.650391 0.125,0.125 0 0 0 9.375,43.501953 L 8.75,40.566406 a 0.125,0.125 0 0 0 -0.1484375,-0.0957 z"
       id="path59" />
    <!-- Line -->
    <path
       style="baseline-shift:baseline;display:inline;overflow:visible;vector-effect:none;fill:#000000;stroke-linecap:butt;stroke-linejoin:miter;enable-background:accumulate;stop-color:#000000;stop-opacity:1;opacity:1;stroke:none"
       d="m 4.3242187,41.148437 a 0.125,0.125 0 0 0 -0.1113281,0.136719 l 0.3144531,2.984375 a 0.125,0.125 0 0 0 0.1367188,0.111328 0.125,0.125 0 0 0 0.1113281,-0.138672 l -0.3125,-2.982421 A 0.125,0.125 0 0 0 4.3242187,41.148437 Z"
       id="path60" />
    <!-- Circle -->
    <path
       style="baseline-shift:baseline;display:inline;overflow:visible;vector-effect:none;fill:#000000;stroke-linecap:butt;stroke-linejoin:miter;enable-background:accumulate;stop-color:#000000;stop-opacity:1;opacity:1;stroke:none"
       d="m 0,-6.25 c -3.4488185,0 -6.25,2.8011815 -6.25,6.25 0,3.4488185 2.8011815,6.25 6.25,6.25 C 3.4488185,6.25 6.25,3.4488185 6.25,0 6.25,-3.4488185 3.4488185,-6.25 0,-6.25 Z m 0,0.5 c 3.1785985,0 5.75,2.5714015 5.75,5.75 0,3.1785985 -2.5714015,5.75 -5.75,5.75 -3.1785985,0 -5.75,-2.5714015 -5.75,-5.75 0,-3.1785985 2.5714015,-5.75 5.75,-5.75 z"
       id="circle60" />
    <!-- Text: 12 -->
    <g
       id="g61"
       style="fill:#000000;stroke:none">
      <path
         d="M-1.8775,30.15 L-2.657,30.15 L-2.657,35.1181 C-2.8446,34.9395 -3.0908,34.7606 -3.3954,34.5813 C-3.7001,34.4021 -3.9737,34.2677 -4.2161,34.178 L-4.2161,34.9326 C-3.7805,35.1375 -3.3994,35.3857 -3.0729,35.6772 C-2.7463,35.9687 -2.5153,36.2516 -2.3798,36.5261 L-1.8775,36.5261 Z M4.2161,30.8993 L4.2161,30.15 L0.0193,30.15 C0.013,30.3376 0.0433,30.5182 0.1099,30.6919 C0.2169,30.9775 0.388,31.2589 0.6232,31.5361 C0.8584,31.8133 1.1983,32.134 1.643,32.498 C2.3336,33.0636 2.8002,33.5117 3.0426,33.8424 C3.2851,34.1732 3.4064,34.4858 3.4064,34.7804 C3.4064,35.0896 3.2959,35.3503 3.075,35.5626 C2.854,35.7748 2.566,35.8809 2.211,35.8809 C1.8351,35.8809 1.5346,35.7682 1.3095,35.5428 C1.0844,35.3173 0.9704,35.0055 0.9677,34.6074 L0.1662,34.6897 C0.2211,35.2873 0.4276,35.7427 0.7858,36.056 C1.144,36.3694 1.6246,36.5261 2.2277,36.5261 C2.837,36.5261 3.3193,36.357 3.6747,36.019 C4.0301,35.681 4.2078,35.2622 4.2078,34.7627 C4.2078,34.5091 4.1559,34.2595 4.052,34.0139 C3.9481,33.7683 3.7755,33.5098 3.534,33.2385 C3.2926,32.9672 2.8919,32.5946 2.3319,32.1208 C1.8643,31.7282 1.564,31.4619 1.4309,31.3219 C1.2979,31.1819 1.1883,31.0411 1.1021,30.8993 Z"
         style="fill:#000000;fill-rule:evenodd;stroke:none"
         id="path61" />
    </g>
    <!-- Text: 11 -->
    <g
       id="g62"
       style="fill:#000000;stroke:none">
      <path
         d="M-14.9452,25.2599 L-15.7248,25.2599 L-15.7248,30.228 C-15.9124,30.0494 -16.1585,29.8705 -16.4632,29.6913 C-16.7678,29.512 -17.0414,29.3776 -17.2839,29.288 L-17.2839,30.0425 C-16.8483,30.2475 -16.4672,30.4957 -16.1406,30.7871 C-15.8141,31.0786 -15.5831,31.3615 -15.4476,31.636 L-14.9452,31.636 Z M-10.6713,25.2599 L-11.4508,25.2599 L-11.4508,30.228 C-11.6384,30.0494 -11.8845,29.8705 -12.1892,29.6913 C-12.4939,29.512 -12.7674,29.3776 -13.0099,29.288 L-13.0099,30.0425 C-12.5743,30.2475 -12.1932,30.4957 -11.8667,30.7871 C-11.5401,31.0786 -11.3091,31.3615 -11.1736,31.636 L-10.6713,31.636 Z"
         style="fill:#000000;fill-rule:evenodd;stroke:none"
         id="path62" />
    </g>
    <!-- Text: 9 -->
    <g
       id="g63"
       style="fill:#000000;stroke:none">
      <path
         d="M-36.0143,-1.7066 L-35.265,-1.6378 C-35.2018,-1.99 -35.0807,-2.2455 -34.9018,-2.4043 C-34.7229,-2.5631 -34.4931,-2.6424 -34.2124,-2.6424 C-33.9734,-2.6424 -33.7636,-2.5876 -33.5829,-2.4778 C-33.4023,-2.368 -33.2541,-2.2214 -33.1384,-2.038 C-33.0228,-1.8546 -32.926,-1.6069 -32.8482,-1.2949 C-32.7704,-0.9829 -32.7315,-0.6654 -32.7315,-0.3424 C-32.7315,-0.3076 -32.7329,-0.2555 -32.7356,-0.186 C-32.892,-0.4348 -33.1051,-0.6363 -33.375,-0.7905 C-33.6449,-0.9447 -33.9373,-1.0219 -34.252,-1.0219 C-34.7773,-1.0219 -35.2219,-0.8313 -35.586,-0.4502 C-35.9501,-0.0691 -36.1321,0.4334 -36.1321,1.0573 C-36.1321,1.7014 -35.9423,2.2197 -35.5626,2.6122 C-35.1829,3.0048 -34.7071,3.2011 -34.1353,3.2011 C-33.7219,3.2011 -33.3441,3.0899 -33.0019,2.8676 C-32.6597,2.6452 -32.3999,2.3282 -32.2224,1.9166 C-32.0449,1.5049 -31.9561,0.9093 -31.9561,0.1298 C-31.9561,-0.6818 -32.0442,-1.3279 -32.2203,-1.8087 C-32.3964,-2.2895 -32.6585,-2.6555 -33.0066,-2.9066 C-33.3547,-3.1578 -33.7625,-3.2834 -34.2301,-3.2834 C-34.7269,-3.2834 -35.1327,-3.1455 -35.4474,-2.8696 C-35.7621,-2.5938 -35.9511,-2.2061 -36.0143,-1.7066 M-32.8221,1.0959 C-32.8221,1.5433 -32.9413,1.8985 -33.1796,2.1615 C-33.4179,2.4245 -33.7045,2.5559 -34.0394,2.5559 C-34.3861,2.5559 -34.688,2.4144 -34.9451,2.1313 C-35.2021,1.8481 -35.3307,1.4815 -35.3307,1.0312 C-35.3307,0.6269 -35.2086,0.2984 -34.9643,0.0459 C-34.7201,-0.2067 -34.4191,-0.333 -34.0613,-0.333 C-33.7,-0.333 -33.4032,-0.2067 -33.1708,0.0459 C-32.9384,0.2984 -32.8221,0.6484 -32.8221,1.0959"
         style="fill:#000000;fill-rule:evenodd;stroke:none"
         id="path63" />
    </g>
    <!-- Text: 8 -->
    <g
       id="g64"
       style="fill:#000000;stroke:none">
      <path
         d="M-30.0414,-14.8066 C-30.3652,-14.6878 -30.6051,-14.5188 -30.7611,-14.2996 C-30.9171,-14.0804 -30.995,-13.8176 -30.995,-13.5112 C-30.995,-13.0492 -30.829,-12.6608 -30.4969,-12.3461 C-30.1648,-12.0313 -29.7229,-11.8739 -29.1712,-11.8739 C-28.6168,-11.8739 -28.1706,-12.035 -27.8325,-12.357 C-27.4945,-12.679 -27.3255,-13.0711 -27.3255,-13.5331 C-27.3255,-13.8277 -27.4028,-14.0839 -27.5574,-14.3017 C-27.712,-14.5195 -27.9467,-14.6878 -28.2614,-14.8066 C-27.8716,-14.9338 -27.575,-15.1387 -27.3714,-15.4215 C-27.1678,-15.7043 -27.066,-16.0423 -27.066,-16.4356 C-27.066,-16.9782 -27.2581,-17.4343 -27.6423,-17.8039 C-28.0266,-18.1736 -28.532,-18.3584 -29.1587,-18.3584 C-29.7847,-18.3584 -30.2898,-18.1729 -30.6741,-17.8019 C-31.0583,-17.4308 -31.2504,-16.9681 -31.2504,-16.4137 C-31.2504,-16.0003 -31.1456,-15.6543 -30.9362,-15.3757 C-30.7267,-15.0971 -30.4284,-14.9074 -30.0414,-14.8066 M-30.1978,-13.4852 C-30.1978,-13.7853 -30.101,-14.0307 -29.9075,-14.2215 C-29.714,-14.4122 -29.4627,-14.5075 -29.1535,-14.5075 C-28.8534,-14.5075 -28.6072,-14.413 -28.4151,-14.2241 C-28.223,-14.0351 -28.127,-13.8034 -28.127,-13.5289 C-28.127,-13.2427 -28.226,-13.0021 -28.424,-12.8072 C-28.622,-12.6123 -28.8683,-12.5149 -29.1629,-12.5149 C-29.4603,-12.5149 -29.7071,-12.6102 -29.9034,-12.801 C-30.0996,-12.9917 -30.1978,-13.2197 -30.1978,-13.4852 M-30.4489,-16.4178 C-30.4489,-16.6402 -30.3963,-16.8552 -30.291,-17.063 C-30.1858,-17.2707 -30.0291,-17.4317 -29.821,-17.546 C-29.6129,-17.6603 -29.389,-17.7174 -29.1493,-17.7174 C-28.7769,-17.7174 -28.4695,-17.5976 -28.227,-17.3579 C-27.9845,-17.1182 -27.8633,-16.8135 -27.8633,-16.4439 C-27.8633,-16.0687 -27.9882,-15.7583 -28.238,-15.5127 C-28.4877,-15.2671 -28.8002,-15.1443 -29.1754,-15.1443 C-29.5422,-15.1443 -29.8462,-15.2655 -30.0873,-15.508 C-30.3284,-15.7505 -30.4489,-16.0538 -30.4489,-16.4178"
         style="fill:#000000;fill-rule:evenodd;stroke:none"
         id="path64" />
    </g>
    <!-- Text: 7 -->
    <g
       id="g65"
       style="fill:#000000;stroke:none">
      <path
         d="M-20.3052,-26.0916 L-20.3052,-25.3423 L-16.1948,-25.3423 L-16.1948,-25.9488 C-16.5985,-26.3789 -16.9989,-26.9505 -17.3959,-27.6637 C-17.793,-28.3769 -18.0999,-29.1104 -18.3167,-29.8643 C-18.473,-30.3958 -18.5727,-30.9777 -18.6158,-31.6099 L-19.4172,-31.6099 C-19.4082,-31.1104 -19.3099,-30.5068 -19.1223,-29.7991 C-18.9347,-29.0915 -18.6655,-28.4092 -18.3146,-27.7523 C-17.9637,-27.0954 -17.5906,-26.5418 -17.1953,-26.0916 Z"
         style="fill:#000000;fill-rule:evenodd;stroke:none"
         id="path65" />
    </g>
    <!-- Text: 5 -->
    <g
       id="g66"
       style="fill:#000000;stroke:none">
      <path
         d="M16.1448,-29.9466 L16.964,-29.8768 C17.0244,-30.2756 17.1651,-30.5754 17.386,-30.7762 C17.607,-30.977 17.8734,-31.0774 18.1854,-31.0774 C18.5606,-31.0774 18.8781,-30.9358 19.1379,-30.6527 C19.3978,-30.3696 19.5277,-29.9942 19.5277,-29.5266 C19.5277,-29.0819 19.4028,-28.7311 19.153,-28.474 C18.9033,-28.2169 18.5762,-28.0884 18.1718,-28.0884 C17.921,-28.0884 17.6945,-28.1454 17.4923,-28.2593 C17.2902,-28.3733 17.1314,-28.5213 17.0161,-28.7033 L16.2834,-28.6085 L16.8983,-25.3464 L20.0561,-25.3464 L20.0561,-26.0916 L17.5226,-26.0916 L17.1807,-27.7976 C17.5615,-27.5322 17.9613,-27.3995 18.3803,-27.3995 C18.9347,-27.3995 19.4025,-27.5916 19.7836,-27.9758 C20.1647,-28.3601 20.3552,-28.8537 20.3552,-29.4568 C20.3552,-30.0314 20.1878,-30.5281 19.8529,-30.9471 C19.4457,-31.4612 18.8899,-31.7183 18.1854,-31.7183 C17.608,-31.7183 17.1366,-31.5566 16.7711,-31.2332 C16.4057,-30.9098 16.1969,-30.4809 16.1448,-29.9466"
         style="fill:#000000;fill-rule:evenodd;stroke:none"
         id="path66" />
    </g>
    <!-- Text: 4 -->
    <g
       id="g67"
       style="fill:#000000;stroke:none">
      <path
         d="M29.9716,-18.25 L29.9716,-16.7295 L27.2171,-16.7295 L27.2171,-16.0145 L30.1154,-11.9 L30.7522,-11.9 L30.7522,-16.0145 L31.6099,-16.0145 L31.6099,-16.7295 L30.7522,-16.7295 L30.7522,-18.25 Z M29.9716,-16.0145 L29.9716,-13.1517 L27.9842,-16.0145 Z"
         style="fill:#000000;fill-rule:evenodd;stroke:none"
         id="path67" />
    </g>
    <!-- Text: 3 -->
    <g
       id="g68"
       style="fill:#000000;stroke:none">
      <path
         d="M32.3417,-1.4992 L33.1223,-1.395 C33.2112,-1.8368 33.3634,-2.1552 33.5788,-2.3501 C33.7942,-2.545 34.0561,-2.6424 34.3646,-2.6424 C34.7314,-2.6424 35.0413,-2.5153 35.2942,-2.261 C35.5471,-2.0067 35.6736,-1.692 35.6736,-1.3168 C35.6736,-0.959 35.5565,-0.6637 35.3223,-0.4309 C35.0882,-0.1982 34.7908,-0.0818 34.4302,-0.0818 C34.2829,-0.0818 34.0995,-0.111 33.88,-0.1694 L33.9665,0.5154 C34.0186,0.5098 34.0606,0.507 34.0926,0.507 C34.4247,0.507 34.7234,0.5937 34.9888,0.767 C35.2542,0.9404 35.387,1.2074 35.387,1.568 C35.387,1.8542 35.2902,2.0911 35.0967,2.2787 C34.9032,2.4663 34.6536,2.5601 34.3479,2.5601 C34.0443,2.5601 33.7915,2.4648 33.5897,2.274 C33.3879,2.0833 33.2578,1.7976 33.1994,1.4168 L32.4199,1.5555 C32.5151,2.0779 32.7317,2.4828 33.0697,2.7701 C33.4077,3.0574 33.8279,3.2011 34.3302,3.2011 C34.6769,3.2011 34.996,3.1267 35.2874,2.978 C35.5789,2.8293 35.8019,2.6265 35.9565,2.3694 C36.1111,2.1123 36.1884,1.8393 36.1884,1.5502 C36.1884,1.2765 36.1147,1.0269 35.9674,0.8014 C35.8202,0.576 35.6023,0.3969 35.314,0.2642 C35.6892,0.1773 35.9806,-0.0024 36.1884,-0.2751 C36.3961,-0.5478 36.5,-0.8892 36.5,-1.2991 C36.5,-1.8535 36.298,-2.3235 35.894,-2.7091 C35.49,-3.0948 34.9788,-3.2876 34.3604,-3.2876 C33.8032,-3.2876 33.3405,-3.1215 32.9722,-2.7894 C32.604,-2.4573 32.3938,-2.0272 32.3417,-1.4992"
         style="fill:#000000;fill-rule:evenodd;stroke:none"
         id="path68" />
    </g>
    <!-- Text: 1 -->
    <g
       id="g69"
       style="fill:#000000;stroke:none">
      <path
         d="M18.25,25.2599 L17.4704,25.2599 L17.4704,30.228 C17.2829,30.0494 17.0367,29.8705 16.7321,29.6913 C16.4274,29.512 16.1538,29.3776 15.9113,29.288 L15.9113,30.0425 C16.347,30.2475 16.7281,30.4957 17.0546,30.7871 C17.3812,31.0786 17.6122,31.3615 17.7477,31.636 L18.25,31.636 Z"
         style="fill:#000000;fill-rule:evenodd;stroke:none"
         id="path69" />
    </g>
  </g>
</svg>
