<?xml version="1.0" encoding="UTF-8" standalone="no"?>
<!-- 2026-04-14 15:24:54 Generated by QCAD 3.28.2 SVG Exporter -->

<svg
   width="89mm"
   height="84.1657mm"
   viewBox="-44.5 -44.5 89 84.1657"
   version="1.1"
   style="stroke-linecap:round;stroke-linejoin:round;fill:none"
   id="svg70"
   sodipodi:docname="clock-face-copse.svg"
   inkscape:version="1.4.3 (0d15f75042, 2025-12-25)"
   xmlns:inkscape="http://www.inkscape.org/namespaces/inkscape"
   xmlns:sodipodi="http://sodipodi.sourceforge.net/DTD/sodipodi-0.dtd"
   xmlns="http://www.w3.org/2000/svg"
   xmlns:svg="http://www.w3.org/2000/svg">
  <defs
     id="defs70" />
  <sodipodi:namedview
     id="namedview70"
     pagecolor="#ffffff"
     bordercolor="#000000"
     borderopacity="0.25"
     inkscape:showpageshadow="2"
     inkscape:pageopacity="0.0"
     inkscape:pagecheckerboard="0"
     inkscape:deskcolor="#d1d1d1"
     inkscape:document-units="mm"
     inkscape:zoom="2.4079979"
     inkscape:cx="168.18952"
     inkscape:cy="159.0533"
     inkscape:window-width="1920"
     inkscape:window-height="979"
     inkscape:window-x="320"
     inkscape:window-y="1440"
     inkscape:window-maximized="1"
     inkscape:current-layer="svg70" />
  <g
     transform="scale(1,-1)"
     id="g70"
     style="fill:#000000;stroke:none">
    <!-- Line -->
    <path
       style="baseline-shift:baseline;display:inline;overflow:visible;vector-effect:none;fill:#000000;stroke-linecap:butt;stroke-linejoin:miter;enable-background:accumulate;stop-color:#000000;stop-opacity:1;opacity:1;stroke:none"
       d="m -18.310547,10.283203 -5.197265,3 a 0.25,0.25 0 0 0 -0.0918,0.341797 0.25,0.25 0 0 0 0.341797,0.0918 l 5.197265,-3 a 0.25,0.25 0 0 0 0.08984,-0.341797 0.25,0.25 0 0 0 -0.339844,-0.0918 z"
       id="path1" />
    <!-- Line -->
    <path
       style="baseline-shift:baseline;display:inline;overflow:visible;vector-effect:none;fill:#000000;stroke-linecap:butt;stroke-linejoin:miter;enable-background:accumulate;stop-color:#000000;stop-opacity:1;opacity:1;stroke:none"
       d="M 0,-27.25 A 0.25,0.25 0 0 0 -0.25,-27 v 6 A 0.25,0.25 0 0 0 0,-20.75 0.25,0.25 0 0 0 0.25,-21 v -6 A 0.25,0.25 0 0 0 0,-27.25 Z"
       id="path2" />
    <!-- Line -->
    <path
       style="baseline-shift:baseline;display:inline;overflow:visible;vector-effect:none;fill:#000000;stroke-linecap:butt;stroke-linejoin:miter;enable-background:accumulate;stop-color:#000000;stop-opacity:1;opacity:1;stroke:none"
       d="m 18.310547,10.283203 a 0.25,0.25 0 0 0 -0.339844,0.0918 0.25,0.25 0 0 0 0.08984,0.341797 l 5.197265,3 a 0.25,0.25 0 0 0 0.341797,-0.0918 0.25,0.25 0 0 0 -0.0918,-0.341797 z"
       id="path3" />
    <!-- Arc -->
    <path
       style="baseline-shift:baseline;display:inline;overflow:visible;vector-effect:none;fill:#000000;stroke-linecap:butt;stroke-linejoin:miter;enable-background:accumulate;stop-color:#000000;stop-opacity:1;opacity:1;stroke:none"
       d="M -25.277344,35.095703 A 0.25,0.25 0 0 0 -25.625,35.152344 0.25,0.25 0 0 0 -25.568359,35.5 c 15.270852,10.998722 35.865866,10.998722 51.136718,0 a 0.25,0.25 0 0 0 0.05664,-0.347656 0.25,0.25 0 0 0 -0.347656,-0.05664 c -15.097872,10.874134 -35.456816,10.874134 -50.554688,0 z"
       id="path4" />
    <!-- Arc -->
    <path
       style="baseline-shift:baseline;display:inline;overflow:visible;vector-effect:none;fill:#000000;stroke-linecap:butt;stroke-linejoin:miter;enable-background:accumulate;stop-color:#000000;stop-opacity:1;opacity:1;stroke:none"
       d="m -37.199219,3.546875 c -2.025771,-0.1455704 -4.098458,0.037491 -6.144531,0.5800781 a 0.25,0.25 0 0 0 -0.177734,0.3046875 0.25,0.25 0 0 0 0.304687,0.1777344 c 7.968326,-2.1130755 16.362506,1.3763328 20.484375,8.515625 4.121869,7.139292 2.946956,16.151862 -2.867187,21.996094 a 0.25,0.25 0 0 0 0,0.353515 0.25,0.25 0 0 0 0.353515,0 c 5.971725,-6.002628 7.178897,-15.26682 2.945313,-22.599609 -3.175189,-5.4995916 -8.821124,-8.8914138 -14.898438,-9.328125 z"
       id="path5" />
    <!-- Arc -->
    <path
       style="baseline-shift:baseline;display:inline;overflow:visible;vector-effect:none;fill:#000000;stroke-linecap:butt;stroke-linejoin:miter;enable-background:accumulate;stop-color:#000000;stop-opacity:1;opacity:1;stroke:none"
       d="M 37.199219,3.546875 C 31.121905,3.9835862 25.47597,7.3754084 22.300781,12.875 c -4.233584,7.332789 -3.026412,16.596981 2.945313,22.599609 a 0.25,0.25 0 0 0 0.353515,0 0.25,0.25 0 0 0 0,-0.353515 C 19.785466,29.276862 18.610553,20.264292 22.732422,13.125 26.854291,5.9857078 35.248471,2.4962995 43.216797,4.609375 A 0.25,0.25 0 0 0 43.521484,4.4316406 0.25,0.25 0 0 0 43.34375,4.1269531 C 41.297677,3.5843665 39.22499,3.4013046 37.199219,3.546875 Z"
       id="path6" />
    <!-- Arc -->
    <path
       style="baseline-shift:baseline;display:inline;overflow:visible;vector-effect:none;fill:#000000;stroke-linecap:butt;stroke-linejoin:miter;enable-background:accumulate;stop-color:#000000;stop-opacity:1;opacity:1;stroke:none"
       d="m -17.958984,-39.894531 c -17.160617,7.725591 -27.46008,25.562786 -25.570313,44.2871091 a 0.25,0.25 0 0 0 0.273438,0.2246094 0.25,0.25 0 0 0 0.224609,-0.2734375 c -1.868361,-18.512223 8.311115,-36.143171 25.277344,-43.78125 a 0.25,0.25 0 0 0 0.125,-0.330078 0.25,0.25 0 0 0 -0.330078,-0.126953 z"
       id="path7" />
    <!-- Arc -->
    <path
       style="baseline-shift:baseline;display:inline;overflow:visible;vector-effect:none;fill:#000000;stroke-linecap:butt;stroke-linejoin:miter;enable-background:accumulate;stop-color:#000000;stop-opacity:1;opacity:1;stroke:none"
       d="m -17.921875,-39.90625 a 0.25,0.25 0 0 0 -0.175781,0.306641 C -15.885075,-31.426648 -8.4671598,-25.75 0,-25.75 c 8.4671598,0 15.885075,-5.676648 18.097656,-13.849609 a 0.25,0.25 0 0 0 -0.175781,-0.306641 0.25,0.25 0 0 0 -0.306641,0.175781 C 15.461039,-31.773175 8.2437295,-26.25 0,-26.25 c -8.2437295,0 -15.461039,-5.523175 -17.615234,-13.480469 a 0.25,0.25 0 0 0 -0.306641,-0.175781 z"
       id="path8" />
    <!-- Arc -->
    <path
       style="baseline-shift:baseline;display:inline;overflow:visible;vector-effect:none;fill:#000000;stroke-linecap:butt;stroke-linejoin:miter;enable-background:accumulate;stop-color:#000000;stop-opacity:1;opacity:1;stroke:none"
       d="m 17.958984,-39.894531 a 0.25,0.25 0 0 0 -0.330078,0.126953 0.25,0.25 0 0 0 0.125,0.330078 c 16.966229,7.638079 27.145705,25.269027 25.277344,43.78125 a 0.25,0.25 0 0 0 0.224609,0.2734375 0.25,0.25 0 0 0 0.273438,-0.2246094 C 45.419064,-14.331745 35.119601,-32.16894 17.958984,-39.894531 Z"
       id="path9" />
    <!-- Line -->
    <path
       style="baseline-shift:baseline;display:inline;overflow:visible;vector-effect:none;fill:#000000;stroke-linecap:butt;stroke-linejoin:miter;enable-background:accumulate;stop-color:#000000;stop-opacity:1;opacity:1;stroke:none"
       d="m 0,38.25 a 0.25,0.25 0 0 0 -0.25,0.25 v 6 A 0.25,0.25 0 0 0 0,44.75 0.25,0.25 0 0 0 0.25,44.5 v -6 A 0.25,0.25 0 0 0 0,38.25 Z"
       id="path10" />
    <!-- Line -->
    <path
       style="baseline-shift:baseline;display:inline;overflow:visible;vector-effect:none;fill:#000000;stroke-linecap:butt;stroke-linejoin:miter;enable-background:accumulate;stop-color:#000000;stop-opacity:1;opacity:1;stroke:none"
       d="m -19.125,33.125 a 0.25,0.25 0 0 0 -0.341797,0.0918 l -3,5.197265 a 0.25,0.25 0 0 0 0.0918,0.339844 0.25,0.25 0 0 0 0.341797,-0.08984 l 3,-5.197265 A 0.25,0.25 0 0 0 -19.125,33.125 Z"
       id="path11" />
    <!-- Line -->
    <path
       style="baseline-shift:baseline;display:inline;overflow:visible;vector-effect:none;fill:#000000;stroke-linecap:butt;stroke-linejoin:miter;enable-background:accumulate;stop-color:#000000;stop-opacity:1;opacity:1;stroke:none"
       d="M -44.5,-0.25 A 0.25,0.25 0 0 0 -44.75,0 0.25,0.25 0 0 0 -44.5,0.25 h 6 A 0.25,0.25 0 0 0 -38.25,0 0.25,0.25 0 0 0 -38.5,-0.25 Z"
       id="path12" />
    <!-- Line -->
    <path
       style="baseline-shift:baseline;display:inline;overflow:visible;vector-effect:none;fill:#000000;stroke-linecap:butt;stroke-linejoin:miter;enable-background:accumulate;stop-color:#000000;stop-opacity:1;opacity:1;stroke:none"
       d="m -38.414062,-22.466797 a 0.25,0.25 0 0 0 -0.339844,0.0918 0.25,0.25 0 0 0 0.08984,0.341797 l 5.197265,3 a 0.25,0.25 0 0 0 0.341797,-0.0918 0.25,0.25 0 0 0 -0.0918,-0.341797 z"
       id="path13" />
    <!-- Line -->
    <path
       style="baseline-shift:baseline;display:inline;overflow:visible;vector-effect:none;fill:#000000;stroke-linecap:butt;stroke-linejoin:miter;enable-background:accumulate;stop-color:#000000;stop-opacity:1;opacity:1;stroke:none"
       d="m -22.375,-38.753906 a 0.25,0.25 0 0 0 -0.0918,0.339844 l 3,5.197265 a 0.25,0.25 0 0 0 0.341797,0.0918 0.25,0.25 0 0 0 0.0918,-0.341797 l -3,-5.197265 a 0.25,0.25 0 0 0 -0.341797,-0.08984 z"
       id="path14" />
    <!-- Line -->
    <path
       style="baseline-shift:baseline;display:inline;overflow:visible;vector-effect:none;fill:#000000;stroke-linecap:butt;stroke-linejoin:miter;enable-background:accumulate;stop-color:#000000;stop-opacity:1;opacity:1;stroke:none"
       d="m 22.375,-38.753906 a 0.25,0.25 0 0 0 -0.341797,0.08984 l -3,5.197265 a 0.25,0.25 0 0 0 0.0918,0.341797 0.25,0.25 0 0 0 0.341797,-0.0918 l 3,-5.197265 a 0.25,0.25 0 0 0 -0.0918,-0.339844 z"
       id="path15" />
    <!-- Line -->
    <path
       style="baseline-shift:baseline;display:inline;overflow:visible;vector-effect:none;fill:#000000;stroke-linecap:butt;stroke-linejoin:miter;enable-background:accumulate;stop-color:#000000;stop-opacity:1;opacity:1;stroke:none"
       d="m 38.414062,-22.466797 -5.197265,3 a 0.25,0.25 0 0 0 -0.0918,0.341797 0.25,0.25 0 0 0 0.341797,0.0918 l 5.197265,-3 a 0.25,0.25 0 0 0 0.08984,-0.341797 0.25,0.25 0 0 0 -0.339844,-0.0918 z"
       id="path16" />
    <!-- Line -->
    <path
       style="baseline-shift:baseline;display:inline;overflow:visible;vector-effect:none;fill:#000000;stroke-linecap:butt;stroke-linejoin:miter;enable-background:accumulate;stop-color:#000000;stop-opacity:1;opacity:1;stroke:none"
       d="M 38.5,-0.25 A 0.25,0.25 0 0 0 38.25,0 0.25,0.25 0 0 0 38.5,0.25 h 6 A 0.25,0.25 0 0 0 44.75,0 0.25,0.25 0 0 0 44.5,-0.25 Z"
       id="path17" />
    <!-- Line -->
    <path
       style="baseline-shift:baseline;display:inline;overflow:visible;vector-effect:none;fill:#000000;stroke-linecap:butt;stroke-linejoin:miter;enable-background:accumulate;stop-color:#000000;stop-opacity:1;opacity:1;stroke:none"
       d="m 19.125,33.125 a 0.25,0.25 0 0 0 -0.0918,0.341797 l 3,5.197265 a 0.25,0.25 0 0 0 0.341797,0.08984 0.25,0.25 0 0 0 0.0918,-0.339844 l -3,-5.197265 A 0.25,0.25 0 0 0 19.125,33.125 Z"
       id="path18" />
    <!-- Line -->
    <path
       style="baseline-shift:baseline;display:inline;overflow:visible;vector-effect:none;fill:#000000;stroke-linecap:butt;stroke-linejoin:miter;enable-background:accumulate;stop-color:#000000;stop-opacity:1;opacity:1;stroke:none"
       d="m -4.3242187,41.148437 a 0.125,0.125 0 0 0 -0.1386719,0.111329 l -0.3125,2.982421 a 0.125,0.125 0 0 0 0.1113281,0.138672 0.125,0.125 0 0 0 0.1367188,-0.111328 l 0.3144531,-2.984375 a 0.125,0.125 0 0 0 -0.1113281,-0.136719 z"
       id="path19" />
    <!-- Line -->
    <path
       style="baseline-shift:baseline;display:inline;overflow:visible;vector-effect:none;fill:#000000;stroke-linecap:butt;stroke-linejoin:miter;enable-background:accumulate;stop-color:#000000;stop-opacity:1;opacity:1;stroke:none"
       d="M -8.6015625,40.470703 A 0.125,0.125 0 0 0 -8.75,40.566406 l -0.625,2.935547 a 0.125,0.125 0 0 0 0.097656,0.148438 0.125,0.125 0 0 0 0.1484375,-0.09766 l 0.6230469,-2.933593 a 0.125,0.125 0 0 0 -0.095703,-0.148438 z"
       id="path20" />
    <!-- Line -->
    <path
       style="baseline-shift:baseline;display:inline;overflow:visible;vector-effect:none;fill:#000000;stroke-linecap:butt;stroke-linejoin:miter;enable-background:accumulate;stop-color:#000000;stop-opacity:1;opacity:1;stroke:none"
       d="m -12.785156,39.349609 a 0.125,0.125 0 0 0 -0.158203,0.08008 l -0.927735,2.853516 a 0.125,0.125 0 0 0 0.08203,0.158203 0.125,0.125 0 0 0 0.15625,-0.08008 l 0.927735,-2.853516 a 0.125,0.125 0 0 0 -0.08008,-0.158203 z"
       id="path21" />
    <!-- Line -->
    <path
       style="baseline-shift:baseline;display:inline;overflow:visible;vector-effect:none;fill:#000000;stroke-linecap:butt;stroke-linejoin:miter;enable-background:accumulate;stop-color:#000000;stop-opacity:1;opacity:1;stroke:none"
       d="m -16.828125,37.798828 a 0.125,0.125 0 0 0 -0.166016,0.0625 l -1.220703,2.740234 a 0.125,0.125 0 0 0 0.06445,0.166016 0.125,0.125 0 0 0 0.164063,-0.06445 l 1.220703,-2.740234 a 0.125,0.125 0 0 0 -0.0625,-0.164063 z"
       id="path22" />
    <!-- Line -->
    <path
       style="baseline-shift:baseline;display:inline;overflow:visible;vector-effect:none;fill:#000000;stroke-linecap:butt;stroke-linejoin:miter;enable-background:accumulate;stop-color:#000000;stop-opacity:1;opacity:1;stroke:none"
       d="m -18.0625,20.060547 a 0.125,0.125 0 0 0 -0.175781,0.0078 l -2.931641,3.25586 a 0.125,0.125 0 0 0 0.0098,0.175781 0.125,0.125 0 0 0 0.175781,-0.0078 l 2.931641,-3.255859 a 0.125,0.125 0 0 0 -0.0098,-0.175781 z"
       id="path23" />
    <!-- Line -->
    <path
       style="baseline-shift:baseline;display:inline;overflow:visible;vector-effect:none;fill:#000000;stroke-linecap:butt;stroke-linejoin:miter;enable-background:accumulate;stop-color:#000000;stop-opacity:1;opacity:1;stroke:none"
       d="m -18.835937,16.792969 -2.556641,2.300781 a 0.125,0.125 0 0 0 -0.0078,0.175781 0.125,0.125 0 0 0 0.175782,0.0098 l 2.554687,-2.300781 a 0.125,0.125 0 0 0 0.0098,-0.177735 0.125,0.125 0 0 0 -0.175781,-0.0078 z"
       id="path24" />
    <!-- Line -->
    <path
       style="baseline-shift:baseline;display:inline;overflow:visible;vector-effect:none;fill:#000000;stroke-linecap:butt;stroke-linejoin:miter;enable-background:accumulate;stop-color:#000000;stop-opacity:1;opacity:1;stroke:none"
       d="m -19.724609,14.175781 -2.503907,1.820313 a 0.125,0.125 0 0 0 -0.02734,0.173828 0.125,0.125 0 0 0 0.173828,0.02734 l 2.503906,-1.81836 a 0.125,0.125 0 0 0 0.02734,-0.173828 0.125,0.125 0 0 0 -0.173828,-0.0293 z"
       id="path25" />
    <!-- Line -->
    <path
       style="baseline-shift:baseline;display:inline;overflow:visible;vector-effect:none;fill:#000000;stroke-linecap:butt;stroke-linejoin:miter;enable-background:accumulate;stop-color:#000000;stop-opacity:1;opacity:1;stroke:none"
       d="m -22.242187,9.765625 -2.826172,1.259766 a 0.125,0.125 0 0 0 -0.06445,0.164062 0.125,0.125 0 0 0 0.166015,0.06445 l 2.826172,-1.2597654 a 0.125,0.125 0 0 0 0.06445,-0.1640625 0.125,0.125 0 0 0 -0.166015,-0.064453 z"
       id="path26" />
    <!-- Line -->
    <path
       style="baseline-shift:baseline;display:inline;overflow:visible;vector-effect:none;fill:#000000;stroke-linecap:butt;stroke-linejoin:miter;enable-background:accumulate;stop-color:#000000;stop-opacity:1;opacity:1;stroke:none"
       d="m -24.037109,7.6796875 -3.271485,1.0625 a 0.125,0.125 0 0 0 -0.08008,0.15625 0.125,0.125 0 0 0 0.158203,0.080078 l 3.269532,-1.0625 a 0.125,0.125 0 0 0 0.08008,-0.15625 0.125,0.125 0 0 0 -0.15625,-0.080078 z"
       id="path27" />
    <!-- Line -->
    <path
       style="baseline-shift:baseline;display:inline;overflow:visible;vector-effect:none;fill:#000000;stroke-linecap:butt;stroke-linejoin:miter;enable-background:accumulate;stop-color:#000000;stop-opacity:1;opacity:1;stroke:none"
       d="m -26.550781,5.515625 -4.285156,0.9101562 a 0.125,0.125 0 0 0 -0.0957,0.1484375 0.125,0.125 0 0 0 0.148438,0.097656 L -26.5,5.7597656 a 0.125,0.125 0 0 0 0.0957,-0.1484375 0.125,0.125 0 0 0 -0.146484,-0.095703 z"
       id="path28" />
    <!-- Line -->
    <path
       style="baseline-shift:baseline;display:inline;overflow:visible;vector-effect:none;fill:#000000;stroke-linecap:butt;stroke-linejoin:miter;enable-background:accumulate;stop-color:#000000;stop-opacity:1;opacity:1;stroke:none"
       d="m -44.242187,-4.7753906 a 0.125,0.125 0 0 0 -0.138672,0.1113281 0.125,0.125 0 0 0 0.111328,0.1367188 l 2.984375,0.3144531 a 0.125,0.125 0 0 0 0.136719,-0.1113281 0.125,0.125 0 0 0 -0.111329,-0.1386719 z"
       id="path29" />
    <!-- Line -->
    <path
       style="baseline-shift:baseline;display:inline;overflow:visible;vector-effect:none;fill:#000000;stroke-linecap:butt;stroke-linejoin:miter;enable-background:accumulate;stop-color:#000000;stop-opacity:1;opacity:1;stroke:none"
       d="m -43.501953,-9.375 a 0.125,0.125 0 0 0 -0.148438,0.097656 0.125,0.125 0 0 0 0.09766,0.1484375 l 2.933593,0.6230469 a 0.125,0.125 0 0 0 0.148438,-0.095703 0.125,0.125 0 0 0 -0.0957,-0.1484375 z"
       id="path30" />
    <!-- Line -->
    <path
       style="baseline-shift:baseline;display:inline;overflow:visible;vector-effect:none;fill:#000000;stroke-linecap:butt;stroke-linejoin:miter;enable-background:accumulate;stop-color:#000000;stop-opacity:1;opacity:1;stroke:none"
       d="m -42.283203,-13.871094 a 0.125,0.125 0 0 0 -0.158203,0.08203 0.125,0.125 0 0 0 0.08008,0.15625 l 2.853516,0.927735 a 0.125,0.125 0 0 0 0.158203,-0.08008 0.125,0.125 0 0 0 -0.08008,-0.158203 z"
       id="path31" />
    <!-- Line -->
    <path
       style="baseline-shift:baseline;display:inline;overflow:visible;vector-effect:none;fill:#000000;stroke-linecap:butt;stroke-linejoin:miter;enable-background:accumulate;stop-color:#000000;stop-opacity:1;opacity:1;stroke:none"
       d="m -40.601562,-18.214844 a 0.125,0.125 0 0 0 -0.166016,0.06445 0.125,0.125 0 0 0 0.06445,0.164063 l 2.740234,1.220703 a 0.125,0.125 0 0 0 0.164063,-0.0625 0.125,0.125 0 0 0 -0.0625,-0.166016 z"
       id="path32" />
    <!-- Line -->
    <path
       style="baseline-shift:baseline;display:inline;overflow:visible;vector-effect:none;fill:#000000;stroke-linecap:butt;stroke-linejoin:miter;enable-background:accumulate;stop-color:#000000;stop-opacity:1;opacity:1;stroke:none"
       d="m -35.927734,-26.257812 a 0.125,0.125 0 0 0 -0.173828,0.02734 0.125,0.125 0 0 0 0.02734,0.175782 l 2.425782,1.763671 a 0.125,0.125 0 0 0 0.175781,-0.0293 0.125,0.125 0 0 0 -0.02734,-0.173829 z"
       id="path33" />
    <!-- Line -->
    <path
       style="baseline-shift:baseline;display:inline;overflow:visible;vector-effect:none;fill:#000000;stroke-linecap:butt;stroke-linejoin:miter;enable-background:accumulate;stop-color:#000000;stop-opacity:1;opacity:1;stroke:none"
       d="m -32.986328,-29.869141 a 0.125,0.125 0 0 0 -0.175781,0.0098 0.125,0.125 0 0 0 0.0078,0.175781 l 2.230469,2.007813 a 0.125,0.125 0 0 0 0.175781,-0.0098 0.125,0.125 0 0 0 -0.0098,-0.175781 z"
       id="path34" />
    <!-- Line -->
    <path
       style="baseline-shift:baseline;display:inline;overflow:visible;vector-effect:none;fill:#000000;stroke-linecap:butt;stroke-linejoin:miter;enable-background:accumulate;stop-color:#000000;stop-opacity:1;opacity:1;stroke:none"
       d="m -29.859375,-33.162109 a 0.125,0.125 0 0 0 -0.0098,0.175781 l 2.007813,2.228516 a 0.125,0.125 0 0 0 0.175781,0.0098 0.125,0.125 0 0 0 0.0098,-0.175781 l -2.007813,-2.230469 a 0.125,0.125 0 0 0 -0.175781,-0.0078 z"
       id="path35" />
    <!-- Line -->
    <path
       style="baseline-shift:baseline;display:inline;overflow:visible;vector-effect:none;fill:#000000;stroke-linecap:butt;stroke-linejoin:miter;enable-background:accumulate;stop-color:#000000;stop-opacity:1;opacity:1;stroke:none"
       d="m -26.230469,-36.101562 a 0.125,0.125 0 0 0 -0.02734,0.173828 L -24.494141,-33.5 a 0.125,0.125 0 0 0 0.173829,0.02734 0.125,0.125 0 0 0 0.0293,-0.175781 l -1.763671,-2.425782 a 0.125,0.125 0 0 0 -0.175782,-0.02734 z"
       id="path36" />
    <!-- Line -->
    <path
       style="baseline-shift:baseline;display:inline;overflow:visible;vector-effect:none;fill:#000000;stroke-linecap:butt;stroke-linejoin:miter;enable-background:accumulate;stop-color:#000000;stop-opacity:1;opacity:1;stroke:none"
       d="m -9.7714844,-30.076172 a 0.125,0.125 0 0 0 -0.080078,0.158203 l 1.3535156,4.166016 a 0.125,0.125 0 0 0 0.15625,0.08008 0.125,0.125 0 0 0 0.080078,-0.158203 l -1.3535156,-4.166016 a 0.125,0.125 0 0 0 -0.15625,-0.08008 z"
       id="path37" />
    <!-- Line -->
    <path
       style="baseline-shift:baseline;display:inline;overflow:visible;vector-effect:none;fill:#000000;stroke-linecap:butt;stroke-linejoin:miter;enable-background:accumulate;stop-color:#000000;stop-opacity:1;opacity:1;stroke:none"
       d="m -5.9882812,-28.169922 a 0.125,0.125 0 0 0 -0.095703,0.148438 l 0.7148438,3.365234 a 0.125,0.125 0 0 0 0.1484375,0.0957 0.125,0.125 0 0 0 0.095703,-0.148437 l -0.7148437,-3.363282 a 0.125,0.125 0 0 0 -0.1484375,-0.09766 z"
       id="path38" />
    <!-- Line -->
    <path
       style="baseline-shift:baseline;display:inline;overflow:visible;vector-effect:none;fill:#000000;stroke-linecap:butt;stroke-linejoin:miter;enable-background:accumulate;stop-color:#000000;stop-opacity:1;opacity:1;stroke:none"
       d="m -2.875,-27.359375 a 0.125,0.125 0 0 0 -0.1113281,0.136719 l 0.3222656,3.078125 a 0.125,0.125 0 0 0 0.1386719,0.111328 0.125,0.125 0 0 0 0.1113281,-0.138672 l -0.3242188,-3.076172 A 0.125,0.125 0 0 0 -2.875,-27.359375 Z"
       id="path39" />
    <!-- Line -->
    <path
       style="baseline-shift:baseline;display:inline;overflow:visible;vector-effect:none;fill:#000000;stroke-linecap:butt;stroke-linejoin:miter;enable-background:accumulate;stop-color:#000000;stop-opacity:1;opacity:1;stroke:none"
       d="m 2.875,-27.359375 a 0.125,0.125 0 0 0 -0.1367187,0.111328 l -0.3242188,3.076172 a 0.125,0.125 0 0 0 0.1113281,0.138672 0.125,0.125 0 0 0 0.1386719,-0.111328 l 0.3222656,-3.078125 A 0.125,0.125 0 0 0 2.875,-27.359375 Z"
       id="path40" />
    <!-- Line -->
    <path
       style="baseline-shift:baseline;display:inline;overflow:visible;vector-effect:none;fill:#000000;stroke-linecap:butt;stroke-linejoin:miter;enable-background:accumulate;stop-color:#000000;stop-opacity:1;opacity:1;stroke:none"
       d="m 5.9882812,-28.169922 a 0.125,0.125 0 0 0 -0.1484375,0.09766 L 5.125,-24.708984 a 0.125,0.125 0 0 0 0.095703,0.148437 0.125,0.125 0 0 0 0.1484375,-0.0957 l 0.7148438,-3.365234 a 0.125,0.125 0 0 0 -0.095703,-0.148438 z"
       id="path41" />
    <!-- Line -->
    <path
       style="baseline-shift:baseline;display:inline;overflow:visible;vector-effect:none;fill:#000000;stroke-linecap:butt;stroke-linejoin:miter;enable-background:accumulate;stop-color:#000000;stop-opacity:1;opacity:1;stroke:none"
       d="m 9.7714844,-30.076172 a 0.125,0.125 0 0 0 -0.15625,0.08008 l -1.3535156,4.166016 a 0.125,0.125 0 0 0 0.080078,0.158203 0.125,0.125 0 0 0 0.15625,-0.08008 l 1.3535156,-4.166016 a 0.125,0.125 0 0 0 -0.080078,-0.158203 z"
       id="path42" />
    <!-- Line -->
    <path
       style="baseline-shift:baseline;display:inline;overflow:visible;vector-effect:none;fill:#000000;stroke-linecap:butt;stroke-linejoin:miter;enable-background:accumulate;stop-color:#000000;stop-opacity:1;opacity:1;stroke:none"
       d="m 26.230469,-36.101562 a 0.125,0.125 0 0 0 -0.175782,0.02734 l -1.763671,2.425782 a 0.125,0.125 0 0 0 0.0293,0.175781 0.125,0.125 0 0 0 0.173829,-0.02734 l 1.763671,-2.427734 a 0.125,0.125 0 0 0 -0.02734,-0.173828 z"
       id="path43" />
    <!-- Line -->
    <path
       style="baseline-shift:baseline;display:inline;overflow:visible;vector-effect:none;fill:#000000;stroke-linecap:butt;stroke-linejoin:miter;enable-background:accumulate;stop-color:#000000;stop-opacity:1;opacity:1;stroke:none"
       d="m 29.859375,-33.162109 a 0.125,0.125 0 0 0 -0.175781,0.0078 l -2.007813,2.230469 a 0.125,0.125 0 0 0 0.0098,0.175781 0.125,0.125 0 0 0 0.175781,-0.0098 l 2.007813,-2.228516 a 0.125,0.125 0 0 0 -0.0098,-0.175781 z"
       id="path44" />
    <!-- Line -->
    <path
       style="baseline-shift:baseline;display:inline;overflow:visible;vector-effect:none;fill:#000000;stroke-linecap:butt;stroke-linejoin:miter;enable-background:accumulate;stop-color:#000000;stop-opacity:1;opacity:1;stroke:none"
       d="m 32.986328,-29.869141 -2.228516,2.007813 a 0.125,0.125 0 0 0 -0.0098,0.175781 0.125,0.125 0 0 0 0.175781,0.0098 l 2.230469,-2.007813 a 0.125,0.125 0 0 0 0.0078,-0.175781 0.125,0.125 0 0 0 -0.175781,-0.0098 z"
       id="path45" />
    <!-- Line -->
    <path
       style="baseline-shift:baseline;display:inline;overflow:visible;vector-effect:none;fill:#000000;stroke-linecap:butt;stroke-linejoin:miter;enable-background:accumulate;stop-color:#000000;stop-opacity:1;opacity:1;stroke:none"
       d="M 35.927734,-26.257812 33.5,-24.494141 a 0.125,0.125 0 0 0 -0.02734,0.173829 0.125,0.125 0 0 0 0.175781,0.0293 l 2.425782,-1.763671 a 0.125,0.125 0 0 0 0.02734,-0.175782 0.125,0.125 0 0 0 -0.173828,-0.02734 z"
       id="path46" />
    <!-- Line -->
    <path
       style="baseline-shift:baseline;display:inline;overflow:visible;vector-effect:none;fill:#000000;stroke-linecap:butt;stroke-linejoin:miter;enable-background:accumulate;stop-color:#000000;stop-opacity:1;opacity:1;stroke:none"
       d="m 40.601562,-18.214844 -2.740234,1.220703 a 0.125,0.125 0 0 0 -0.0625,0.166016 0.125,0.125 0 0 0 0.164063,0.0625 l 2.740234,-1.220703 a 0.125,0.125 0 0 0 0.06445,-0.164063 0.125,0.125 0 0 0 -0.166016,-0.06445 z"
       id="path47" />
    <!-- Line -->
    <path
       style="baseline-shift:baseline;display:inline;overflow:visible;vector-effect:none;fill:#000000;stroke-linecap:butt;stroke-linejoin:miter;enable-background:accumulate;stop-color:#000000;stop-opacity:1;opacity:1;stroke:none"
       d="m 42.283203,-13.871094 -2.853516,0.927735 a 0.125,0.125 0 0 0 -0.08008,0.158203 0.125,0.125 0 0 0 0.158203,0.08008 l 2.853516,-0.927735 a 0.125,0.125 0 0 0 0.08008,-0.15625 0.125,0.125 0 0 0 -0.158203,-0.08203 z"
       id="path48" />
    <!-- Line -->
    <path
       style="baseline-shift:baseline;display:inline;overflow:visible;vector-effect:none;fill:#000000;stroke-linecap:butt;stroke-linejoin:miter;enable-background:accumulate;stop-color:#000000;stop-opacity:1;opacity:1;stroke:none"
       d="m 43.501953,-9.375 -2.935547,0.625 a 0.125,0.125 0 0 0 -0.0957,0.1484375 0.125,0.125 0 0 0 0.148438,0.095703 l 2.933593,-0.6230469 A 0.125,0.125 0 0 0 43.650391,-9.2773438 0.125,0.125 0 0 0 43.501953,-9.375 Z"
       id="path49" />
    <!-- Line -->
    <path
       style="baseline-shift:baseline;display:inline;overflow:visible;vector-effect:none;fill:#000000;stroke-linecap:butt;stroke-linejoin:miter;enable-background:accumulate;stop-color:#000000;stop-opacity:1;opacity:1;stroke:none"
       d="m 44.242187,-4.7753906 -2.982421,0.3125 a 0.125,0.125 0 0 0 -0.111329,0.1386719 0.125,0.125 0 0 0 0.136719,0.1113281 l 2.984375,-0.3144531 a 0.125,0.125 0 0 0 0.111328,-0.1367188 0.125,0.125 0 0 0 -0.138672,-0.1113281 z"
       id="path50" />
    <!-- Line -->
    <path
       style="baseline-shift:baseline;display:inline;overflow:visible;vector-effect:none;fill:#000000;stroke-linecap:butt;stroke-linejoin:miter;enable-background:accumulate;stop-color:#000000;stop-opacity:1;opacity:1;stroke:none"
       d="M 26.550781,5.515625 A 0.125,0.125 0 0 0 26.404297,5.6113281 0.125,0.125 0 0 0 26.5,5.7597656 l 4.283203,0.9121094 a 0.125,0.125 0 0 0 0.148438,-0.097656 0.125,0.125 0 0 0 -0.0957,-0.1484375 z"
       id="path51" />
    <!-- Line -->
    <path
       style="baseline-shift:baseline;display:inline;overflow:visible;vector-effect:none;fill:#000000;stroke-linecap:butt;stroke-linejoin:miter;enable-background:accumulate;stop-color:#000000;stop-opacity:1;opacity:1;stroke:none"
       d="m 24.037109,7.6796875 a 0.125,0.125 0 0 0 -0.15625,0.080078 0.125,0.125 0 0 0 0.08008,0.15625 l 3.269532,1.0625 a 0.125,0.125 0 0 0 0.158203,-0.080078 0.125,0.125 0 0 0 -0.08008,-0.15625 z"
       id="path52" />
    <!-- Line -->
    <path
       style="baseline-shift:baseline;display:inline;overflow:visible;vector-effect:none;fill:#000000;stroke-linecap:butt;stroke-linejoin:miter;enable-background:accumulate;stop-color:#000000;stop-opacity:1;opacity:1;stroke:none"
       d="m 22.242187,9.765625 a 0.125,0.125 0 0 0 -0.166015,0.064453 0.125,0.125 0 0 0 0.06445,0.1640625 l 2.826172,1.2597654 a 0.125,0.125 0 0 0 0.166015,-0.06445 0.125,0.125 0 0 0 -0.06445,-0.164062 z"
       id="path53" />
    <!-- Line -->
    <path
       style="baseline-shift:baseline;display:inline;overflow:visible;vector-effect:none;fill:#000000;stroke-linecap:butt;stroke-linejoin:miter;enable-background:accumulate;stop-color:#000000;stop-opacity:1;opacity:1;stroke:none"
       d="m 19.724609,14.175781 a 0.125,0.125 0 0 0 -0.173828,0.0293 0.125,0.125 0 0 0 0.02734,0.173828 l 2.503906,1.81836 a 0.125,0.125 0 0 0 0.173828,-0.02734 0.125,0.125 0 0 0 -0.02734,-0.173828 z"
       id="path54" />
    <!-- Line -->
    <path
       style="baseline-shift:baseline;display:inline;overflow:visible;vector-effect:none;fill:#000000;stroke-linecap:butt;stroke-linejoin:miter;enable-background:accumulate;stop-color:#000000;stop-opacity:1;opacity:1;stroke:none"
       d="m 18.835937,16.792969 a 0.125,0.125 0 0 0 -0.175781,0.0078 0.125,0.125 0 0 0 0.0098,0.177735 l 2.554687,2.300781 a 0.125,0.125 0 0 0 0.175782,-0.0098 0.125,0.125 0 0 0 -0.0078,-0.175781 z"
       id="path55" />
    <!-- Line -->
    <path
       style="baseline-shift:baseline;display:inline;overflow:visible;vector-effect:none;fill:#000000;stroke-linecap:butt;stroke-linejoin:miter;enable-background:accumulate;stop-color:#000000;stop-opacity:1;opacity:1;stroke:none"
       d="m 18.0625,20.060547 a 0.125,0.125 0 0 0 -0.0098,0.175781 l 2.931641,3.255859 a 0.125,0.125 0 0 0 0.175781,0.0078 0.125,0.125 0 0 0 0.0098,-0.175781 l -2.931641,-3.25586 a 0.125,0.125 0 0 0 -0.175781,-0.0078 z"
       id="path56" />
    <!-- Line -->
    <path
       style="baseline-shift:baseline;display:inline;overflow:visible;vector-effect:none;fill:#000000;stroke-linecap:butt;stroke-linejoin:miter;enable-background:accumulate;stop-color:#000000;stop-opacity:1;opacity:1;stroke:none"
       d="m 16.828125,37.798828 a 0.125,0.125 0 0 0 -0.0625,0.164063 l 1.220703,2.740234 a 0.125,0.125 0 0 0 0.164063,0.06445 0.125,0.125 0 0 0 0.06445,-0.166016 l -1.220703,-2.740234 a 0.125,0.125 0 0 0 -0.166016,-0.0625 z"
       id="path57" />
    <!-- Line -->
    <path
       style="baseline-shift:baseline;display:inline;overflow:visible;vector-effect:none;fill:#000000;stroke-linecap:butt;stroke-linejoin:miter;enable-background:accumulate;stop-color:#000000;stop-opacity:1;opacity:1;stroke:none"
       d="m 12.785156,39.349609 a 0.125,0.125 0 0 0 -0.08008,0.158203 l 0.927735,2.853516 a 0.125,0.125 0 0 0 0.15625,0.08008 0.125,0.125 0 0 0 0.08203,-0.158203 l -0.927735,-2.853516 a 0.125,0.125 0 0 0 -0.158203,-0.08008 z"
       id="path58" />
    <!-- Line -->
    <path
       style="baseline-shift:baseline;display:inline;overflow:visible;vector-effect:none;fill:#000000;stroke-linecap:butt;stroke-linejoin:miter;enable-background:accumulate;stop-color:#000000;stop-opacity:1;opacity:1;stroke:none"
       d="m 8.6015625,40.470703 a 0.125,0.125 0 0 0 -0.095703,0.148438 l 0.6230469,2.933593 A 0.125,0.125 0 0 0 9.2773438,43.650391 0.125,0.125 0 0 0 9.375,43.501953 L 8.75,40.566406 a 0.125,0.125 0 0 0 -0.1484375,-0.0957 z"
       id="path59" />
    <!-- Line -->
    <path
       style="baseline-shift:baseline;display:inline;overflow:visible;vector-effect:none;fill:#000000;stroke-linecap:butt;stroke-linejoin:miter;enable-background:accumulate;stop-color:#000000;stop-opacity:1;opacity:1;stroke:none"
       d="m 4.3242187,41.148437 a 0.125,0.125 0 0 0 -0.1113281,0.136719 l 0.3144531,2.984375 a 0.125,0.125 0 0 0 0.1367188,0.111328 0.125,0.125 0 0 0 0.1113281,-0.138672 l -0.3125,-2.982421 A 0.125,0.125 0 0 0 4.3242187,41.148437 Z"
       id="path60" />
    <!-- Circle -->
    <path
       style="baseline-shift:baseline;display:inline;overflow:visible;vector-effect:none;fill:#000000;stroke-linecap:butt;stroke-linejoin:miter;enable-background:accumulate;stop-color:#000000;stop-opacity:1;opacity:1;stroke:none"
       d="m 0,-6.25 c -3.4488185,0 -6.25,2.8011815 -6.25,6.25 0,3.4488185 2.8011815,6.25 6.25,6.25 C 3.4488185,6.25 6.25,3.4488185 6.25,0 6.25,-3.4488185 3.4488185,-6.25 0,-6.25 Z m 0,0.5 c 3.1785985,0 5.75,2.5714015 5.75,5.75 0,3.1785985 -2.5714015,5.75 -5.75,5.75 -3.1785985,0 -5.75,-2.5714015 -5.75,-5.75 0,-3.1785985 2.5714015,-5.75 5.75,-5.75 z"
       id="circle60" />
    <!-- Text: 12 -->
    <g
       id="g61"
       style="fill:#000000;stroke:none">
      <path
         d="M-0.8391,30.7371 C-0.7696,30.7371 -0.7349,30.6399 -0.7349,30.4456 C-0.7349,30.2485 -0.7846,30.15 -0.8842,30.15 L-3.8949,30.15 C-3.959,30.15 -3.991,30.2265 -3.991,30.3794 L-3.991,30.3915 C-3.991,30.5217 -3.9536,30.6259 -3.8788,30.704 C-3.8561,30.7261 -3.8337,30.7371 -3.8117,30.7371 L-3.1915,30.7371 C-2.9391,30.7371 -2.7931,30.7718 -2.7537,30.8413 C-2.743,30.8633 -2.7377,30.8884 -2.7377,30.9164 L-2.7377,34.9431 C-2.7377,35.112 -2.7667,35.1965 -2.8248,35.1965 C-2.8442,35.1965 -2.8816,35.1855 -2.9371,35.1635 L-3.1294,35.0883 C-3.2016,35.0609 -3.2779,35.0292 -3.3583,34.9932 C-3.4388,34.9571 -3.5165,34.925 -3.5913,34.897 C-3.7743,34.8248 -3.8852,34.7888 -3.9239,34.7888 C-3.9633,34.7888 -3.9994,34.8011 -4.0321,34.8258 C-4.0628,34.8512 -4.0922,34.8833 -4.1203,34.922 C-4.1811,35.0082 -4.2115,35.0887 -4.2115,35.1635 C-4.2115,35.2356 -4.1894,35.2857 -4.1453,35.3138 L-2.2377,36.5 C-1.9853,36.5 -1.859,36.4723 -1.859,36.4168 L-1.859,30.7371 Z M1.0134,34.3519 C0.8331,34.3519 0.6818,34.4131 0.5596,34.5353 C0.4347,34.6602 0.3722,34.8278 0.3722,35.0382 C0.3722,35.2493 0.4285,35.4478 0.541,35.6339 C0.6536,35.8199 0.7987,35.9767 0.9763,36.1043 C1.3397,36.3654 1.7658,36.4973 2.2548,36.5 C2.8071,36.5 3.2526,36.3764 3.5913,36.1293 C3.9326,35.8795 4.1033,35.5452 4.1033,35.1264 L4.1033,35.1174 C4.1033,34.4762 3.8451,33.9071 3.3288,33.4102 C3.1818,33.2659 3.0252,33.126 2.8589,32.9904 L2.359,32.5816 C1.7398,32.0766 1.3484,31.559 1.1847,31.0287 L3.4871,31.0287 L3.6534,31.5987 C3.7289,31.6602 3.8054,31.6909 3.8828,31.6909 C4.0358,31.6909 4.1453,31.6201 4.2115,31.4785 L4.0201,30.15 L0.4974,30.15 L0.4974,30.4626 C0.4974,31.2367 0.775,31.9294 1.33,32.5405 C1.4883,32.7122 1.651,32.8758 1.8179,33.0314 L2.3008,33.4893 C2.6475,33.8173 2.8876,34.1312 3.0212,34.4311 C3.096,34.6001 3.1334,34.8081 3.1334,35.0553 C3.1334,35.3024 3.0433,35.4981 2.8629,35.6424 C2.6826,35.7867 2.4328,35.8588 2.1135,35.8588 C1.7662,35.8588 1.5094,35.7603 1.343,35.5632 C1.4319,35.5191 1.5053,35.4443 1.5635,35.3388 C1.6216,35.2333 1.6506,35.1264 1.6506,35.0182 C1.6506,34.91 1.6341,34.817 1.601,34.7392 C1.568,34.6614 1.5234,34.5934 1.4673,34.5353 C1.3511,34.4131 1.1998,34.3519 1.0134,34.3519"
         style="fill:#000000;fill-rule:evenodd;stroke:none"
         id="path61" />
    </g>
    <!-- Text: 11 -->
    <g
       id="g62"
       style="fill:#000000;stroke:none">
      <path
         d="M-13.8697,25.847 C-13.8003,25.847 -13.7655,25.7499 -13.7655,25.5555 C-13.7655,25.3584 -13.8153,25.2599 -13.9148,25.2599 L-16.9255,25.2599 C-16.9896,25.2599 -17.0217,25.3364 -17.0217,25.4894 L-17.0217,25.5014 C-17.0217,25.6316 -16.9843,25.7358 -16.9095,25.814 C-16.8868,25.836 -16.8644,25.847 -16.8423,25.847 L-16.2222,25.847 C-15.9697,25.847 -15.8237,25.8818 -15.7843,25.9512 C-15.7737,25.9733 -15.7683,25.9983 -15.7683,26.0264 L-15.7683,30.053 C-15.7683,30.222 -15.7974,30.3065 -15.8555,30.3065 C-15.8748,30.3065 -15.9122,30.2954 -15.9677,30.2734 L-16.1601,30.1983 C-16.2322,30.1709 -16.3085,30.1391 -16.389,30.1031 C-16.4695,30.067 -16.5471,30.035 -16.6219,30.0069 C-16.8049,29.9348 -16.9158,29.8987 -16.9546,29.8987 C-16.994,29.8987 -17.03,29.9111 -17.0628,29.9358 C-17.0935,29.9611 -17.1229,29.9932 -17.1509,30.0319 C-17.2117,30.1181 -17.2421,30.1986 -17.2421,30.2734 C-17.2421,30.3455 -17.2201,30.3956 -17.176,30.4237 L-15.2684,31.6099 C-15.0159,31.6099 -14.8896,31.5822 -14.8896,31.5268 L-14.8896,25.847 Z M-8.8733,25.847 C-8.8038,25.847 -8.7691,25.7499 -8.7691,25.5555 C-8.7691,25.3584 -8.8188,25.2599 -8.9184,25.2599 L-11.9291,25.2599 C-11.9932,25.2599 -12.0252,25.3364 -12.0252,25.4894 L-12.0252,25.5014 C-12.0252,25.6316 -11.9878,25.7358 -11.913,25.814 C-11.8903,25.836 -11.8679,25.847 -11.8459,25.847 L-11.2257,25.847 C-10.9732,25.847 -10.8273,25.8818 -10.7879,25.9512 C-10.7772,25.9733 -10.7719,25.9983 -10.7719,26.0264 L-10.7719,30.053 C-10.7719,30.222 -10.8009,30.3065 -10.859,30.3065 C-10.8784,30.3065 -10.9158,30.2954 -10.9712,30.2734 L-11.1636,30.1983 C-11.2357,30.1709 -11.3121,30.1391 -11.3925,30.1031 C-11.473,30.067 -11.5507,30.035 -11.6255,30.0069 C-11.8085,29.9348 -11.9194,29.8987 -11.9581,29.8987 C-11.9975,29.8987 -12.0336,29.9111 -12.0663,29.9358 C-12.097,29.9611 -12.1264,29.9932 -12.1545,30.0319 C-12.2153,30.1181 -12.2457,30.1986 -12.2457,30.2734 C-12.2457,30.3455 -12.2236,30.3956 -12.1795,30.4237 L-10.2719,31.6099 C-10.0194,31.6099 -9.8932,31.5822 -9.8932,31.5268 L-9.8932,25.847 Z"
         style="fill:#000000;fill-rule:evenodd;stroke:none"
         id="path62" />
    </g>
    <!-- Text: 9 -->
    <g
       id="g63"
       style="fill:#000000;stroke:none">
      <path
         d="M-34.9671,-2.3214 C-34.8008,-2.5184 -34.5263,-2.6169 -34.1435,-2.6169 C-33.7849,-2.6169 -33.4947,-2.4309 -33.2729,-2.0589 C-33.0231,-1.6401 -32.8982,-1.046 -32.8982,-0.2765 C-33.0759,-0.4762 -33.3591,-0.6152 -33.7478,-0.6933 C-33.8834,-0.7207 -34.0624,-0.7344 -34.2848,-0.7344 C-34.5099,-0.7344 -34.7403,-0.69 -34.9761,-0.6011 C-35.2119,-0.5123 -35.4146,-0.3821 -35.5843,-0.2104 C-35.9396,0.1476 -36.1173,0.6335 -36.1173,1.2474 C-36.1173,1.8191 -35.9005,2.2897 -35.467,2.659 C-35.0616,3.003 -34.6024,3.175 -34.0894,3.175 C-32.6481,3.175 -31.9274,2.1618 -31.9274,0.1353 C-31.9274,-1.5887 -32.3689,-2.656 -33.2519,-3.0668 C-33.5297,-3.1944 -33.8089,-3.2582 -34.0894,-3.2582 C-34.3693,-3.2582 -34.6134,-3.2263 -34.8218,-3.1625 C-35.0302,-3.0987 -35.2176,-3.003 -35.3839,-2.8754 C-35.7533,-2.5949 -35.9379,-2.2255 -35.9379,-1.7673 L-35.9379,-1.7593 C-35.9379,-1.5763 -35.8755,-1.4222 -35.7506,-1.297 C-35.6257,-1.1717 -35.4744,-1.1091 -35.2967,-1.1091 C-35.1164,-1.1091 -34.9651,-1.1719 -34.8429,-1.2975 C-34.7206,-1.425 -34.6595,-1.579 -34.6595,-1.7593 C-34.6595,-2.0285 -34.762,-2.2159 -34.9671,-2.3214 M-34.0724,-0.0932 C-33.9114,-0.0932 -33.7672,-0.0685 -33.6396,-0.019 C-33.5147,0.0257 -33.4021,0.0868 -33.302,0.1643 C-33.1076,0.3146 -32.973,0.4896 -32.8982,0.6893 C-32.9009,1.2363 -32.9994,1.6778 -33.1938,2.0138 C-33.3961,2.3605 -33.675,2.5338 -34.0303,2.5338 C-34.3523,2.5311 -34.6174,2.4075 -34.8258,2.1631 C-35.0396,1.9106 -35.1464,1.583 -35.1464,1.1802 L-35.1464,1.1682 C-35.1464,0.8296 -35.0506,0.5394 -34.8589,0.2976 C-34.6538,0.0371 -34.3917,-0.0932 -34.0724,-0.0932"
         style="fill:#000000;fill-rule:evenodd;stroke:none"
         id="path63" />
    </g>
    <!-- Text: 8 -->
    <g
       id="g64"
       style="fill:#000000;stroke:none">
      <path
         d="M-31.2222,-16.6179 C-31.2222,-15.968 -30.8558,-15.3515 -30.1231,-14.7684 C-30.3649,-14.5687 -30.5342,-14.391 -30.6311,-14.2354 C-30.8281,-13.9248 -30.9266,-13.5972 -30.9266,-13.2526 C-30.9266,-12.8865 -30.7546,-12.5716 -30.4107,-12.3078 C-30.058,-12.0359 -29.6195,-11.9 -29.0952,-11.9 C-28.5261,-11.9 -28.0639,-12.0399 -27.7086,-12.3198 C-27.3893,-12.5729 -27.2296,-12.8772 -27.2296,-13.2325 C-27.2296,-13.7568 -27.4237,-14.2384 -27.8117,-14.6772 C-27.9173,-14.7995 -28.0228,-14.9104 -28.1283,-15.0099 C-27.743,-15.2183 -27.4828,-15.4016 -27.3479,-15.5599 C-27.213,-15.7182 -27.1171,-15.875 -27.0603,-16.0303 C-27.0036,-16.1856 -26.9752,-16.3815 -26.9752,-16.6179 C-26.9752,-16.8564 -27.0314,-17.084 -27.144,-17.3007 C-27.2565,-17.5174 -27.407,-17.702 -27.5953,-17.8543 C-27.9867,-18.1735 -28.4573,-18.3332 -29.007,-18.3332 C-29.7264,-18.3332 -30.2804,-18.1722 -30.6691,-17.8502 C-31.0378,-17.5477 -31.2222,-17.1409 -31.2222,-16.6299 Z M-29.5821,-15.081 C-30.0289,-15.5586 -30.2524,-16.0415 -30.2524,-16.5297 C-30.2524,-16.8717 -30.1468,-17.1496 -29.9358,-17.3633 C-29.7194,-17.5824 -29.4308,-17.6919 -29.0701,-17.6919 C-28.7342,-17.6919 -28.455,-17.5727 -28.2325,-17.3343 C-28.0408,-17.1285 -27.945,-16.9272 -27.945,-16.7301 C-27.945,-16.5331 -27.9846,-16.3651 -28.0637,-16.2262 C-28.1429,-16.0872 -28.2549,-15.954 -28.3999,-15.8264 C-28.6163,-15.6374 -29.0103,-15.3889 -29.5821,-15.081 M-28.6864,-14.7103 C-28.2843,-14.1913 -28.0833,-13.7652 -28.0833,-13.4319 L-28.0833,-13.4199 C-28.0833,-13.1587 -28.1845,-12.945 -28.3868,-12.7787 C-28.5759,-12.6204 -28.812,-12.5412 -29.0952,-12.5412 C-29.4031,-12.5439 -29.6486,-12.623 -29.8316,-12.7787 C-30.0012,-12.9229 -30.086,-13.0796 -30.086,-13.2485 C-30.086,-13.4209 -30.0485,-13.5695 -29.9733,-13.6944 C-29.8982,-13.8193 -29.7968,-13.9385 -29.6693,-14.0521 C-29.4722,-14.2297 -29.1446,-14.4492 -28.6864,-14.7103"
         style="fill:#000000;fill-rule:evenodd;stroke:none"
         id="path64" />
    </g>
    <!-- Text: 7 -->
    <g
       id="g65"
       style="fill:#000000;stroke:none">
      <path
         d="M-18.273,-31.6099 C-18.273,-31.6654 -18.434,-31.6931 -18.756,-31.6931 C-19.0806,-31.6931 -19.2429,-31.6654 -19.2429,-31.6099 C-19.0959,-30.0663 -18.6367,-28.659 -17.8653,-27.3879 C-17.6208,-26.9879 -17.353,-26.5767 -17.0618,-26.1546 L-19.7138,-26.1546 L-19.8681,-26.6716 C-19.8848,-26.7244 -19.9459,-26.7507 -20.0514,-26.7507 C-20.2845,-26.7507 -20.4094,-26.684 -20.4261,-26.5504 L-20.2678,-25.3431 L-16.2202,-25.3431 C-16.1226,-25.3431 -16.0739,-25.4333 -16.0739,-25.6136 L-16.6911,-26.6876 C-17.0738,-27.3736 -17.3505,-27.9338 -17.5211,-28.3683 C-17.6918,-28.8028 -17.8215,-29.1783 -17.9104,-29.4949 C-18.088,-30.1221 -18.2089,-30.8271 -18.273,-31.6099"
         style="fill:#000000;fill-rule:evenodd;stroke:none"
         id="path65" />
    </g>
    <!-- Text: 5 -->
    <g
       id="g66"
       style="fill:#000000;stroke:none">
      <path
         d="M17.2877,-30.7563 C17.454,-30.9534 17.7275,-31.0519 18.1082,-31.0519 C18.4161,-31.0519 18.673,-30.9463 18.8787,-30.7353 C19.1004,-30.5075 19.2113,-30.2049 19.2113,-29.8276 C19.2113,-29.4028 19.0767,-29.0641 18.8076,-28.8116 C18.5464,-28.5672 18.1937,-28.4449 17.7496,-28.4449 L16.7336,-28.4449 L16.7336,-25.3431 L19.8906,-25.3431 C19.8906,-25.6483 19.8739,-25.8467 19.8405,-25.9382 C19.771,-26.1272 19.6351,-26.2217 19.4327,-26.2217 L17.3748,-26.2217 L17.3748,-27.8037 L18.0161,-27.8037 C18.7047,-27.8037 19.2477,-28.0065 19.6451,-28.4119 C20.0031,-28.7786 20.1822,-29.2351 20.1822,-29.7815 C20.1822,-30.3619 19.9891,-30.8271 19.6031,-31.1771 C19.223,-31.5184 18.7301,-31.6904 18.1243,-31.6931 C17.6747,-31.6931 17.271,-31.5625 16.913,-31.3013 C16.5162,-31.0128 16.3178,-30.6438 16.3178,-30.1943 C16.3178,-30.0112 16.3803,-29.8571 16.5052,-29.7319 C16.6301,-29.6066 16.7814,-29.544 16.9591,-29.544 C17.1394,-29.544 17.2907,-29.6068 17.4129,-29.7324 C17.5351,-29.86 17.5963,-30.0152 17.5963,-30.1983 C17.5963,-30.3813 17.4934,-30.5673 17.2877,-30.7563"
         style="fill:#000000;fill-rule:evenodd;stroke:none"
         id="path66" />
    </g>
    <!-- Text: 4 -->
    <g
       id="g67"
       style="fill:#000000;stroke:none">
      <path
         d="M31.5057,-15.8765 C31.5752,-15.8765 31.6099,-15.9627 31.6099,-16.135 C31.6099,-16.2793 31.5864,-16.3791 31.5393,-16.4346 C31.4922,-16.49 31.4533,-16.5177 31.4226,-16.5177 L30.7443,-16.5177 L30.7443,-17.6629 L31.3564,-17.6629 C31.4259,-17.6629 31.4606,-17.7601 31.4606,-17.9544 C31.4606,-18.1515 31.4106,-18.25 31.3104,-18.25 L28.7074,-18.25 C28.644,-18.25 28.6123,-18.1735 28.6123,-18.0206 L28.6123,-18.0085 C28.6123,-17.8783 28.6497,-17.7741 28.7245,-17.696 C28.7465,-17.6739 28.7686,-17.6629 28.7906,-17.6629 L29.4118,-17.6629 C29.6643,-17.6629 29.8099,-17.6282 29.8486,-17.5587 C29.86,-17.5367 29.8656,-17.5116 29.8656,-17.4836 L29.8656,-16.5177 L27.5623,-16.5177 C27.4487,-16.4509 27.3836,-16.3551 27.3669,-16.2302 L29.2785,-11.9 C29.7641,-11.9 30.0069,-12.083 30.0069,-12.449 L28.2746,-15.8765 L29.8656,-15.8765 L29.8656,-14.4278 C29.8656,-14.1446 30.1585,-14.003 30.7443,-14.003 L30.7443,-15.8765 Z"
         style="fill:#000000;fill-rule:evenodd;stroke:none"
         id="path67" />
    </g>
    <!-- Text: 3 -->
    <g
       id="g68"
       style="fill:#000000;stroke:none">
      <path
         d="M33.6646,-2.3214 C33.831,-2.5184 34.0878,-2.6169 34.4351,-2.6169 C34.7597,-2.6169 35.0222,-2.5114 35.2226,-2.3003 C35.4276,-2.0866 35.5302,-1.8007 35.5302,-1.4427 C35.5302,-1.1208 35.4316,-0.8376 35.2346,-0.5931 C35.0209,-0.3266 34.7293,-0.1727 34.36,-0.1312 L34.36,0.2565 C34.8402,0.3921 35.1692,0.6542 35.3468,1.043 C35.419,1.1959 35.455,1.3586 35.455,1.5309 C35.455,1.7026 35.4315,1.8453 35.3844,1.9592 C35.3373,2.0731 35.2693,2.1731 35.1805,2.2593 C34.9942,2.4423 34.7457,2.5338 34.4351,2.5338 C34.0878,2.5338 33.831,2.4353 33.6646,2.2382 C33.7535,2.1941 33.8271,2.1193 33.8856,2.0138 C33.944,1.9083 33.9732,1.8014 33.9732,1.6932 C33.9732,1.585 33.9565,1.492 33.9231,1.4142 C33.8897,1.3364 33.8453,1.2684 33.7899,1.2103 C33.6703,1.0881 33.519,1.0269 33.336,1.0269 C33.1557,1.0269 33.0044,1.0881 32.8822,1.2103 C32.7573,1.3352 32.6948,1.5028 32.6948,1.7132 C32.6948,1.9243 32.7509,2.1228 32.8631,2.3089 C32.9753,2.4949 33.1203,2.6517 33.2979,2.7793 C33.662,3.0404 34.0881,3.1723 34.5764,3.175 C35.1154,3.175 35.5459,3.0294 35.8678,2.7382 C36.1784,2.455 36.3337,2.0953 36.3337,1.6591 L36.3337,1.6511 C36.3337,1.1321 36.1159,0.7117 35.6805,0.3897 C35.5582,0.2982 35.4316,0.2231 35.3007,0.1643 C35.6481,-0.0107 35.8982,-0.1813 36.0512,-0.3477 C36.3504,-0.681 36.5,-1.06 36.5,-1.4848 L36.5,-1.4928 C36.5,-1.9537 36.3183,-2.3575 35.955,-2.7041 C35.5689,-3.0735 35.0887,-3.2582 34.5142,-3.2582 C34.0587,-3.2582 33.6506,-3.1276 33.2899,-2.8664 C32.8932,-2.5779 32.6948,-2.2088 32.6948,-1.7593 L32.6948,-1.7513 C32.6948,-1.5703 32.7573,-1.4173 32.8822,-1.2924 C33.0044,-1.1702 33.1557,-1.1091 33.336,-1.1091 C33.5023,-1.1091 33.6479,-1.1675 33.7728,-1.2844 C33.9004,-1.404 33.9642,-1.5609 33.9642,-1.7553 C33.9642,-1.9497 33.8644,-2.1384 33.6646,-2.3214"
         style="fill:#000000;fill-rule:evenodd;stroke:none"
         id="path68" />
    </g>
    <!-- Text: 1 -->
    <g
       id="g69"
       style="fill:#000000;stroke:none">
      <path
         d="M18.1458,25.847 C18.2153,25.847 18.25,25.7499 18.25,25.5555 C18.25,25.3584 18.2002,25.2599 18.1007,25.2599 L15.09,25.2599 C15.0259,25.2599 14.9938,25.3364 14.9938,25.4894 L14.9938,25.5014 C14.9938,25.6316 15.0313,25.7358 15.1061,25.814 C15.1288,25.836 15.1511,25.847 15.1732,25.847 L15.7934,25.847 C16.0458,25.847 16.1918,25.8818 16.2312,25.9512 C16.2419,25.9733 16.2472,25.9983 16.2472,26.0264 L16.2472,30.053 C16.2472,30.222 16.2182,30.3065 16.1601,30.3065 C16.1407,30.3065 16.1033,30.2954 16.0478,30.2734 L15.8555,30.1983 C15.7833,30.1709 15.707,30.1391 15.6265,30.1031 C15.5461,30.067 15.4684,30.035 15.3936,30.0069 C15.2106,29.9348 15.0997,29.8987 15.061,29.8987 C15.0216,29.8987 14.9855,29.9111 14.9528,29.9358 C14.922,29.9611 14.8927,29.9932 14.8646,30.0319 C14.8038,30.1181 14.7734,30.1986 14.7734,30.2734 C14.7734,30.3455 14.7955,30.3956 14.8396,30.4237 L16.7472,31.6099 C16.9996,31.6099 17.1259,31.5822 17.1259,31.5268 L17.1259,25.847 Z"
         style="fill:#000000;fill-rule:evenodd;stroke:none"
         id="path69" />
    </g>
  </g>
</svg>
