<?xml version="1.0" encoding="UTF-8" standalone="no"?>
<!-- 2026-04-14 15:26:00 Generated by QCAD 3.28.2 SVG Exporter -->

<svg
   width="89mm"
   height="84.1657mm"
   viewBox="-44.5 -44.5 89 84.1657"
   version="1.1"
   style="stroke-linecap:round;stroke-linejoin:round;fill:none"
   id="svg70"
   sodipodi:docname="clock-face-permanentmarker.svg"
   inkscape:version="1.4.3 (0d15f75042, 2025-12-25)"
   xmlns:inkscape="http://www.inkscape.org/namespaces/inkscape"
   xmlns:sodipodi="http://sodipodi.sourceforge.net/DTD/sodipodi-0.dtd"
   xmlns="http://www.w3.org/2000/svg"
   xmlns:svg="http://www.w3.org/2000/svg">
  <defs
     id="defs70" />
  <sodipodi:namedview
     id="namedview70"
     pagecolor="#ffffff"
     bordercolor="#000000"
     borderopacity="0.25"
     inkscape:showpageshadow="2"
     inkscape:pageopacity="0.0"
     inkscape:pagecheckerboard="0"
     inkscape:deskcolor="#d1d1d1"
     inkscape:document-units="mm"
     inkscape:zoom="2.4079979"
     inkscape:cx="168.18952"
     inkscape:cy="159.0533"
     inkscape:window-width="1920"
     inkscape:window-height="979"
     inkscape:window-x="320"
     inkscape:window-y="1440"
     inkscape:window-maximized="1"
     inkscape:current-layer="svg70" />
  <g
     transform="scale(1,-1)"
     id="g70"
     style="fill:#000000;stroke:none">
    <!-- Line -->
    <path
       style="baseline-shift:baseline;display:inline;overflow:visible;vector-effect:none;fill:#000000;stroke-linecap:butt;stroke-linejoin:miter;enable-background:accumulate;stop-color:#000000;stop-opacity:1;opacity:1;stroke:none"
       d="m -18.310547,10.283203 -5.197265,3 a 0.25,0.25 0 0 0 -0.0918,0.341797 0.25,0.25 0 0 0 0.341797,0.0918 l 5.197265,-3 a 0.25,0.25 0 0 0 0.08984,-0.341797 0.25,0.25 0 0 0 -0.339844,-0.0918 z"
       id="path1" />
    <!-- Line -->
    <path
       style="baseline-shift:baseline;display:inline;overflow:visible;vector-effect:none;fill:#000000;stroke-linecap:butt;stroke-linejoin:miter;enable-background:accumulate;stop-color:#000000;stop-opacity:1;opacity:1;stroke:none"
       d="M 0,-27.25 A 0.25,0.25 0 0 0 -0.25,-27 v 6 A 0.25,0.25 0 0 0 0,-20.75 0.25,0.25 0 0 0 0.25,-21 v -6 A 0.25,0.25 0 0 0 0,-27.25 Z"
       id="path2" />
    <!-- Line -->
    <path
       style="baseline-shift:baseline;display:inline;overflow:visible;vector-effect:none;fill:#000000;stroke-linecap:butt;stroke-linejoin:miter;enable-background:accumulate;stop-color:#000000;stop-opacity:1;opacity:1;stroke:none"
       d="m 18.310547,10.283203 a 0.25,0.25 0 0 0 -0.339844,0.0918 0.25,0.25 0 0 0 0.08984,0.341797 l 5.197265,3 a 0.25,0.25 0 0 0 0.341797,-0.0918 0.25,0.25 0 0 0 -0.0918,-0.341797 z"
       id="path3" />
    <!-- Arc -->
    <path
       style="baseline-shift:baseline;display:inline;overflow:visible;vector-effect:none;fill:#000000;stroke-linecap:butt;stroke-linejoin:miter;enable-background:accumulate;stop-color:#000000;stop-opacity:1;opacity:1;stroke:none"
       d="M -25.277344,35.095703 A 0.25,0.25 0 0 0 -25.625,35.152344 0.25,0.25 0 0 0 -25.568359,35.5 c 15.270852,10.998722 35.865866,10.998722 51.136718,0 a 0.25,0.25 0 0 0 0.05664,-0.347656 0.25,0.25 0 0 0 -0.347656,-0.05664 c -15.097872,10.874134 -35.456816,10.874134 -50.554688,0 z"
       id="path4" />
    <!-- Arc -->
    <path
       style="baseline-shift:baseline;display:inline;overflow:visible;vector-effect:none;fill:#000000;stroke-linecap:butt;stroke-linejoin:miter;enable-background:accumulate;stop-color:#000000;stop-opacity:1;opacity:1;stroke:none"
       d="m -37.199219,3.546875 c -2.025771,-0.1455704 -4.098458,0.037491 -6.144531,0.5800781 a 0.25,0.25 0 0 0 -0.177734,0.3046875 0.25,0.25 0 0 0 0.304687,0.1777344 c 7.968326,-2.1130755 16.362506,1.3763328 20.484375,8.515625 4.121869,7.139292 2.946956,16.151862 -2.867187,21.996094 a 0.25,0.25 0 0 0 0,0.353515 0.25,0.25 0 0 0 0.353515,0 c 5.971725,-6.002628 7.178897,-15.26682 2.945313,-22.599609 -3.175189,-5.4995916 -8.821124,-8.8914138 -14.898438,-9.328125 z"
       id="path5" />
    <!-- Arc -->
    <path
       style="baseline-shift:baseline;display:inline;overflow:visible;vector-effect:none;fill:#000000;stroke-linecap:butt;stroke-linejoin:miter;enable-background:accumulate;stop-color:#000000;stop-opacity:1;opacity:1;stroke:none"
       d="M 37.199219,3.546875 C 31.121905,3.9835862 25.47597,7.3754084 22.300781,12.875 c -4.233584,7.332789 -3.026412,16.596981 2.945313,22.599609 a 0.25,0.25 0 0 0 0.353515,0 0.25,0.25 0 0 0 0,-0.353515 C 19.785466,29.276862 18.610553,20.264292 22.732422,13.125 26.854291,5.9857078 35.248471,2.4962995 43.216797,4.609375 A 0.25,0.25 0 0 0 43.521484,4.4316406 0.25,0.25 0 0 0 43.34375,4.1269531 C 41.297677,3.5843665 39.22499,3.4013046 37.199219,3.546875 Z"
       id="path6" />
    <!-- Arc -->
    <path
       style="baseline-shift:baseline;display:inline;overflow:visible;vector-effect:none;fill:#000000;stroke-linecap:butt;stroke-linejoin:miter;enable-background:accumulate;stop-color:#000000;stop-opacity:1;opacity:1;stroke:none"
       d="m -17.958984,-39.894531 c -17.160617,7.725591 -27.46008,25.562786 -25.570313,44.2871091 a 0.25,0.25 0 0 0 0.273438,0.2246094 0.25,0.25 0 0 0 0.224609,-0.2734375 c -1.868361,-18.512223 8.311115,-36.143171 25.277344,-43.78125 a 0.25,0.25 0 0 0 0.125,-0.330078 0.25,0.25 0 0 0 -0.330078,-0.126953 z"
       id="path7" />
    <!-- Arc -->
    <path
       style="baseline-shift:baseline;display:inline;overflow:visible;vector-effect:none;fill:#000000;stroke-linecap:butt;stroke-linejoin:miter;enable-background:accumulate;stop-color:#000000;stop-opacity:1;opacity:1;stroke:none"
       d="m -17.921875,-39.90625 a 0.25,0.25 0 0 0 -0.175781,0.306641 C -15.885075,-31.426648 -8.4671598,-25.75 0,-25.75 c 8.4671598,0 15.885075,-5.676648 18.097656,-13.849609 a 0.25,0.25 0 0 0 -0.175781,-0.306641 0.25,0.25 0 0 0 -0.306641,0.175781 C 15.461039,-31.773175 8.2437295,-26.25 0,-26.25 c -8.2437295,0 -15.461039,-5.523175 -17.615234,-13.480469 a 0.25,0.25 0 0 0 -0.306641,-0.175781 z"
       id="path8" />
    <!-- Arc -->
    <path
       style="baseline-shift:baseline;display:inline;overflow:visible;vector-effect:none;fill:#000000;stroke-linecap:butt;stroke-linejoin:miter;enable-background:accumulate;stop-color:#000000;stop-opacity:1;opacity:1;stroke:none"
       d="m 17.958984,-39.894531 a 0.25,0.25 0 0 0 -0.330078,0.126953 0.25,0.25 0 0 0 0.125,0.330078 c 16.966229,7.638079 27.145705,25.269027 25.277344,43.78125 a 0.25,0.25 0 0 0 0.224609,0.2734375 0.25,0.25 0 0 0 0.273438,-0.2246094 C 45.419064,-14.331745 35.119601,-32.16894 17.958984,-39.894531 Z"
       id="path9" />
    <!-- Line -->
    <path
       style="baseline-shift:baseline;display:inline;overflow:visible;vector-effect:none;fill:#000000;stroke-linecap:butt;stroke-linejoin:miter;enable-background:accumulate;stop-color:#000000;stop-opacity:1;opacity:1;stroke:none"
       d="m 0,38.25 a 0.25,0.25 0 0 0 -0.25,0.25 v 6 A 0.25,0.25 0 0 0 0,44.75 0.25,0.25 0 0 0 0.25,44.5 v -6 A 0.25,0.25 0 0 0 0,38.25 Z"
       id="path10" />
    <!-- Line -->
    <path
       style="baseline-shift:baseline;display:inline;overflow:visible;vector-effect:none;fill:#000000;stroke-linecap:butt;stroke-linejoin:miter;enable-background:accumulate;stop-color:#000000;stop-opacity:1;opacity:1;stroke:none"
       d="m -19.125,33.125 a 0.25,0.25 0 0 0 -0.341797,0.0918 l -3,5.197265 a 0.25,0.25 0 0 0 0.0918,0.339844 0.25,0.25 0 0 0 0.341797,-0.08984 l 3,-5.197265 A 0.25,0.25 0 0 0 -19.125,33.125 Z"
       id="path11" />
    <!-- Line -->
    <path
       style="baseline-shift:baseline;display:inline;overflow:visible;vector-effect:none;fill:#000000;stroke-linecap:butt;stroke-linejoin:miter;enable-background:accumulate;stop-color:#000000;stop-opacity:1;opacity:1;stroke:none"
       d="M -44.5,-0.25 A 0.25,0.25 0 0 0 -44.75,0 0.25,0.25 0 0 0 -44.5,0.25 h 6 A 0.25,0.25 0 0 0 -38.25,0 0.25,0.25 0 0 0 -38.5,-0.25 Z"
       id="path12" />
    <!-- Line -->
    <path
       style="baseline-shift:baseline;display:inline;overflow:visible;vector-effect:none;fill:#000000;stroke-linecap:butt;stroke-linejoin:miter;enable-background:accumulate;stop-color:#000000;stop-opacity:1;opacity:1;stroke:none"
       d="m -38.414062,-22.466797 a 0.25,0.25 0 0 0 -0.339844,0.0918 0.25,0.25 0 0 0 0.08984,0.341797 l 5.197265,3 a 0.25,0.25 0 0 0 0.341797,-0.0918 0.25,0.25 0 0 0 -0.0918,-0.341797 z"
       id="path13" />
    <!-- Line -->
    <path
       style="baseline-shift:baseline;display:inline;overflow:visible;vector-effect:none;fill:#000000;stroke-linecap:butt;stroke-linejoin:miter;enable-background:accumulate;stop-color:#000000;stop-opacity:1;opacity:1;stroke:none"
       d="m -22.375,-38.753906 a 0.25,0.25 0 0 0 -0.0918,0.339844 l 3,5.197265 a 0.25,0.25 0 0 0 0.341797,0.0918 0.25,0.25 0 0 0 0.0918,-0.341797 l -3,-5.197265 a 0.25,0.25 0 0 0 -0.341797,-0.08984 z"
       id="path14" />
    <!-- Line -->
    <path
       style="baseline-shift:baseline;display:inline;overflow:visible;vector-effect:none;fill:#000000;stroke-linecap:butt;stroke-linejoin:miter;enable-background:accumulate;stop-color:#000000;stop-opacity:1;opacity:1;stroke:none"
       d="m 22.375,-38.753906 a 0.25,0.25 0 0 0 -0.341797,0.08984 l -3,5.197265 a 0.25,0.25 0 0 0 0.0918,0.341797 0.25,0.25 0 0 0 0.341797,-0.0918 l 3,-5.197265 a 0.25,0.25 0 0 0 -0.0918,-0.339844 z"
       id="path15" />
    <!-- Line -->
    <path
       style="baseline-shift:baseline;display:inline;overflow:visible;vector-effect:none;fill:#000000;stroke-linecap:butt;stroke-linejoin:miter;enable-background:accumulate;stop-color:#000000;stop-opacity:1;opacity:1;stroke:none"
       d="m 38.414062,-22.466797 -5.197265,3 a 0.25,0.25 0 0 0 -0.0918,0.341797 0.25,0.25 0 0 0 0.341797,0.0918 l 5.197265,-3 a 0.25,0.25 0 0 0 0.08984,-0.341797 0.25,0.25 0 0 0 -0.339844,-0.0918 z"
       id="path16" />
    <!-- Line -->
    <path
       style="baseline-shift:baseline;display:inline;overflow:visible;vector-effect:none;fill:#000000;stroke-linecap:butt;stroke-linejoin:miter;enable-background:accumulate;stop-color:#000000;stop-opacity:1;opacity:1;stroke:none"
       d="M 38.5,-0.25 A 0.25,0.25 0 0 0 38.25,0 0.25,0.25 0 0 0 38.5,0.25 h 6 A 0.25,0.25 0 0 0 44.75,0 0.25,0.25 0 0 0 44.5,-0.25 Z"
       id="path17" />
    <!-- Line -->
    <path
       style="baseline-shift:baseline;display:inline;overflow:visible;vector-effect:none;fill:#000000;stroke-linecap:butt;stroke-linejoin:miter;enable-background:accumulate;stop-color:#000000;stop-opacity:1;opacity:1;stroke:none"
       d="m 19.125,33.125 a 0.25,0.25 0 0 0 -0.0918,0.341797 l 3,5.197265 a 0.25,0.25 0 0 0 0.341797,0.08984 0.25,0.25 0 0 0 0.0918,-0.339844 l -3,-5.197265 A 0.25,0.25 0 0 0 19.125,33.125 Z"
       id="path18" />
    <!-- Line -->
    <path
       style="baseline-shift:baseline;display:inline;overflow:visible;vector-effect:none;fill:#000000;stroke-linecap:butt;stroke-linejoin:miter;enable-background:accumulate;stop-color:#000000;stop-opacity:1;opacity:1;stroke:none"
       d="m -4.3242187,41.148437 a 0.125,0.125 0 0 0 -0.1386719,0.111329 l -0.3125,2.982421 a 0.125,0.125 0 0 0 0.1113281,0.138672 0.125,0.125 0 0 0 0.1367188,-0.111328 l 0.3144531,-2.984375 a 0.125,0.125 0 0 0 -0.1113281,-0.136719 z"
       id="path19" />
    <!-- Line -->
    <path
       style="baseline-shift:baseline;display:inline;overflow:visible;vector-effect:none;fill:#000000;stroke-linecap:butt;stroke-linejoin:miter;enable-background:accumulate;stop-color:#000000;stop-opacity:1;opacity:1;stroke:none"
       d="M -8.6015625,40.470703 A 0.125,0.125 0 0 0 -8.75,40.566406 l -0.625,2.935547 a 0.125,0.125 0 0 0 0.097656,0.148438 0.125,0.125 0 0 0 0.1484375,-0.09766 l 0.6230469,-2.933593 a 0.125,0.125 0 0 0 -0.095703,-0.148438 z"
       id="path20" />
    <!-- Line -->
    <path
       style="baseline-shift:baseline;display:inline;overflow:visible;vector-effect:none;fill:#000000;stroke-linecap:butt;stroke-linejoin:miter;enable-background:accumulate;stop-color:#000000;stop-opacity:1;opacity:1;stroke:none"
       d="m -12.785156,39.349609 a 0.125,0.125 0 0 0 -0.158203,0.08008 l -0.927735,2.853516 a 0.125,0.125 0 0 0 0.08203,0.158203 0.125,0.125 0 0 0 0.15625,-0.08008 l 0.927735,-2.853516 a 0.125,0.125 0 0 0 -0.08008,-0.158203 z"
       id="path21" />
    <!-- Line -->
    <path
       style="baseline-shift:baseline;display:inline;overflow:visible;vector-effect:none;fill:#000000;stroke-linecap:butt;stroke-linejoin:miter;enable-background:accumulate;stop-color:#000000;stop-opacity:1;opacity:1;stroke:none"
       d="m -16.828125,37.798828 a 0.125,0.125 0 0 0 -0.166016,0.0625 l -1.220703,2.740234 a 0.125,0.125 0 0 0 0.06445,0.166016 0.125,0.125 0 0 0 0.164063,-0.06445 l 1.220703,-2.740234 a 0.125,0.125 0 0 0 -0.0625,-0.164063 z"
       id="path22" />
    <!-- Line -->
    <path
       style="baseline-shift:baseline;display:inline;overflow:visible;vector-effect:none;fill:#000000;stroke-linecap:butt;stroke-linejoin:miter;enable-background:accumulate;stop-color:#000000;stop-opacity:1;opacity:1;stroke:none"
       d="m -18.0625,20.060547 a 0.125,0.125 0 0 0 -0.175781,0.0078 l -2.931641,3.25586 a 0.125,0.125 0 0 0 0.0098,0.175781 0.125,0.125 0 0 0 0.175781,-0.0078 l 2.931641,-3.255859 a 0.125,0.125 0 0 0 -0.0098,-0.175781 z"
       id="path23" />
    <!-- Line -->
    <path
       style="baseline-shift:baseline;display:inline;overflow:visible;vector-effect:none;fill:#000000;stroke-linecap:butt;stroke-linejoin:miter;enable-background:accumulate;stop-color:#000000;stop-opacity:1;opacity:1;stroke:none"
       d="m -18.835937,16.792969 -2.556641,2.300781 a 0.125,0.125 0 0 0 -0.0078,0.175781 0.125,0.125 0 0 0 0.175782,0.0098 l 2.554687,-2.300781 a 0.125,0.125 0 0 0 0.0098,-0.177735 0.125,0.125 0 0 0 -0.175781,-0.0078 z"
       id="path24" />
    <!-- Line -->
    <path
       style="baseline-shift:baseline;display:inline;overflow:visible;vector-effect:none;fill:#000000;stroke-linecap:butt;stroke-linejoin:miter;enable-background:accumulate;stop-color:#000000;stop-opacity:1;opacity:1;stroke:none"
       d="m -19.724609,14.175781 -2.503907,1.820313 a 0.125,0.125 0 0 0 -0.02734,0.173828 0.125,0.125 0 0 0 0.173828,0.02734 l 2.503906,-1.81836 a 0.125,0.125 0 0 0 0.02734,-0.173828 0.125,0.125 0 0 0 -0.173828,-0.0293 z"
       id="path25" />
    <!-- Line -->
    <path
       style="baseline-shift:baseline;display:inline;overflow:visible;vector-effect:none;fill:#000000;stroke-linecap:butt;stroke-linejoin:miter;enable-background:accumulate;stop-color:#000000;stop-opacity:1;opacity:1;stroke:none"
       d="m -22.242187,9.765625 -2.826172,1.259766 a 0.125,0.125 0 0 0 -0.06445,0.164062 0.125,0.125 0 0 0 0.166015,0.06445 l 2.826172,-1.2597654 a 0.125,0.125 0 0 0 0.06445,-0.1640625 0.125,0.125 0 0 0 -0.166015,-0.064453 z"
       id="path26" />
    <!-- Line -->
    <path
       style="baseline-shift:baseline;display:inline;overflow:visible;vector-effect:none;fill:#000000;stroke-linecap:butt;stroke-linejoin:miter;enable-background:accumulate;stop-color:#000000;stop-opacity:1;opacity:1;stroke:none"
       d="m -24.037109,7.6796875 -3.271485,1.0625 a 0.125,0.125 0 0 0 -0.08008,0.15625 0.125,0.125 0 0 0 0.158203,0.080078 l 3.269532,-1.0625 a 0.125,0.125 0 0 0 0.08008,-0.15625 0.125,0.125 0 0 0 -0.15625,-0.080078 z"
       id="path27" />
    <!-- Line -->
    <path
       style="baseline-shift:baseline;display:inline;overflow:visible;vector-effect:none;fill:#000000;stroke-linecap:butt;stroke-linejoin:miter;enable-background:accumulate;stop-color:#000000;stop-opacity:1;opacity:1;stroke:none"
       d="m -26.550781,5.515625 -4.285156,0.9101562 a 0.125,0.125 0 0 0 -0.0957,0.1484375 0.125,0.125 0 0 0 0.148438,0.097656 L -26.5,5.7597656 a 0.125,0.125 0 0 0 0.0957,-0.1484375 0.125,0.125 0 0 0 -0.146484,-0.095703 z"
       id="path28" />
    <!-- Line -->
    <path
       style="baseline-shift:baseline;display:inline;overflow:visible;vector-effect:none;fill:#000000;stroke-linecap:butt;stroke-linejoin:miter;enable-background:accumulate;stop-color:#000000;stop-opacity:1;opacity:1;stroke:none"
       d="m -44.242187,-4.7753906 a 0.125,0.125 0 0 0 -0.138672,0.1113281 0.125,0.125 0 0 0 0.111328,0.1367188 l 2.984375,0.3144531 a 0.125,0.125 0 0 0 0.136719,-0.1113281 0.125,0.125 0 0 0 -0.111329,-0.1386719 z"
       id="path29" />
    <!-- Line -->
    <path
       style="baseline-shift:baseline;display:inline;overflow:visible;vector-effect:none;fill:#000000;stroke-linecap:butt;stroke-linejoin:miter;enable-background:accumulate;stop-color:#000000;stop-opacity:1;opacity:1;stroke:none"
       d="m -43.501953,-9.375 a 0.125,0.125 0 0 0 -0.148438,0.097656 0.125,0.125 0 0 0 0.09766,0.1484375 l 2.933593,0.6230469 a 0.125,0.125 0 0 0 0.148438,-0.095703 0.125,0.125 0 0 0 -0.0957,-0.1484375 z"
       id="path30" />
    <!-- Line -->
    <path
       style="baseline-shift:baseline;display:inline;overflow:visible;vector-effect:none;fill:#000000;stroke-linecap:butt;stroke-linejoin:miter;enable-background:accumulate;stop-color:#000000;stop-opacity:1;opacity:1;stroke:none"
       d="m -42.283203,-13.871094 a 0.125,0.125 0 0 0 -0.158203,0.08203 0.125,0.125 0 0 0 0.08008,0.15625 l 2.853516,0.927735 a 0.125,0.125 0 0 0 0.158203,-0.08008 0.125,0.125 0 0 0 -0.08008,-0.158203 z"
       id="path31" />
    <!-- Line -->
    <path
       style="baseline-shift:baseline;display:inline;overflow:visible;vector-effect:none;fill:#000000;stroke-linecap:butt;stroke-linejoin:miter;enable-background:accumulate;stop-color:#000000;stop-opacity:1;opacity:1;stroke:none"
       d="m -40.601562,-18.214844 a 0.125,0.125 0 0 0 -0.166016,0.06445 0.125,0.125 0 0 0 0.06445,0.164063 l 2.740234,1.220703 a 0.125,0.125 0 0 0 0.164063,-0.0625 0.125,0.125 0 0 0 -0.0625,-0.166016 z"
       id="path32" />
    <!-- Line -->
    <path
       style="baseline-shift:baseline;display:inline;overflow:visible;vector-effect:none;fill:#000000;stroke-linecap:butt;stroke-linejoin:miter;enable-background:accumulate;stop-color:#000000;stop-opacity:1;opacity:1;stroke:none"
       d="m -35.927734,-26.257812 a 0.125,0.125 0 0 0 -0.173828,0.02734 0.125,0.125 0 0 0 0.02734,0.175782 l 2.425782,1.763671 a 0.125,0.125 0 0 0 0.175781,-0.0293 0.125,0.125 0 0 0 -0.02734,-0.173829 z"
       id="path33" />
    <!-- Line -->
    <path
       style="baseline-shift:baseline;display:inline;overflow:visible;vector-effect:none;fill:#000000;stroke-linecap:butt;stroke-linejoin:miter;enable-background:accumulate;stop-color:#000000;stop-opacity:1;opacity:1;stroke:none"
       d="m -32.986328,-29.869141 a 0.125,0.125 0 0 0 -0.175781,0.0098 0.125,0.125 0 0 0 0.0078,0.175781 l 2.230469,2.007813 a 0.125,0.125 0 0 0 0.175781,-0.0098 0.125,0.125 0 0 0 -0.0098,-0.175781 z"
       id="path34" />
    <!-- Line -->
    <path
       style="baseline-shift:baseline;display:inline;overflow:visible;vector-effect:none;fill:#000000;stroke-linecap:butt;stroke-linejoin:miter;enable-background:accumulate;stop-color:#000000;stop-opacity:1;opacity:1;stroke:none"
       d="m -29.859375,-33.162109 a 0.125,0.125 0 0 0 -0.0098,0.175781 l 2.007813,2.228516 a 0.125,0.125 0 0 0 0.175781,0.0098 0.125,0.125 0 0 0 0.0098,-0.175781 l -2.007813,-2.230469 a 0.125,0.125 0 0 0 -0.175781,-0.0078 z"
       id="path35" />
    <!-- Line -->
    <path
       style="baseline-shift:baseline;display:inline;overflow:visible;vector-effect:none;fill:#000000;stroke-linecap:butt;stroke-linejoin:miter;enable-background:accumulate;stop-color:#000000;stop-opacity:1;opacity:1;stroke:none"
       d="m -26.230469,-36.101562 a 0.125,0.125 0 0 0 -0.02734,0.173828 L -24.494141,-33.5 a 0.125,0.125 0 0 0 0.173829,0.02734 0.125,0.125 0 0 0 0.0293,-0.175781 l -1.763671,-2.425782 a 0.125,0.125 0 0 0 -0.175782,-0.02734 z"
       id="path36" />
    <!-- Line -->
    <path
       style="baseline-shift:baseline;display:inline;overflow:visible;vector-effect:none;fill:#000000;stroke-linecap:butt;stroke-linejoin:miter;enable-background:accumulate;stop-color:#000000;stop-opacity:1;opacity:1;stroke:none"
       d="m -9.7714844,-30.076172 a 0.125,0.125 0 0 0 -0.080078,0.158203 l 1.3535156,4.166016 a 0.125,0.125 0 0 0 0.15625,0.08008 0.125,0.125 0 0 0 0.080078,-0.158203 l -1.3535156,-4.166016 a 0.125,0.125 0 0 0 -0.15625,-0.08008 z"
       id="path37" />
    <!-- Line -->
    <path
       style="baseline-shift:baseline;display:inline;overflow:visible;vector-effect:none;fill:#000000;stroke-linecap:butt;stroke-linejoin:miter;enable-background:accumulate;stop-color:#000000;stop-opacity:1;opacity:1;stroke:none"
       d="m -5.9882812,-28.169922 a 0.125,0.125 0 0 0 -0.095703,0.148438 l 0.7148438,3.365234 a 0.125,0.125 0 0 0 0.1484375,0.0957 0.125,0.125 0 0 0 0.095703,-0.148437 l -0.7148437,-3.363282 a 0.125,0.125 0 0 0 -0.1484375,-0.09766 z"
       id="path38" />
    <!-- Line -->
    <path
       style="baseline-shift:baseline;display:inline;overflow:visible;vector-effect:none;fill:#000000;stroke-linecap:butt;stroke-linejoin:miter;enable-background:accumulate;stop-color:#000000;stop-opacity:1;opacity:1;stroke:none"
       d="m -2.875,-27.359375 a 0.125,0.125 0 0 0 -0.1113281,0.136719 l 0.3222656,3.078125 a 0.125,0.125 0 0 0 0.1386719,0.111328 0.125,0.125 0 0 0 0.1113281,-0.138672 l -0.3242188,-3.076172 A 0.125,0.125 0 0 0 -2.875,-27.359375 Z"
       id="path39" />
    <!-- Line -->
    <path
       style="baseline-shift:baseline;display:inline;overflow:visible;vector-effect:none;fill:#000000;stroke-linecap:butt;stroke-linejoin:miter;enable-background:accumulate;stop-color:#000000;stop-opacity:1;opacity:1;stroke:none"
       d="m 2.875,-27.359375 a 0.125,0.125 0 0 0 -0.1367187,0.111328 l -0.3242188,3.076172 a 0.125,0.125 0 0 0 0.1113281,0.138672 0.125,0.125 0 0 0 0.1386719,-0.111328 l 0.3222656,-3.078125 A 0.125,0.125 0 0 0 2.875,-27.359375 Z"
       id="path40" />
    <!-- Line -->
    <path
       style="baseline-shift:baseline;display:inline;overflow:visible;vector-effect:none;fill:#000000;stroke-linecap:butt;stroke-linejoin:miter;enable-background:accumulate;stop-color:#000000;stop-opacity:1;opacity:1;stroke:none"
       d="m 5.9882812,-28.169922 a 0.125,0.125 0 0 0 -0.1484375,0.09766 L 5.125,-24.708984 a 0.125,0.125 0 0 0 0.095703,0.148437 0.125,0.125 0 0 0 0.1484375,-0.0957 l 0.7148438,-3.365234 a 0.125,0.125 0 0 0 -0.095703,-0.148438 z"
       id="path41" />
    <!-- Line -->
    <path
       style="baseline-shift:baseline;display:inline;overflow:visible;vector-effect:none;fill:#000000;stroke-linecap:butt;stroke-linejoin:miter;enable-background:accumulate;stop-color:#000000;stop-opacity:1;opacity:1;stroke:none"
       d="m 9.7714844,-30.076172 a 0.125,0.125 0 0 0 -0.15625,0.08008 l -1.3535156,4.166016 a 0.125,0.125 0 0 0 0.080078,0.158203 0.125,0.125 0 0 0 0.15625,-0.08008 l 1.3535156,-4.166016 a 0.125,0.125 0 0 0 -0.080078,-0.158203 z"
       id="path42" />
    <!-- Line -->
    <path
       style="baseline-shift:baseline;display:inline;overflow:visible;vector-effect:none;fill:#000000;stroke-linecap:butt;stroke-linejoin:miter;enable-background:accumulate;stop-color:#000000;stop-opacity:1;opacity:1;stroke:none"
       d="m 26.230469,-36.101562 a 0.125,0.125 0 0 0 -0.175782,0.02734 l -1.763671,2.425782 a 0.125,0.125 0 0 0 0.0293,0.175781 0.125,0.125 0 0 0 0.173829,-0.02734 l 1.763671,-2.427734 a 0.125,0.125 0 0 0 -0.02734,-0.173828 z"
       id="path43" />
    <!-- Line -->
    <path
       style="baseline-shift:baseline;display:inline;overflow:visible;vector-effect:none;fill:#000000;stroke-linecap:butt;stroke-linejoin:miter;enable-background:accumulate;stop-color:#000000;stop-opacity:1;opacity:1;stroke:none"
       d="m 29.859375,-33.162109 a 0.125,0.125 0 0 0 -0.175781,0.0078 l -2.007813,2.230469 a 0.125,0.125 0 0 0 0.0098,0.175781 0.125,0.125 0 0 0 0.175781,-0.0098 l 2.007813,-2.228516 a 0.125,0.125 0 0 0 -0.0098,-0.175781 z"
       id="path44" />
    <!-- Line -->
    <path
       style="baseline-shift:baseline;display:inline;overflow:visible;vector-effect:none;fill:#000000;stroke-linecap:butt;stroke-linejoin:miter;enable-background:accumulate;stop-color:#000000;stop-opacity:1;opacity:1;stroke:none"
       d="m 32.986328,-29.869141 -2.228516,2.007813 a 0.125,0.125 0 0 0 -0.0098,0.175781 0.125,0.125 0 0 0 0.175781,0.0098 l 2.230469,-2.007813 a 0.125,0.125 0 0 0 0.0078,-0.175781 0.125,0.125 0 0 0 -0.175781,-0.0098 z"
       id="path45" />
    <!-- Line -->
    <path
       style="baseline-shift:baseline;display:inline;overflow:visible;vector-effect:none;fill:#000000;stroke-linecap:butt;stroke-linejoin:miter;enable-background:accumulate;stop-color:#000000;stop-opacity:1;opacity:1;stroke:none"
       d="M 35.927734,-26.257812 33.5,-24.494141 a 0.125,0.125 0 0 0 -0.02734,0.173829 0.125,0.125 0 0 0 0.175781,0.0293 l 2.425782,-1.763671 a 0.125,0.125 0 0 0 0.02734,-0.175782 0.125,0.125 0 0 0 -0.173828,-0.02734 z"
       id="path46" />
    <!-- Line -->
    <path
       style="baseline-shift:baseline;display:inline;overflow:visible;vector-effect:none;fill:#000000;stroke-linecap:butt;stroke-linejoin:miter;enable-background:accumulate;stop-color:#000000;stop-opacity:1;opacity:1;stroke:none"
       d="m 40.601562,-18.214844 -2.740234,1.220703 a 0.125,0.125 0 0 0 -0.0625,0.166016 0.125,0.125 0 0 0 0.164063,0.0625 l 2.740234,-1.220703 a 0.125,0.125 0 0 0 0.06445,-0.164063 0.125,0.125 0 0 0 -0.166016,-0.06445 z"
       id="path47" />
    <!-- Line -->
    <path
       style="baseline-shift:baseline;display:inline;overflow:visible;vector-effect:none;fill:#000000;stroke-linecap:butt;stroke-linejoin:miter;enable-background:accumulate;stop-color:#000000;stop-opacity:1;opacity:1;stroke:none"
       d="m 42.283203,-13.871094 -2.853516,0.927735 a 0.125,0.125 0 0 0 -0.08008,0.158203 0.125,0.125 0 0 0 0.158203,0.08008 l 2.853516,-0.927735 a 0.125,0.125 0 0 0 0.08008,-0.15625 0.125,0.125 0 0 0 -0.158203,-0.08203 z"
       id="path48" />
    <!-- Line -->
    <path
       style="baseline-shift:baseline;display:inline;overflow:visible;vector-effect:none;fill:#000000;stroke-linecap:butt;stroke-linejoin:miter;enable-background:accumulate;stop-color:#000000;stop-opacity:1;opacity:1;stroke:none"
       d="m 43.501953,-9.375 -2.935547,0.625 a 0.125,0.125 0 0 0 -0.0957,0.1484375 0.125,0.125 0 0 0 0.148438,0.095703 l 2.933593,-0.6230469 A 0.125,0.125 0 0 0 43.650391,-9.2773438 0.125,0.125 0 0 0 43.501953,-9.375 Z"
       id="path49" />
    <!-- Line -->
    <path
       style="baseline-shift:baseline;display:inline;overflow:visible;vector-effect:none;fill:#000000;stroke-linecap:butt;stroke-linejoin:miter;enable-background:accumulate;stop-color:#000000;stop-opacity:1;opacity:1;stroke:none"
       d="m 44.242187,-4.7753906 -2.982421,0.3125 a 0.125,0.125 0 0 0 -0.111329,0.1386719 0.125,0.125 0 0 0 0.136719,0.1113281 l 2.984375,-0.3144531 a 0.125,0.125 0 0 0 0.111328,-0.1367188 0.125,0.125 0 0 0 -0.138672,-0.1113281 z"
       id="path50" />
    <!-- Line -->
    <path
       style="baseline-shift:baseline;display:inline;overflow:visible;vector-effect:none;fill:#000000;stroke-linecap:butt;stroke-linejoin:miter;enable-background:accumulate;stop-color:#000000;stop-opacity:1;opacity:1;stroke:none"
       d="M 26.550781,5.515625 A 0.125,0.125 0 0 0 26.404297,5.6113281 0.125,0.125 0 0 0 26.5,5.7597656 l 4.283203,0.9121094 a 0.125,0.125 0 0 0 0.148438,-0.097656 0.125,0.125 0 0 0 -0.0957,-0.1484375 z"
       id="path51" />
    <!-- Line -->
    <path
       style="baseline-shift:baseline;display:inline;overflow:visible;vector-effect:none;fill:#000000;stroke-linecap:butt;stroke-linejoin:miter;enable-background:accumulate;stop-color:#000000;stop-opacity:1;opacity:1;stroke:none"
       d="m 24.037109,7.6796875 a 0.125,0.125 0 0 0 -0.15625,0.080078 0.125,0.125 0 0 0 0.08008,0.15625 l 3.269532,1.0625 a 0.125,0.125 0 0 0 0.158203,-0.080078 0.125,0.125 0 0 0 -0.08008,-0.15625 z"
       id="path52" />
    <!-- Line -->
    <path
       style="baseline-shift:baseline;display:inline;overflow:visible;vector-effect:none;fill:#000000;stroke-linecap:butt;stroke-linejoin:miter;enable-background:accumulate;stop-color:#000000;stop-opacity:1;opacity:1;stroke:none"
       d="m 22.242187,9.765625 a 0.125,0.125 0 0 0 -0.166015,0.064453 0.125,0.125 0 0 0 0.06445,0.1640625 l 2.826172,1.2597654 a 0.125,0.125 0 0 0 0.166015,-0.06445 0.125,0.125 0 0 0 -0.06445,-0.164062 z"
       id="path53" />
    <!-- Line -->
    <path
       style="baseline-shift:baseline;display:inline;overflow:visible;vector-effect:none;fill:#000000;stroke-linecap:butt;stroke-linejoin:miter;enable-background:accumulate;stop-color:#000000;stop-opacity:1;opacity:1;stroke:none"
       d="m 19.724609,14.175781 a 0.125,0.125 0 0 0 -0.173828,0.0293 0.125,0.125 0 0 0 0.02734,0.173828 l 2.503906,1.81836 a 0.125,0.125 0 0 0 0.173828,-0.02734 0.125,0.125 0 0 0 -0.02734,-0.173828 z"
       id="path54" />
    <!-- Line -->
    <path
       style="baseline-shift:baseline;display:inline;overflow:visible;vector-effect:none;fill:#000000;stroke-linecap:butt;stroke-linejoin:miter;enable-background:accumulate;stop-color:#000000;stop-opacity:1;opacity:1;stroke:none"
       d="m 18.835937,16.792969 a 0.125,0.125 0 0 0 -0.175781,0.0078 0.125,0.125 0 0 0 0.0098,0.177735 l 2.554687,2.300781 a 0.125,0.125 0 0 0 0.175782,-0.0098 0.125,0.125 0 0 0 -0.0078,-0.175781 z"
       id="path55" />
    <!-- Line -->
    <path
       style="baseline-shift:baseline;display:inline;overflow:visible;vector-effect:none;fill:#000000;stroke-linecap:butt;stroke-linejoin:miter;enable-background:accumulate;stop-color:#000000;stop-opacity:1;opacity:1;stroke:none"
       d="m 18.0625,20.060547 a 0.125,0.125 0 0 0 -0.0098,0.175781 l 2.931641,3.255859 a 0.125,0.125 0 0 0 0.175781,0.0078 0.125,0.125 0 0 0 0.0098,-0.175781 l -2.931641,-3.25586 a 0.125,0.125 0 0 0 -0.175781,-0.0078 z"
       id="path56" />
    <!-- Line -->
    <path
       style="baseline-shift:baseline;display:inline;overflow:visible;vector-effect:none;fill:#000000;stroke-linecap:butt;stroke-linejoin:miter;enable-background:accumulate;stop-color:#000000;stop-opacity:1;opacity:1;stroke:none"
       d="m 16.828125,37.798828 a 0.125,0.125 0 0 0 -0.0625,0.164063 l 1.220703,2.740234 a 0.125,0.125 0 0 0 0.164063,0.06445 0.125,0.125 0 0 0 0.06445,-0.166016 l -1.220703,-2.740234 a 0.125,0.125 0 0 0 -0.166016,-0.0625 z"
       id="path57" />
    <!-- Line -->
    <path
       style="baseline-shift:baseline;display:inline;overflow:visible;vector-effect:none;fill:#000000;stroke-linecap:butt;stroke-linejoin:miter;enable-background:accumulate;stop-color:#000000;stop-opacity:1;opacity:1;stroke:none"
       d="m 12.785156,39.349609 a 0.125,0.125 0 0 0 -0.08008,0.158203 l 0.927735,2.853516 a 0.125,0.125 0 0 0 0.15625,0.08008 0.125,0.125 0 0 0 0.08203,-0.158203 l -0.927735,-2.853516 a 0.125,0.125 0 0 0 -0.158203,-0.08008 z"
       id="path58" />
    <!-- Line -->
    <path
       style="baseline-shift:baseline;display:inline;overflow:visible;vector-effect:none;fill:#000000;stroke-linecap:butt;stroke-linejoin:miter;enable-background:accumulate;stop-color:#000000;stop-opacity:1;opacity:1;stroke:none"
       d="m 8.6015625,40.470703 a 0.125,0.125 0 0 0 -0.095703,0.148438 l 0.6230469,2.933593 A 0.125,0.125 0 0 0 9.2773438,43.650391 0.125,0.125 0 0 0 9.375,43.501953 L 8.75,40.566406 a 0.125,0.125 0 0 0 -0.1484375,-0.0957 z"
       id="path59" />
    <!-- Line -->
    <path
       style="baseline-shift:baseline;display:inline;overflow:visible;vector-effect:none;fill:#000000;stroke-linecap:butt;stroke-linejoin:miter;enable-background:accumulate;stop-color:#000000;stop-opacity:1;opacity:1;stroke:none"
       d="m 4.3242187,41.148437 a 0.125,0.125 0 0 0 -0.1113281,0.136719 l 0.3144531,2.984375 a 0.125,0.125 0 0 0 0.1367188,0.111328 0.125,0.125 0 0 0 0.1113281,-0.138672 l -0.3125,-2.982421 A 0.125,0.125 0 0 0 4.3242187,41.148437 Z"
       id="path60" />
    <!-- Circle -->
    <path
       style="baseline-shift:baseline;display:inline;overflow:visible;vector-effect:none;fill:#000000;stroke-linecap:butt;stroke-linejoin:miter;enable-background:accumulate;stop-color:#000000;stop-opacity:1;opacity:1;stroke:none"
       d="m 0,-6.25 c -3.4488185,0 -6.25,2.8011815 -6.25,6.25 0,3.4488185 2.8011815,6.25 6.25,6.25 C 3.4488185,6.25 6.25,3.4488185 6.25,0 6.25,-3.4488185 3.4488185,-6.25 0,-6.25 Z m 0,0.5 c 3.1785985,0 5.75,2.5714015 5.75,5.75 0,3.1785985 -2.5714015,5.75 -5.75,5.75 -3.1785985,0 -5.75,-2.5714015 -5.75,-5.75 0,-3.1785985 2.5714015,-5.75 5.75,-5.75 z"
       id="circle60" />
    <!-- Text: 12 -->
    <g
       id="g61"
       style="fill:#000000;stroke:none">
      <path
         d="M-3.0416,36.3474 C-2.9799,36.2233 -2.8997,36.1233 -2.801,36.0474 C-2.7024,35.9714 -2.6049,35.8941 -2.5086,35.8155 C-2.3906,35.5951 -2.3176,35.3496 -2.2894,35.0791 C-2.2613,34.8085 -2.2303,34.5128 -2.1964,34.1921 C-2.1964,33.9324 -2.2133,33.6885 -2.2472,33.4603 C-2.2811,33.2321 -2.3247,33.0095 -2.3779,32.7925 C-2.4311,32.5755 -2.4917,32.3599 -2.5595,32.1456 C-2.6273,31.9313 -2.692,31.7059 -2.7538,31.4692 C-2.8331,31.3845 -2.8938,31.2646 -2.9358,31.1097 C-2.9779,30.9547 -2.9823,30.804 -2.949,30.6576 C-3.0223,30.5674 -3.0955,30.4801 -3.1687,30.3956 C-3.242,30.3112 -3.3237,30.232 -3.4139,30.1581 C-3.4478,30.192 -3.4915,30.2105 -3.5451,30.2136 C-3.5987,30.2166 -3.6536,30.2166 -3.7099,30.2136 C-3.7661,30.2105 -3.8182,30.2048 -3.866,30.1963 C-3.9138,30.1878 -3.9489,30.1866 -3.9713,30.1927 C-3.9997,30.2375 -4.0379,30.2853 -4.0857,30.3361 C-4.1335,30.387 -4.1757,30.4406 -4.2123,30.4968 C-4.2489,30.5531 -4.2773,30.6081 -4.2973,30.6616 C-4.3173,30.7152 -4.313,30.7674 -4.2845,30.8183 C-4.2845,30.88 -4.3185,30.9108 -4.3863,30.9108 C-4.3693,31.1705 -4.3269,31.4258 -4.2591,31.6767 C-4.1913,31.9276 -4.1152,32.1728 -4.0308,32.4121 C-3.9463,32.6515 -3.8633,32.8895 -3.7816,33.1261 C-3.6999,33.3628 -3.6378,33.5967 -3.5954,33.828 C-3.5531,34.0592 -3.5417,34.2904 -3.5614,34.5217 C-3.581,34.7529 -3.6475,34.9868 -3.7607,35.2235 C-3.7607,35.3021 -3.7621,35.3683 -3.7648,35.4218 C-3.7675,35.4754 -3.7702,35.5234 -3.7729,35.5658 C-3.7756,35.6081 -3.7799,35.649 -3.7856,35.6883 C-3.7914,35.7277 -3.8028,35.77 -3.8197,35.8155 C-3.7912,35.8941 -3.77,35.9672 -3.7561,36.0347 C-3.7422,36.1021 -3.7438,36.1643 -3.7607,36.2213 C-3.7546,36.2606 -3.7431,36.293 -3.7261,36.3184 C-3.7092,36.3439 -3.6895,36.3691 -3.6671,36.3942 C-3.6448,36.4193 -3.6237,36.4446 -3.6041,36.47 C-3.5844,36.4954 -3.5715,36.5278 -3.5654,36.5671 L-3.3803,36.5671 C-3.3179,36.517 -3.2642,36.4707 -3.2191,36.4283 C-3.174,36.3859 -3.1148,36.359 -3.0416,36.3474 M4.1791,31.6971 C4.314,31.6299 4.383,31.5455 4.3861,31.4438 C4.3891,31.3421 4.3581,31.2477 4.293,31.1605 C4.2279,31.0734 4.1433,31.0073 4.0392,30.9622 C3.9351,30.9171 3.8407,30.92 3.7559,30.9708 C3.7444,30.9254 3.7203,30.8956 3.6837,30.8813 C3.6471,30.8671 3.6234,30.8403 3.6125,30.801 C3.0653,30.7169 2.5071,30.6128 1.9378,30.4887 C1.3685,30.3646 0.7995,30.2714 0.2305,30.209 C-0.2095,30.2259 -0.5761,30.291 -0.869,30.4043 C-0.987,30.5053 -1.0756,30.632 -1.135,30.7842 C-1.1943,30.9364 -1.2296,31.0971 -1.2408,31.2663 C-1.2519,31.4355 -1.2464,31.6004 -1.224,31.7611 C-1.2016,31.9219 -1.1677,32.0612 -1.1223,32.1792 C-0.8293,32.5515 -0.5237,32.9081 -0.2053,33.2492 C0.1131,33.5903 0.4753,33.8931 0.8815,34.1575 C0.9995,34.304 1.1375,34.4294 1.2955,34.5339 C1.4535,34.6383 1.5972,34.7553 1.7267,34.8848 C1.5579,34.9472 1.3804,34.9784 1.1943,34.9784 C1.0081,34.9784 0.8249,34.9628 0.6445,34.9316 C0.4641,34.9004 0.2951,34.8622 0.1375,34.8171 C-0.0202,34.7721 -0.1584,34.7383 -0.277,34.7159 C-0.3672,34.7607 -0.4728,34.786 -0.5939,34.7917 C-0.7149,34.7975 -0.8347,34.82 -0.9534,34.8594 C-1.0212,34.9156 -1.0678,34.9889 -1.0933,35.0791 C-1.1187,35.1692 -1.1341,35.2623 -1.1396,35.3583 C-1.145,35.4542 -1.1477,35.5459 -1.1477,35.6334 C-1.1477,35.7209 -1.1589,35.7927 -1.1813,35.849 C-1.1365,35.9223 -1.0958,35.9955 -1.0592,36.0687 C-1.0226,36.142 -0.9788,36.2094 -0.928,36.2711 C-0.6629,36.3451 -0.3697,36.4059 -0.0487,36.4537 C0.2724,36.5015 0.5965,36.5225 0.9237,36.5168 C1.2509,36.511 1.5665,36.4702 1.8707,36.3942 C2.1748,36.3183 2.4452,36.1928 2.6818,36.0179 C2.7103,35.8599 2.7697,35.7344 2.8598,35.6415 C2.95,35.5486 3.0599,35.4768 3.1894,35.4259 C3.2518,35.3133 3.3055,35.1992 3.3506,35.0836 C3.3957,34.968 3.4267,34.8455 3.4437,34.7159 C3.3304,34.4169 3.1709,34.1646 2.9651,33.9592 C2.7593,33.7537 2.5523,33.5662 2.3441,33.3967 C2.2316,33.3011 2.1104,33.2194 1.9805,33.1516 C1.8507,33.0838 1.7379,33.0048 1.6423,32.9146 C1.6199,32.8922 1.6059,32.8627 1.6001,32.8261 C1.5943,32.7895 1.5803,32.7627 1.5579,32.7457 C1.4562,32.6556 1.3433,32.5752 1.2192,32.5047 C1.0951,32.4342 0.9825,32.3538 0.8815,32.2636 C0.8083,32.2019 0.7476,32.1344 0.6994,32.0612 C0.6513,31.988 0.5879,31.9232 0.5092,31.8669 C0.6109,31.833 0.7111,31.8188 0.8098,31.8242 C0.9085,31.8296 1.0098,31.8408 1.1139,31.8578 C1.218,31.8747 1.325,31.8917 1.4348,31.9086 C1.5447,31.9256 1.6589,31.9313 1.7776,31.9259 C1.941,31.9822 2.1214,32.0315 2.3187,32.0739 C2.516,32.1163 2.7134,32.1317 2.9107,32.1202 C3.0795,32.188 3.2414,32.2373 3.3964,32.2682 C3.5513,32.299 3.6993,32.306 3.8404,32.289 C3.9136,32.2612 3.9685,32.2107 4.0051,32.1375 C4.0418,32.0643 4.0997,32.0134 4.1791,31.9849 C4.1621,31.9232 4.1579,31.8781 4.1664,31.8496 C4.1748,31.8212 4.1791,31.7703 4.1791,31.6971"
         style="fill:#000000;fill-rule:evenodd;stroke:none"
         id="path61" />
    </g>
    <!-- Text: 11 -->
    <g
       id="g62"
       style="fill:#000000;stroke:none">
      <path
         d="M-16.7365,31.4574 C-16.6748,31.3333 -16.5946,31.2332 -16.4959,31.1573 C-16.3973,31.0814 -16.2998,31.0041 -16.2035,30.9254 C-16.0855,30.705 -16.0125,30.4595 -15.9843,30.189 C-15.9562,29.9184 -15.9252,29.6228 -15.8913,29.302 C-15.8913,29.0423 -15.9082,28.7984 -15.9421,28.5702 C-15.976,28.342 -16.0196,28.1194 -16.0728,27.9025 C-16.126,27.6855 -16.1866,27.4698 -16.2544,27.2556 C-16.3222,27.0413 -16.3869,26.8158 -16.4486,26.5792 C-16.528,26.4944 -16.5887,26.3745 -16.6307,26.2196 C-16.6728,26.0647 -16.6772,25.9139 -16.6439,25.7675 C-16.7172,25.6773 -16.7904,25.59 -16.8636,25.5056 C-16.9369,25.4211 -17.0186,25.342 -17.1088,25.2681 C-17.1427,25.302 -17.1864,25.3204 -17.24,25.3235 C-17.2936,25.3265 -17.3485,25.3265 -17.4048,25.3235 C-17.461,25.3204 -17.5131,25.3147 -17.5609,25.3062 C-17.6087,25.2977 -17.6438,25.2965 -17.6662,25.3026 C-17.6946,25.3474 -17.7328,25.3952 -17.7806,25.4461 C-17.8284,25.4969 -17.8706,25.5505 -17.9072,25.6068 C-17.9438,25.6631 -17.9722,25.718 -17.9922,25.7715 C-18.0122,25.8251 -18.0079,25.8773 -17.9794,25.9282 C-17.9794,25.9899 -18.0133,26.0207 -18.0812,26.0207 C-18.0642,26.2805 -18.0218,26.5358 -17.954,26.7867 C-17.8862,27.0375 -17.8101,27.2827 -17.7257,27.522 C-17.6412,27.7614 -17.5582,27.9994 -17.4765,28.2361 C-17.3948,28.4727 -17.3327,28.7067 -17.2903,28.9379 C-17.2479,29.1691 -17.2366,29.4004 -17.2563,29.6316 C-17.2759,29.8628 -17.3424,30.0968 -17.4556,30.3334 C-17.4556,30.4121 -17.457,30.4782 -17.4597,30.5318 C-17.4624,30.5853 -17.4651,30.6333 -17.4678,30.6757 C-17.4705,30.7181 -17.4748,30.7589 -17.4805,30.7983 C-17.4863,30.8376 -17.4977,30.88 -17.5146,30.9254 C-17.4861,31.0041 -17.4649,31.0771 -17.451,31.1446 C-17.4371,31.2121 -17.4387,31.2743 -17.4556,31.3312 C-17.4495,31.3706 -17.438,31.4029 -17.421,31.4284 C-17.4041,31.4538 -17.3844,31.4791 -17.362,31.5041 C-17.3397,31.5292 -17.3186,31.5545 -17.299,31.5799 C-17.2793,31.6054 -17.2664,31.6377 -17.2603,31.6771 L-17.0752,31.6771 C-17.0128,31.6269 -16.9591,31.5806 -16.914,31.5382 C-16.8689,31.4958 -16.8097,31.4689 -16.7365,31.4574 M-13.9465,31.4574 C-13.8848,31.3333 -13.8046,31.2332 -13.7059,31.1573 C-13.6073,31.0814 -13.5098,31.0041 -13.4135,30.9254 C-13.2955,30.705 -13.2225,30.4595 -13.1943,30.189 C-13.1662,29.9184 -13.1351,29.6228 -13.1012,29.302 C-13.1012,29.0423 -13.1182,28.7984 -13.1521,28.5702 C-13.186,28.342 -13.2296,28.1194 -13.2828,27.9025 C-13.336,27.6855 -13.3966,27.4698 -13.4644,27.2556 C-13.5322,27.0413 -13.5969,26.8158 -13.6586,26.5792 C-13.738,26.4944 -13.7987,26.3745 -13.8407,26.2196 C-13.8827,26.0647 -13.8872,25.9139 -13.8539,25.7675 C-13.9272,25.6773 -14.0004,25.59 -14.0736,25.5056 C-14.1469,25.4211 -14.2286,25.342 -14.3188,25.2681 C-14.3527,25.302 -14.3964,25.3204 -14.45,25.3235 C-14.5035,25.3265 -14.5585,25.3265 -14.6147,25.3235 C-14.671,25.3204 -14.7231,25.3147 -14.7709,25.3062 C-14.8187,25.2977 -14.8538,25.2965 -14.8761,25.3026 C-14.9046,25.3474 -14.9428,25.3952 -14.9906,25.4461 C-15.0384,25.4969 -15.0806,25.5505 -15.1172,25.6068 C-15.1538,25.6631 -15.1821,25.718 -15.2021,25.7715 C-15.2221,25.8251 -15.2179,25.8773 -15.1894,25.9282 C-15.1894,25.9899 -15.2233,26.0207 -15.2911,26.0207 C-15.2742,26.2805 -15.2318,26.5358 -15.164,26.7867 C-15.0962,27.0375 -15.0201,27.2827 -14.9357,27.522 C-14.8512,27.7614 -14.7682,27.9994 -14.6865,28.2361 C-14.6047,28.4727 -14.5427,28.7067 -14.5003,28.9379 C-14.4579,29.1691 -14.4466,29.4004 -14.4662,29.6316 C-14.4859,29.8628 -14.5524,30.0968 -14.6656,30.3334 C-14.6656,30.4121 -14.667,30.4782 -14.6697,30.5318 C-14.6724,30.5853 -14.6751,30.6333 -14.6778,30.6757 C-14.6805,30.7181 -14.6848,30.7589 -14.6905,30.7983 C-14.6963,30.8376 -14.7076,30.88 -14.7246,30.9254 C-14.6961,31.0041 -14.6749,31.0771 -14.661,31.1446 C-14.6471,31.2121 -14.6486,31.2743 -14.6656,31.3312 C-14.6595,31.3706 -14.648,31.4029 -14.631,31.4284 C-14.6141,31.4538 -14.5944,31.4791 -14.572,31.5041 C-14.5496,31.5292 -14.5286,31.5545 -14.509,31.5799 C-14.4893,31.6054 -14.4764,31.6377 -14.4703,31.6771 L-14.2852,31.6771 C-14.2228,31.6269 -14.1691,31.5806 -14.124,31.5382 C-14.0789,31.4958 -14.0197,31.4689 -13.9465,31.4574"
         style="fill:#000000;fill-rule:evenodd;stroke:none"
         id="path62" />
    </g>
    <!-- Text: 9 -->
    <g
       id="g63"
       style="fill:#000000;stroke:none">
      <path
         d="M-32.1965,1.9239 C-32.208,1.8731 -32.208,1.8237 -32.1965,1.7759 C-32.185,1.7281 -32.1736,1.683 -32.1624,1.6406 C-32.1512,1.5983 -32.14,1.5532 -32.1288,1.5054 C-32.1177,1.4576 -32.1148,1.4082 -32.1202,1.3574 C-32.0978,1.3011 -32.0683,1.2504 -32.0317,1.2053 C-31.9951,1.1602 -31.9612,1.1165 -31.93,1.0741 C-31.8988,1.0317 -31.8734,0.9851 -31.8537,0.9342 C-31.834,0.8834 -31.8269,0.8213 -31.8323,0.7481 C-31.8832,0.6864 -31.9227,0.6288 -31.9508,0.5752 C-31.979,0.5216 -32.0129,0.4736 -32.0526,0.4313 C-32.0922,0.3889 -32.1373,0.3507 -32.1878,0.3168 C-32.2384,0.2829 -32.2836,0.2463 -32.3236,0.207 C-32.3684,0.0775 -32.4119,-0.0281 -32.4543,-0.1099 C-32.4967,-0.1916 -32.5403,-0.2972 -32.585,-0.4267 C-32.5966,-0.5732 -32.6135,-0.7071 -32.6359,-0.8285 C-32.6583,-0.9498 -32.6837,-1.0683 -32.7122,-1.184 C-32.7407,-1.2996 -32.769,-1.4165 -32.7971,-1.5349 C-32.8252,-1.6532 -32.8505,-1.7798 -32.8729,-1.9148 C-32.8783,-2.1514 -32.9163,-2.3755 -32.9868,-2.5871 C-33.0573,-2.7987 -33.1573,-3.0001 -33.2869,-3.1913 C-33.3886,-3.1804 -33.4803,-3.182 -33.562,-3.1959 C-33.6437,-3.2098 -33.7354,-3.2252 -33.8371,-3.2421 C-33.8819,-3.1974 -33.9212,-3.1538 -33.9551,-3.1114 C-33.989,-3.069 -34.0284,-3.0309 -34.0731,-2.997 C-34.0677,-2.7156 -34.0523,-2.4606 -34.0268,-2.2321 C-34.0014,-2.0036 -33.9675,-1.7795 -33.9251,-1.5598 C-33.8827,-1.3401 -33.8334,-1.1133 -33.7771,-0.8793 C-33.7208,-0.6454 -33.6618,-0.3819 -33.6001,-0.089 C-33.6788,-0.0829 -33.7703,-0.087 -33.8748,-0.1012 C-33.9792,-0.1154 -34.0892,-0.1324 -34.2048,-0.1521 C-34.3204,-0.1717 -34.4359,-0.1943 -34.5512,-0.2197 C-34.6664,-0.2451 -34.7749,-0.2663 -34.8766,-0.2833 C-34.9384,-0.2778 -35.0018,-0.2751 -35.0669,-0.2751 C-35.1319,-0.2751 -35.1926,-0.2723 -35.2489,-0.2665 C-35.3052,-0.2607 -35.3572,-0.248 -35.405,-0.2283 C-35.4529,-0.2087 -35.4937,-0.1761 -35.5276,-0.1307 C-35.6178,-0.1538 -35.6939,-0.1497 -35.756,-0.1185 C-35.818,-0.0873 -35.8716,-0.0449 -35.9167,0.0086 C-35.9618,0.0622 -35.9997,0.1227 -36.0306,0.1902 C-36.0614,0.2577 -36.0938,0.3196 -36.1277,0.3758 C-36.1562,0.5623 -36.1633,0.7288 -36.1491,0.8752 C-36.1348,1.0217 -36.1067,1.157 -36.0647,1.2811 C-36.0226,1.4052 -35.9691,1.525 -35.904,1.6406 C-35.8389,1.7563 -35.7727,1.8758 -35.7056,1.9992 C-35.5585,2.1463 -35.3962,2.2959 -35.2189,2.4477 C-35.0416,2.5996 -34.8487,2.7349 -34.6402,2.8536 C-34.4316,2.9723 -34.2089,3.0653 -33.9719,3.1328 C-33.7349,3.2003 -33.4811,3.2228 -33.2106,3.2004 C-32.9854,3.037 -32.7968,2.8426 -32.6445,2.6171 C-32.4923,2.3916 -32.343,2.1606 -32.1965,1.9239 M-33.3123,1.4835 C-33.3069,1.5906 -33.3352,1.6654 -33.3972,1.7078 C-33.4593,1.7502 -33.5354,1.7798 -33.6256,1.7968 C-33.7666,1.7405 -33.9032,1.6856 -34.0355,1.632 C-34.1677,1.5784 -34.282,1.5038 -34.3782,1.4082 C-34.3945,1.3913 -34.4154,1.3799 -34.4408,1.3742 C-34.4662,1.3684 -34.4903,1.3613 -34.513,1.3528 C-34.5357,1.3443 -34.5527,1.3289 -34.5639,1.3065 C-34.5751,1.2841 -34.5749,1.2529 -34.5634,1.2129 C-34.3267,1.2021 -34.1097,1.2277 -33.9124,1.2897 C-33.7151,1.3518 -33.515,1.4164 -33.3123,1.4835"
         style="fill:#000000;fill-rule:evenodd;stroke:none"
         id="path63" />
    </g>
    <!-- Text: 8 -->
    <g
       id="g64"
       style="fill:#000000;stroke:none">
      <path
         d="M-27.1793,-11.9763 C-27.0552,-12.0665 -26.9552,-12.175 -26.8792,-12.3018 C-26.8033,-12.4286 -26.7427,-12.5639 -26.6977,-12.7076 C-26.6526,-12.8514 -26.6173,-13.0007 -26.5919,-13.1557 C-26.5664,-13.3106 -26.5453,-13.4586 -26.5283,-13.5996 C-26.5846,-13.797 -26.6804,-13.9858 -26.8156,-14.1662 C-26.9509,-14.3466 -27.1118,-14.4903 -27.2983,-14.5975 C-27.4671,-14.727 -27.6178,-14.8439 -27.7504,-14.9484 C-27.883,-15.0528 -28.0394,-15.1216 -28.2198,-15.1548 C-28.2646,-15.2003 -28.3081,-15.2413 -28.3505,-15.2779 C-28.3929,-15.3145 -28.431,-15.361 -28.4649,-15.4173 C-28.3686,-15.6763 -28.2698,-15.9328 -28.1684,-16.1867 C-28.0671,-16.4407 -27.9994,-16.7195 -27.9655,-17.0233 C-28.0333,-17.0633 -28.0701,-17.1227 -28.0759,-17.2013 C-28.0816,-17.28 -28.0845,-17.3644 -28.0845,-17.4546 C-28.1517,-17.5339 -28.2022,-17.6172 -28.2361,-17.7043 C-28.27,-17.7914 -28.3236,-17.8662 -28.3968,-17.9286 C-28.4137,-17.9401 -28.432,-17.9416 -28.4517,-17.9332 C-28.4714,-17.9247 -28.4897,-17.9259 -28.5066,-17.9367 C-28.5799,-17.9761 -28.6546,-18.0267 -28.7309,-18.0888 C-28.8072,-18.1508 -28.8847,-18.1934 -28.9633,-18.2164 C-29.1098,-18.2558 -29.2578,-18.2725 -29.4073,-18.2668 C-29.5568,-18.261 -29.7006,-18.2385 -29.8386,-18.1991 C-29.9766,-18.1598 -30.1047,-18.1049 -30.2231,-18.0344 C-30.3414,-17.9638 -30.4456,-17.8808 -30.5358,-17.7852 C-30.5982,-17.6719 -30.6491,-17.5548 -30.6884,-17.4337 C-30.7277,-17.3127 -30.7925,-17.2071 -30.8827,-17.1169 C-30.9112,-16.9365 -30.9267,-16.7223 -30.9295,-16.4741 C-30.9322,-16.2259 -30.8942,-15.9808 -30.8155,-15.7387 C-30.7871,-15.66 -30.7503,-15.5897 -30.7052,-15.5276 C-30.6601,-15.4656 -30.6403,-15.3949 -30.6457,-15.3156 C-30.6179,-15.3101 -30.5969,-15.2989 -30.5826,-15.282 C-30.5684,-15.265 -30.5474,-15.2511 -30.5196,-15.2403 C-30.5026,-15.1949 -30.504,-15.1637 -30.5236,-15.1467 C-30.5433,-15.1298 -30.5474,-15.1016 -30.5358,-15.0623 C-30.6206,-14.9436 -30.7038,-14.8209 -30.7855,-14.6941 C-30.8672,-14.5673 -30.9362,-14.4362 -30.9925,-14.301 C-31.0488,-14.1657 -31.0827,-14.0219 -31.0942,-13.8697 C-31.1058,-13.7175 -31.0803,-13.5542 -31.018,-13.3799 C-31.018,-13.2952 -30.9996,-13.1992 -30.963,-13.0921 C-30.9264,-12.9849 -30.8771,-12.8807 -30.815,-12.7793 C-30.753,-12.6779 -30.6825,-12.5864 -30.6035,-12.5047 C-30.5245,-12.423 -30.4372,-12.3625 -30.3416,-12.3231 C-30.3416,-12.2838 -30.3317,-12.2599 -30.3121,-12.2514 C-30.2924,-12.2429 -30.2826,-12.2187 -30.2826,-12.1787 C-30.2093,-12.1563 -30.1417,-12.1282 -30.0796,-12.0943 C-30.0176,-12.0604 -29.9542,-12.028 -29.8894,-11.9971 C-29.8247,-11.9663 -29.7542,-11.9381 -29.6779,-11.9127 C-29.6016,-11.8873 -29.5129,-11.8719 -29.4119,-11.8664 C-29.2315,-11.8549 -29.0469,-11.8661 -28.8581,-11.9 C-28.6692,-11.9339 -28.51,-11.9902 -28.3805,-12.0688 C-28.3236,-12.2153 -28.2542,-12.345 -28.1725,-12.4579 C-28.0908,-12.5708 -28.0303,-12.6751 -27.9909,-12.7707 C-27.9801,-12.8554 -27.9689,-12.9302 -27.9574,-12.995 C-27.9459,-13.0597 -27.9401,-13.1231 -27.9401,-13.1852 C-27.9401,-13.2472 -27.9486,-13.3106 -27.9655,-13.3754 C-27.9825,-13.4401 -28.0137,-13.5149 -28.0591,-13.5996 C-27.9459,-13.5712 -27.8513,-13.5259 -27.7753,-13.4639 C-27.6994,-13.4018 -27.6417,-13.3118 -27.6024,-13.1938 C-27.6024,-13.0982 -27.6277,-13.0165 -27.6782,-12.9487 C-27.7287,-12.8809 -27.7682,-12.8046 -27.7967,-12.7198 C-27.7628,-12.7029 -27.7402,-12.6818 -27.729,-12.6568 C-27.7178,-12.6317 -27.7151,-12.605 -27.7209,-12.5769 C-27.7267,-12.5488 -27.7336,-12.5205 -27.7417,-12.492 C-27.7499,-12.4635 -27.754,-12.4354 -27.754,-12.4076 C-27.7207,-12.396 -27.6983,-12.3959 -27.6868,-12.407 C-27.6753,-12.4182 -27.6611,-12.4157 -27.6441,-12.3994 C-27.6556,-12.354 -27.6627,-12.3299 -27.6655,-12.3272 C-27.6682,-12.3245 -27.6726,-12.3062 -27.6787,-12.2723 C-27.6556,-12.2438 -27.6273,-12.2155 -27.5938,-12.1873 C-27.5602,-12.1592 -27.5292,-12.1621 -27.5007,-12.196 C-27.5346,-12.1397 -27.5361,-12.0861 -27.5053,-12.0353 C-27.4744,-11.9844 -27.4336,-11.9451 -27.3827,-11.9173 C-27.3542,-11.9281 -27.3246,-11.9393 -27.2937,-11.9509 C-27.2628,-11.9624 -27.2247,-11.9709 -27.1793,-11.9763 M-29.183,-16.7955 C-29.183,-16.7562 -29.1746,-16.7267 -29.1576,-16.707 C-29.1407,-16.6873 -29.1268,-16.6633 -29.1159,-16.6348 C-29.1837,-16.4937 -29.25,-16.3739 -29.3148,-16.2752 C-29.3795,-16.1766 -29.4851,-16.0821 -29.6316,-15.992 C-29.7103,-16.0428 -29.7694,-16.1049 -29.8091,-16.1781 C-29.8488,-16.2513 -29.8713,-16.3261 -29.8767,-16.4024 C-29.8821,-16.4787 -29.8694,-16.5534 -29.8386,-16.6266 C-29.8077,-16.6999 -29.7611,-16.7646 -29.6987,-16.8209 C-29.6424,-16.804 -29.5636,-16.8053 -29.4622,-16.825 C-29.3609,-16.8447 -29.2678,-16.8348 -29.183,-16.7955 M-29.3946,-14.3432 C-29.3098,-14.2984 -29.2224,-14.2591 -29.1322,-14.2252 C-29.042,-14.1913 -28.9518,-14.1574 -28.8616,-14.1235 C-28.7714,-14.0896 -28.6841,-14.0516 -28.5997,-14.0095 C-28.5153,-13.9675 -28.4422,-13.9126 -28.3805,-13.8448 C-28.5941,-13.8448 -28.7701,-13.8082 -28.9084,-13.7349 C-29.0467,-13.6617 -29.1129,-13.5322 -29.1067,-13.3464 C-29.1861,-13.3064 -29.2708,-13.2879 -29.361,-13.2909 C-29.4512,-13.294 -29.5329,-13.3138 -29.6062,-13.3504 C-29.6794,-13.3871 -29.733,-13.4377 -29.7669,-13.5025 C-29.8008,-13.5673 -29.8035,-13.639 -29.775,-13.7176 C-29.7865,-13.7461 -29.8064,-13.7617 -29.8345,-13.7644 C-29.8627,-13.7671 -29.8767,-13.7881 -29.8767,-13.8275 C-29.792,-13.9068 -29.7172,-13.9943 -29.6524,-14.0899 C-29.5877,-14.1855 -29.5017,-14.2699 -29.3946,-14.3432"
         style="fill:#000000;fill-rule:evenodd;stroke:none"
         id="path64" />
    </g>
    <!-- Text: 7 -->
    <g
       id="g65"
       style="fill:#000000;stroke:none">
      <path
         d="M-15.5834,-28.3714 C-15.5773,-28.3998 -15.5883,-28.4239 -15.6164,-28.4436 C-15.6446,-28.4632 -15.6714,-28.4815 -15.6968,-28.4985 C-15.7222,-28.5155 -15.742,-28.5338 -15.7563,-28.5534 C-15.7705,-28.5731 -15.7607,-28.5941 -15.7268,-28.6165 C-15.6875,-28.6056 -15.6622,-28.61 -15.651,-28.6297 C-15.6398,-28.6494 -15.62,-28.6534 -15.5915,-28.6419 C-15.5969,-28.6534 -15.6068,-28.6746 -15.621,-28.7055 C-15.6352,-28.7363 -15.6254,-28.7518 -15.5915,-28.7518 C-15.6085,-28.808 -15.6366,-28.8545 -15.6759,-28.8911 C-15.7153,-28.9277 -15.7561,-28.9616 -15.7985,-28.9928 C-15.8409,-29.024 -15.8846,-29.055 -15.9297,-29.0859 C-15.9748,-29.1167 -16.0116,-29.1549 -16.0401,-29.2003 C-16.2367,-29.2281 -16.3788,-29.2491 -16.4662,-29.2634 C-16.5537,-29.2776 -16.6327,-29.2917 -16.7032,-29.3056 C-16.7738,-29.3195 -16.8541,-29.3336 -16.9443,-29.3478 C-17.0345,-29.362 -17.1755,-29.3861 -17.3674,-29.42 C-17.3952,-29.4539 -17.4247,-29.4821 -17.4559,-29.5044 C-17.4871,-29.5268 -17.5181,-29.5536 -17.549,-29.5848 C-17.5798,-29.616 -17.6051,-29.6513 -17.6248,-29.6906 C-17.6444,-29.7299 -17.6543,-29.7777 -17.6543,-29.834 C-17.7221,-29.8794 -17.7799,-29.9359 -17.8277,-30.0034 C-17.8755,-30.0708 -17.9206,-30.1412 -17.963,-30.2144 C-18.0053,-30.2876 -18.0491,-30.3609 -18.0942,-30.4341 C-18.1393,-30.5073 -18.19,-30.5752 -18.2462,-30.6375 C-18.2408,-30.6653 -18.2296,-30.6864 -18.2127,-30.7006 C-18.1957,-30.7148 -18.19,-30.7389 -18.1954,-30.7728 C-18.2632,-30.8067 -18.3125,-30.8645 -18.3434,-30.9462 C-18.3742,-31.028 -18.4039,-31.111 -18.4324,-31.1954 C-18.4609,-31.2799 -18.5004,-31.3573 -18.5509,-31.4279 C-18.6014,-31.4984 -18.6829,-31.5364 -18.7955,-31.5418 C-18.8687,-31.5194 -18.9308,-31.504 -18.9816,-31.4955 C-19.0325,-31.487 -19.0818,-31.4828 -19.1296,-31.4828 C-19.1774,-31.4828 -19.2268,-31.4841 -19.2776,-31.4869 C-19.3285,-31.4896 -19.3878,-31.4909 -19.4556,-31.4909 C-19.4556,-31.4462 -19.4626,-31.3984 -19.4765,-31.3475 C-19.4904,-31.2966 -19.4722,-31.26 -19.4221,-31.2377 C-19.4499,-31.1644 -19.5031,-31.1193 -19.5817,-31.1024 C-19.5763,-30.8603 -19.5328,-30.618 -19.451,-30.3756 C-19.3693,-30.1332 -19.2776,-29.9188 -19.1759,-29.7323 C-19.2891,-29.7492 -19.3768,-29.762 -19.4388,-29.7704 C-19.5009,-29.7789 -19.5587,-29.786 -19.6123,-29.7918 C-19.6658,-29.7976 -19.7221,-29.7991 -19.7811,-29.7964 C-19.8401,-29.7937 -19.9204,-29.7923 -20.0222,-29.7923 C-20.0222,-29.7245 -20.0503,-29.685 -20.1066,-29.6738 C-20.1629,-29.6626 -20.208,-29.637 -20.2419,-29.597 C-20.2527,-29.5353 -20.2822,-29.4848 -20.3304,-29.4455 C-20.3785,-29.4061 -20.425,-29.3722 -20.4697,-29.3437 C-20.4697,-29.282 -20.4416,-29.2539 -20.3853,-29.2593 C-20.3968,-29.203 -20.4124,-29.1468 -20.4321,-29.0905 C-20.4517,-29.0342 -20.425,-28.986 -20.3517,-28.946 C-20.3571,-28.9237 -20.3726,-28.9111 -20.398,-28.9084 C-20.4234,-28.9057 -20.425,-28.8816 -20.4026,-28.8362 C-20.3293,-28.6558 -20.2251,-28.5333 -20.0898,-28.4685 C-19.9545,-28.4037 -19.8052,-28.3615 -19.6418,-28.3419 C-19.4783,-28.3222 -19.3091,-28.3081 -19.1342,-28.2996 C-18.9593,-28.2912 -18.7928,-28.2476 -18.6348,-28.1689 C-18.5337,-28.1913 -18.4437,-28.194 -18.3647,-28.1771 C-18.2857,-28.1601 -18.2011,-28.1405 -18.111,-28.1181 C-18.0994,-28.0109 -18.0684,-27.9067 -18.0179,-27.8053 C-17.9674,-27.7039 -17.9279,-27.5997 -17.8994,-27.4925 C-17.894,-27.4356 -17.9053,-27.393 -17.9335,-27.3649 C-17.9616,-27.3368 -17.9672,-27.2861 -17.9503,-27.2128 C-18.0574,-27.1118 -18.1701,-27.0414 -18.2884,-27.0018 C-18.4068,-26.9621 -18.5309,-26.9338 -18.6607,-26.9168 C-18.7906,-26.8999 -18.9259,-26.8887 -19.0666,-26.8833 C-19.2073,-26.8779 -19.3481,-26.8582 -19.4892,-26.8243 C-19.6357,-26.8189 -19.7638,-26.8231 -19.8737,-26.837 C-19.9835,-26.8509 -20.0864,-26.8663 -20.1824,-26.8833 C-20.2783,-26.9002 -20.3727,-26.9116 -20.4656,-26.9174 C-20.5585,-26.9231 -20.6643,-26.9145 -20.783,-26.8914 C-20.766,-26.8582 -20.7589,-26.8289 -20.7616,-26.8034 C-20.7643,-26.778 -20.7728,-26.7539 -20.7871,-26.7312 C-20.8013,-26.7085 -20.8211,-26.6817 -20.8466,-26.6509 C-20.872,-26.62 -20.8959,-26.5819 -20.9183,-26.5364 C-20.9013,-26.4524 -20.8801,-26.3342 -20.8547,-26.182 C-20.8293,-26.0297 -20.825,-25.8889 -20.842,-25.7593 C-20.8026,-25.7532 -20.7774,-25.7446 -20.7662,-25.7334 C-20.755,-25.7222 -20.7479,-25.7081 -20.7448,-25.6912 C-20.7418,-25.6742 -20.7389,-25.6559 -20.7362,-25.6363 C-20.7335,-25.6166 -20.7209,-25.5956 -20.6986,-25.5732 C-20.6423,-25.5732 -20.5929,-25.5478 -20.5506,-25.4969 C-20.5082,-25.4461 -20.4558,-25.4064 -20.3934,-25.3779 C-20.2754,-25.3725 -20.1925,-25.3671 -20.1447,-25.3616 C-20.0969,-25.3562 -20.0574,-25.3493 -20.0262,-25.3408 C-19.995,-25.3323 -19.9611,-25.3223 -19.9245,-25.3108 C-19.8879,-25.2993 -19.8218,-25.285 -19.7262,-25.2681 C-19.7038,-25.2626 -19.6884,-25.2642 -19.6799,-25.2726 C-19.6714,-25.2811 -19.6643,-25.2896 -19.6585,-25.2981 C-19.6528,-25.3065 -19.6457,-25.315 -19.6372,-25.3235 C-19.6287,-25.332 -19.6133,-25.3335 -19.5909,-25.3281 C-19.4838,-25.3165 -19.3936,-25.3094 -19.3203,-25.3067 C-19.2471,-25.304 -19.1781,-25.304 -19.1133,-25.3067 C-19.0486,-25.3094 -18.9865,-25.3179 -18.9272,-25.3321 C-18.8679,-25.3464 -18.7958,-25.3647 -18.7111,-25.3871 C-18.6772,-25.3871 -18.6419,-25.3855 -18.6053,-25.3825 C-18.5687,-25.3794 -18.5349,-25.3779 -18.5041,-25.3779 C-18.4732,-25.3779 -18.448,-25.3837 -18.4283,-25.3952 C-18.4086,-25.4067 -18.393,-25.4322 -18.3815,-25.4715 C-18.2744,-25.46 -18.18,-25.46 -18.0982,-25.4715 C-18.0165,-25.483 -17.9377,-25.5013 -17.8618,-25.5264 C-17.7858,-25.5515 -17.707,-25.5824 -17.6253,-25.619 C-17.5436,-25.6556 -17.4461,-25.6909 -17.3328,-25.7248 C-17.2542,-25.8712 -17.174,-26.0121 -17.0923,-26.1474 C-17.0106,-26.2827 -16.8965,-26.39 -16.75,-26.4693 C-16.7439,-26.4971 -16.7466,-26.5152 -16.7582,-26.5237 C-16.7697,-26.5322 -16.7755,-26.5507 -16.7755,-26.5792 C-16.8202,-26.607 -16.837,-26.6237 -16.8258,-26.6295 C-16.8146,-26.6353 -16.8005,-26.6382 -16.7836,-26.6382 C-16.7666,-26.6382 -16.7497,-26.6395 -16.7327,-26.6422 C-16.7158,-26.6449 -16.7046,-26.6521 -16.6992,-26.6636 C-16.6992,-26.686 -16.7061,-26.7014 -16.72,-26.7099 C-16.7339,-26.7183 -16.7439,-26.731 -16.75,-26.748 C-16.7161,-26.8043 -16.6978,-26.8804 -16.6951,-26.9763 C-16.6924,-27.0723 -16.698,-27.1781 -16.7119,-27.2937 C-16.7258,-27.4093 -16.7399,-27.529 -16.7541,-27.6527 C-16.7683,-27.7765 -16.7697,-27.8919 -16.7582,-27.9991 C-16.6117,-28.0276 -16.5117,-28.046 -16.4581,-28.0545 C-16.4045,-28.063 -16.3594,-28.0672 -16.3228,-28.0672 C-16.2862,-28.0672 -16.2355,-28.0659 -16.1708,-28.0632 C-16.106,-28.0605 -15.9889,-28.0618 -15.8193,-28.0672 C-15.8139,-28.152 -15.7844,-28.2127 -15.7309,-28.2493 C-15.6773,-28.2859 -15.6281,-28.3266 -15.5834,-28.3714"
         style="fill:#000000;fill-rule:evenodd;stroke:none"
         id="path65" />
    </g>
    <!-- Text: 5 -->
    <g
       id="g66"
       style="fill:#000000;stroke:none">
      <path
         d="M20.5066,-25.8519 C20.5405,-25.8967 20.5744,-25.9529 20.6083,-26.0207 C20.6422,-26.0886 20.6449,-26.1506 20.6165,-26.2069 C20.7182,-26.3086 20.7985,-26.4327 20.8575,-26.5792 C20.9165,-26.7256 20.9094,-26.8863 20.8362,-27.0613 C20.7067,-27.106 20.5926,-27.1411 20.4939,-27.1666 C20.3952,-27.192 20.2896,-27.2216 20.1771,-27.2556 C19.9628,-27.2664 19.8289,-27.2747 19.7753,-27.2805 C19.7217,-27.2862 19.6809,-27.292 19.6527,-27.2978 C19.6246,-27.3035 19.581,-27.3134 19.522,-27.3273 C19.463,-27.3412 19.3349,-27.3624 19.1375,-27.3908 C19.1375,-27.3685 19.136,-27.3544 19.133,-27.3486 C19.1299,-27.3429 19.1242,-27.3429 19.1157,-27.3486 C19.1072,-27.3544 19.0987,-27.36 19.0903,-27.3654 C19.0818,-27.3708 19.0691,-27.3708 19.0521,-27.3654 C18.9395,-27.4047 18.827,-27.4342 18.7144,-27.4539 C18.6019,-27.4736 18.4891,-27.4919 18.3762,-27.5088 C18.2633,-27.5258 18.1506,-27.547 18.038,-27.5724 C17.9255,-27.5978 17.8098,-27.6387 17.6912,-27.695 C17.7027,-27.7234 17.7197,-27.7446 17.742,-27.7585 C17.7644,-27.7724 17.7883,-27.7865 17.8137,-27.8007 C17.8392,-27.815 17.8632,-27.8306 17.886,-27.8475 C17.9087,-27.8645 17.9255,-27.8869 17.9363,-27.9147 C18.0943,-27.954 18.2255,-28.0174 18.3299,-28.1049 C18.4344,-28.1923 18.5288,-28.291 18.6132,-28.4009 C18.6976,-28.5107 18.7793,-28.6221 18.8583,-28.735 C18.9373,-28.8479 19.0304,-28.9494 19.1375,-29.0396 C19.1375,-29.0735 19.1459,-29.0989 19.1625,-29.1159 C19.1791,-29.1329 19.182,-29.1637 19.1711,-29.2085 C19.2721,-29.338 19.351,-29.4929 19.4076,-29.6733 C19.4642,-29.8537 19.4756,-30.0622 19.4417,-30.2988 C19.3684,-30.4792 19.2811,-30.6328 19.1798,-30.7596 C19.0784,-30.8864 18.9456,-31.0176 18.7815,-31.1532 C18.652,-31.2095 18.5254,-31.2531 18.4016,-31.2839 C18.2779,-31.3148 18.1679,-31.3614 18.0716,-31.4238 C18.0268,-31.3953 17.9861,-31.3826 17.9495,-31.3856 C17.9129,-31.3887 17.8804,-31.3845 17.8519,-31.3729 C17.7224,-31.4292 17.5844,-31.4672 17.4379,-31.4869 C17.2914,-31.5065 17.1365,-31.477 16.9731,-31.3984 C16.8544,-31.4038 16.7346,-31.3995 16.6135,-31.3856 C16.4925,-31.3717 16.3811,-31.345 16.2794,-31.3053 C16.1777,-31.2656 16.0917,-31.2107 16.0215,-31.1405 C15.9514,-31.0703 15.9047,-30.9817 15.8817,-30.8745 C15.7522,-30.7674 15.6677,-30.6335 15.6284,-30.4728 C15.5891,-30.3121 15.6088,-30.1554 15.6874,-30.0028 C15.7213,-29.992 15.7481,-29.9823 15.7678,-29.9739 C15.7874,-29.9654 15.8142,-29.9469 15.8481,-29.9184 C16.1472,-29.9469 16.453,-29.971 16.7656,-29.9906 C17.0782,-30.0103 17.4121,-29.9862 17.7675,-29.9184 C17.779,-29.8737 17.8002,-29.8415 17.831,-29.8218 C17.8619,-29.8021 17.897,-29.7838 17.9363,-29.7669 C17.9756,-29.7499 18.0123,-29.733 18.0462,-29.716 C18.0801,-29.6991 18.1055,-29.6736 18.1224,-29.6397 C18.1224,-29.6058 18.114,-29.5819 18.097,-29.568 C18.0801,-29.5541 18.0631,-29.54 18.0462,-29.5258 C18.0292,-29.5116 18.0138,-29.496 17.9999,-29.479 C17.986,-29.4621 17.9817,-29.4339 17.9872,-29.3946 C17.9139,-29.3946 17.828,-29.3692 17.7293,-29.3183 C17.6307,-29.2675 17.5532,-29.2112 17.4969,-29.1495 C17.2487,-29.104 17.0021,-29.0194 16.7569,-28.8957 C16.5118,-28.7719 16.2736,-28.6565 16.0424,-28.5494 C16.0031,-28.4815 15.9595,-28.418 15.9117,-28.3586 C15.8639,-28.2993 15.8174,-28.2373 15.7723,-28.1725 C15.7272,-28.1077 15.6891,-28.0416 15.6579,-27.9742 C15.6267,-27.9067 15.6084,-27.8333 15.603,-27.754 C15.6084,-27.6638 15.614,-27.5778 15.6198,-27.4961 C15.6255,-27.4144 15.6313,-27.3327 15.6371,-27.251 C15.6428,-27.1693 15.6513,-27.0847 15.6625,-26.9972 C15.6737,-26.9097 15.6905,-26.8155 15.7128,-26.7144 C15.9549,-26.3815 16.2579,-26.1009 16.6217,-25.8728 C16.9855,-25.6446 17.3589,-25.4573 17.742,-25.3108 C17.8037,-25.3725 17.8656,-25.4386 17.9277,-25.5091 C17.9897,-25.5796 18.0546,-25.6459 18.1224,-25.708 C18.1903,-25.77 18.2621,-25.8236 18.3381,-25.8687 C18.414,-25.9138 18.5001,-25.939 18.5964,-25.9445 C18.6581,-25.9275 18.7059,-25.9163 18.7398,-25.9109 C18.7738,-25.9055 18.8048,-25.9028 18.8329,-25.9028 C18.8611,-25.9028 18.8977,-25.9028 18.9428,-25.9028 C18.9879,-25.9028 19.0528,-25.897 19.1375,-25.8855 C19.2216,-25.8746 19.3032,-25.8692 19.3822,-25.8692 C19.4612,-25.8692 19.5346,-25.8661 19.6024,-25.86 C19.7434,-25.8492 19.8463,-25.838 19.9111,-25.8265 C19.9758,-25.8149 20.0194,-25.8065 20.0418,-25.801 C20.0642,-25.7956 20.0754,-25.7914 20.0754,-25.7883 C20.0754,-25.7853 20.0852,-25.7853 20.1048,-25.7883 C20.1245,-25.7914 20.1627,-25.7985 20.2193,-25.8097 C20.2759,-25.8209 20.3717,-25.8349 20.5066,-25.8519"
         style="fill:#000000;fill-rule:evenodd;stroke:none"
         id="path66" />
    </g>
    <!-- Text: 4 -->
    <g
       id="g67"
       style="fill:#000000;stroke:none">
      <path
         d="M31.3139,-13.9546 C31.3478,-14.0502 31.3817,-14.1347 31.4157,-14.2079 C31.4496,-14.2811 31.5143,-14.3462 31.6099,-14.4032 C31.5876,-14.5327 31.582,-14.6397 31.5931,-14.7241 C31.6043,-14.8085 31.5903,-14.9128 31.5509,-15.0369 C31.4723,-15.1216 31.3778,-15.1893 31.2677,-15.2398 C31.1575,-15.2903 31.0447,-15.3339 30.9295,-15.3705 C30.8142,-15.4071 30.6987,-15.4452 30.5831,-15.4849 C30.4675,-15.5246 30.3616,-15.5783 30.2653,-15.6461 C30.192,-15.8713 30.1146,-16.0937 30.0329,-16.3134 C29.9511,-16.5331 29.8794,-16.7755 29.8177,-17.0406 C29.8293,-17.0691 29.8491,-17.0889 29.8772,-17.1001 C29.9054,-17.1113 29.9279,-17.1281 29.9449,-17.1505 C29.9164,-17.2298 29.9135,-17.2934 29.9362,-17.3412 C29.9589,-17.389 29.99,-17.4326 30.0293,-17.4719 C30.0686,-17.5112 30.1095,-17.5507 30.1519,-17.5904 C30.1942,-17.6301 30.2239,-17.675 30.2409,-17.7252 C30.2178,-17.776 30.2036,-17.8269 30.1981,-17.8777 C30.1927,-17.9286 30.1885,-17.9793 30.1854,-18.0298 C30.1824,-18.0803 30.1739,-18.131 30.16,-18.1819 C30.1461,-18.2327 30.1195,-18.2836 30.0801,-18.3344 C29.9669,-18.3792 29.8526,-18.4016 29.7374,-18.4016 C29.6221,-18.4016 29.5163,-18.4158 29.42,-18.4443 C29.302,-18.4158 29.2022,-18.358 29.1205,-18.2709 C29.0388,-18.1837 28.9725,-18.0837 28.9216,-17.9708 C28.8708,-17.8579 28.8313,-17.7423 28.8031,-17.624 C28.775,-17.5056 28.7524,-17.4014 28.7355,-17.3112 C28.7694,-17.2495 28.7609,-17.2213 28.7101,-17.2268 C28.6877,-17.1481 28.6906,-17.072 28.7187,-16.9984 C28.7468,-16.9248 28.7524,-16.8684 28.7355,-16.8291 C28.747,-16.688 28.7696,-16.54 28.8031,-16.3851 C28.8367,-16.2301 28.8762,-16.054 28.9216,-15.8567 C28.8484,-15.8397 28.768,-15.8243 28.6806,-15.8104 C28.5931,-15.7965 28.5085,-15.7853 28.4268,-15.7768 C28.3451,-15.7683 28.2703,-15.7612 28.2025,-15.7555 C28.1347,-15.7497 28.0842,-15.7468 28.051,-15.7468 C27.9662,-15.7244 27.8928,-15.6894 27.8307,-15.6415 C27.7687,-15.5937 27.7122,-15.5402 27.6614,-15.4808 C27.6105,-15.4215 27.5612,-15.3608 27.5134,-15.2988 C27.4656,-15.2367 27.4163,-15.1776 27.3654,-15.1213 C27.3485,-14.924 27.3203,-14.7239 27.281,-14.5212 C27.2417,-14.3184 27.205,-14.1211 27.1711,-13.9292 C27.1372,-13.7373 27.1118,-13.5569 27.0948,-13.3881 C27.0779,-13.2192 27.0864,-13.067 27.1203,-12.9314 C27.1766,-12.8473 27.233,-12.7658 27.2896,-12.6868 C27.3462,-12.6078 27.4139,-12.5401 27.4925,-12.4838 C27.5543,-12.5008 27.6034,-12.5303 27.64,-12.5723 C27.6766,-12.6144 27.7106,-12.6595 27.7417,-12.7076 C27.7729,-12.7558 27.8068,-12.8008 27.8435,-12.8429 C27.8801,-12.8849 27.9292,-12.9144 27.9909,-12.9314 C28.014,-13.0385 28.0494,-13.1385 28.0972,-13.2314 C28.145,-13.3243 28.1901,-13.4188 28.2325,-13.5147 C28.2749,-13.6107 28.3115,-13.7108 28.3424,-13.8153 C28.3732,-13.9197 28.3886,-14.0367 28.3886,-14.1662 C28.4449,-14.2509 28.5054,-14.3032 28.5702,-14.3228 C28.635,-14.3425 28.7041,-14.3494 28.7777,-14.3437 C28.8513,-14.3379 28.926,-14.3321 29.002,-14.3264 C29.0779,-14.3206 29.1552,-14.3293 29.2339,-14.3523 C29.2508,-14.3238 29.2792,-14.3082 29.3188,-14.3055 C29.3585,-14.3028 29.3922,-14.293 29.42,-14.276 C29.4539,-14.2645 29.4722,-14.2362 29.475,-14.1911 C29.4777,-14.146 29.5017,-14.1208 29.5472,-14.1153 C29.5356,-14.0197 29.537,-13.9253 29.5512,-13.8321 C29.5655,-13.7388 29.5795,-13.65 29.5934,-13.5656 C29.6073,-13.4811 29.6158,-13.3994 29.6189,-13.3204 C29.6219,-13.2414 29.6092,-13.1626 29.5807,-13.084 C29.637,-12.9768 29.6723,-12.8485 29.6865,-12.699 C29.7008,-12.5494 29.7177,-12.4043 29.7374,-12.2636 C29.757,-12.1229 29.7937,-11.9948 29.8472,-11.8791 C29.9008,-11.7635 29.995,-11.683 30.13,-11.6376 C30.4684,-11.9251 30.7054,-12.3113 30.841,-12.7961 C30.7847,-13.0328 30.7523,-13.2526 30.7438,-13.4557 C30.7354,-13.6588 30.7338,-13.8617 30.7393,-14.0645 C30.8349,-14.0367 30.9349,-14.0143 31.0393,-13.9973 C31.1437,-13.9804 31.2353,-13.9661 31.3139,-13.9546"
         style="fill:#000000;fill-rule:evenodd;stroke:none"
         id="path67" />
    </g>
    <!-- Text: 3 -->
    <g
       id="g68"
       style="fill:#000000;stroke:none">
      <path
         d="M32.0266,2.6512 C32.3365,2.7129 32.6437,2.7761 32.9481,2.8409 C33.2526,2.9056 33.5584,2.9606 33.8656,3.0056 C34.1728,3.0507 34.4871,3.0818 34.8085,3.0987 C35.1299,3.1157 35.4683,3.1072 35.8236,3.0733 C35.964,2.9268 36.0877,2.7676 36.1949,2.5957 C36.302,2.4238 36.4037,2.245 36.5,2.0592 C36.4885,2.0192 36.4814,1.9795 36.4786,1.9402 C36.4759,1.9009 36.4688,1.8588 36.4573,1.8141 C36.4288,1.7408 36.3907,1.6746 36.3429,1.6152 C36.295,1.5559 36.2572,1.4869 36.2294,1.4082 C36.0884,1.3289 35.9545,1.2441 35.8277,1.1539 C35.7009,1.0638 35.5754,0.9709 35.4513,0.8752 C35.3496,0.8298 35.2438,0.7888 35.134,0.7522 C35.0241,0.7156 34.9411,0.6467 34.8848,0.5457 C35.0706,0.4664 35.234,0.3704 35.375,0.2578 C35.5161,0.1453 35.6402,0.0185 35.7473,-0.1226 C35.8545,-0.2636 35.9474,-0.4158 36.026,-0.5793 C36.1047,-0.7427 36.1752,-0.9119 36.2376,-1.0868 C36.2261,-1.1709 36.2118,-1.258 36.1949,-1.3482 C36.1779,-1.4384 36.1779,-1.5147 36.1949,-1.5771 C36.1555,-1.6951 36.1035,-1.7893 36.0387,-1.8598 C35.974,-1.9304 35.9107,-2.025 35.849,-2.1436 C35.6517,-2.2277 35.491,-2.346 35.3669,-2.4986 C35.3106,-2.4986 35.2825,-2.4874 35.2825,-2.465 C35.1075,-2.583 34.9044,-2.6829 34.6732,-2.7646 C34.442,-2.8463 34.194,-2.9097 33.9292,-2.9548 C33.6644,-2.9999 33.3854,-3.0253 33.0921,-3.0311 C32.7988,-3.0368 32.5057,-3.0255 32.2128,-2.997 C32.1904,-2.98 32.1707,-2.9604 32.1538,-2.938 C32.1368,-2.9156 32.1029,-2.9072 32.0521,-2.9126 C32.0297,-2.8563 32.0002,-2.807 31.9636,-2.7646 C31.9269,-2.7222 31.8974,-2.6729 31.8751,-2.6166 C31.9313,-2.5264 31.9693,-2.4221 31.989,-2.3038 C32.0087,-2.1855 32.0312,-2.0714 32.0566,-1.9616 C32.0821,-1.8517 32.1173,-1.753 32.1624,-1.6656 C32.2075,-1.5781 32.2836,-1.5147 32.3908,-1.4754 C32.4355,-1.4699 32.4608,-1.484 32.4665,-1.5176 C32.4723,-1.5511 32.4891,-1.5737 32.5169,-1.5852 C32.7373,-1.5852 32.9573,-1.581 33.177,-1.5725 C33.3967,-1.564 33.6052,-1.5444 33.8025,-1.5135 C33.9999,-1.4826 34.1845,-1.4362 34.3564,-1.3742 C34.5283,-1.3121 34.6763,-1.2248 34.8004,-1.1122 C34.6308,-0.9766 34.4333,-0.8736 34.2079,-0.803 C33.9824,-0.7325 33.7641,-0.6635 33.5528,-0.596 C33.3416,-0.5286 33.1543,-0.4426 32.9909,-0.3382 C32.8274,-0.2338 32.7203,-0.0802 32.6695,0.1226 C32.6979,0.2521 32.7178,0.3677 32.729,0.4694 C32.7401,0.5711 32.7542,0.6642 32.7712,0.7486 C32.7881,0.833 32.8149,0.9132 32.8515,0.9892 C32.8881,1.0651 32.9485,1.1397 33.0326,1.2129 C33.0048,1.2299 32.9641,1.2341 32.9105,1.2257 C32.8569,1.2172 32.7991,1.2031 32.7371,1.1834 C32.675,1.1638 32.6145,1.1412 32.5555,1.1158 C32.4965,1.0904 32.447,1.0692 32.407,1.0522 C32.289,1.0807 32.1694,1.0992 32.048,1.1077 C31.9266,1.1161 31.8154,1.1512 31.7144,1.2129 C31.7028,1.2753 31.6886,1.3445 31.6716,1.4204 C31.6547,1.4964 31.6435,1.5739 31.6381,1.6529 C31.6326,1.7318 31.6382,1.8108 31.6549,1.8898 C31.6715,1.9688 31.711,2.0422 31.7734,2.1101 C31.7618,2.1494 31.7534,2.1887 31.7479,2.228 C31.7425,2.2674 31.7313,2.3013 31.7144,2.3298 C31.7761,2.3799 31.8422,2.4305 31.9127,2.4813 C31.9832,2.5322 32.0212,2.5888 32.0266,2.6512"
         style="fill:#000000;fill-rule:evenodd;stroke:none"
         id="path68" />
    </g>
    <!-- Text: 1 -->
    <g
       id="g69"
       style="fill:#000000;stroke:none">
      <path
         d="M17.4048,31.4574 C17.4665,31.3333 17.5466,31.2332 17.6453,31.1573 C17.744,31.0814 17.8414,31.0041 17.9377,30.9254 C18.0557,30.705 18.1288,30.4595 18.1569,30.189 C18.1851,29.9184 18.2161,29.6228 18.25,29.302 C18.25,29.0423 18.233,28.7984 18.1991,28.5702 C18.1652,28.342 18.1217,28.1194 18.0684,27.9025 C18.0152,27.6855 17.9547,27.4698 17.8869,27.2556 C17.8191,27.0413 17.7543,26.8158 17.6926,26.5792 C17.6133,26.4944 17.5526,26.3745 17.5105,26.2196 C17.4685,26.0647 17.4641,25.9139 17.4973,25.7675 C17.4241,25.6773 17.3508,25.59 17.2776,25.5056 C17.2044,25.4211 17.1227,25.342 17.0325,25.2681 C16.9986,25.302 16.9548,25.3204 16.9013,25.3235 C16.8477,25.3265 16.7928,25.3265 16.7365,25.3235 C16.6802,25.3204 16.6282,25.3147 16.5804,25.3062 C16.5326,25.2977 16.4975,25.2965 16.4751,25.3026 C16.4466,25.3474 16.4085,25.3952 16.3607,25.4461 C16.3129,25.4969 16.2706,25.5505 16.234,25.6068 C16.1974,25.6631 16.1691,25.718 16.1491,25.7715 C16.1291,25.8251 16.1333,25.8773 16.1618,25.9282 C16.1618,25.9899 16.1279,26.0207 16.0601,26.0207 C16.0771,26.2805 16.1194,26.5358 16.1872,26.7867 C16.2551,27.0375 16.3312,27.2827 16.4156,27.522 C16.5,27.7614 16.5831,27.9994 16.6648,28.2361 C16.7465,28.4727 16.8085,28.7067 16.8509,28.9379 C16.8933,29.1691 16.9047,29.4004 16.885,29.6316 C16.8653,29.8628 16.7989,30.0968 16.6856,30.3334 C16.6856,30.4121 16.6843,30.4782 16.6816,30.5318 C16.6789,30.5853 16.6761,30.6333 16.6734,30.6757 C16.6707,30.7181 16.6665,30.7589 16.6607,30.7983 C16.655,30.8376 16.6436,30.88 16.6266,30.9254 C16.6551,31.0041 16.6763,31.0771 16.6902,31.1446 C16.7041,31.2121 16.7026,31.2743 16.6856,31.3312 C16.6917,31.3706 16.7033,31.4029 16.7202,31.4284 C16.7372,31.4538 16.7568,31.4791 16.7792,31.5041 C16.8016,31.5292 16.8226,31.5545 16.8423,31.5799 C16.8619,31.6054 16.8748,31.6377 16.8809,31.6771 L17.066,31.6771 C17.1284,31.6269 17.1822,31.5806 17.2273,31.5382 C17.2724,31.4958 17.3315,31.4689 17.4048,31.4574"
         style="fill:#000000;fill-rule:evenodd;stroke:none"
         id="path69" />
    </g>
  </g>
</svg>
