<?xml version="1.0" encoding="UTF-8" standalone="no"?>
<!-- 2026-04-14 15:25:42 Generated by QCAD 3.28.2 SVG Exporter -->

<svg
   width="89mm"
   height="84.1657mm"
   viewBox="-44.5 -44.5 89 84.1657"
   version="1.1"
   style="stroke-linecap:round;stroke-linejoin:round;fill:none"
   id="svg70"
   sodipodi:docname="clock-face-orbitron.svg"
   inkscape:version="1.4.3 (0d15f75042, 2025-12-25)"
   xmlns:inkscape="http://www.inkscape.org/namespaces/inkscape"
   xmlns:sodipodi="http://sodipodi.sourceforge.net/DTD/sodipodi-0.dtd"
   xmlns="http://www.w3.org/2000/svg"
   xmlns:svg="http://www.w3.org/2000/svg">
  <defs
     id="defs70" />
  <sodipodi:namedview
     id="namedview70"
     pagecolor="#ffffff"
     bordercolor="#000000"
     borderopacity="0.25"
     inkscape:showpageshadow="2"
     inkscape:pageopacity="0.0"
     inkscape:pagecheckerboard="0"
     inkscape:deskcolor="#d1d1d1"
     inkscape:document-units="mm"
     inkscape:zoom="2.4079979"
     inkscape:cx="168.18952"
     inkscape:cy="159.0533"
     inkscape:window-width="1920"
     inkscape:window-height="979"
     inkscape:window-x="320"
     inkscape:window-y="1440"
     inkscape:window-maximized="1"
     inkscape:current-layer="svg70" />
  <g
     transform="scale(1,-1)"
     id="g70"
     style="fill:#000000;stroke:none">
    <!-- Line -->
    <path
       style="baseline-shift:baseline;display:inline;overflow:visible;vector-effect:none;fill:#000000;stroke-linecap:butt;stroke-linejoin:miter;enable-background:accumulate;stop-color:#000000;stop-opacity:1;opacity:1;stroke:none"
       d="m -18.310547,10.283203 -5.197265,3 a 0.25,0.25 0 0 0 -0.0918,0.341797 0.25,0.25 0 0 0 0.341797,0.0918 l 5.197265,-3 a 0.25,0.25 0 0 0 0.08984,-0.341797 0.25,0.25 0 0 0 -0.339844,-0.0918 z"
       id="path1" />
    <!-- Line -->
    <path
       style="baseline-shift:baseline;display:inline;overflow:visible;vector-effect:none;fill:#000000;stroke-linecap:butt;stroke-linejoin:miter;enable-background:accumulate;stop-color:#000000;stop-opacity:1;opacity:1;stroke:none"
       d="M 0,-27.25 A 0.25,0.25 0 0 0 -0.25,-27 v 6 A 0.25,0.25 0 0 0 0,-20.75 0.25,0.25 0 0 0 0.25,-21 v -6 A 0.25,0.25 0 0 0 0,-27.25 Z"
       id="path2" />
    <!-- Line -->
    <path
       style="baseline-shift:baseline;display:inline;overflow:visible;vector-effect:none;fill:#000000;stroke-linecap:butt;stroke-linejoin:miter;enable-background:accumulate;stop-color:#000000;stop-opacity:1;opacity:1;stroke:none"
       d="m 18.310547,10.283203 a 0.25,0.25 0 0 0 -0.339844,0.0918 0.25,0.25 0 0 0 0.08984,0.341797 l 5.197265,3 a 0.25,0.25 0 0 0 0.341797,-0.0918 0.25,0.25 0 0 0 -0.0918,-0.341797 z"
       id="path3" />
    <!-- Arc -->
    <path
       style="baseline-shift:baseline;display:inline;overflow:visible;vector-effect:none;fill:#000000;stroke-linecap:butt;stroke-linejoin:miter;enable-background:accumulate;stop-color:#000000;stop-opacity:1;opacity:1;stroke:none"
       d="M -25.277344,35.095703 A 0.25,0.25 0 0 0 -25.625,35.152344 0.25,0.25 0 0 0 -25.568359,35.5 c 15.270852,10.998722 35.865866,10.998722 51.136718,0 a 0.25,0.25 0 0 0 0.05664,-0.347656 0.25,0.25 0 0 0 -0.347656,-0.05664 c -15.097872,10.874134 -35.456816,10.874134 -50.554688,0 z"
       id="path4" />
    <!-- Arc -->
    <path
       style="baseline-shift:baseline;display:inline;overflow:visible;vector-effect:none;fill:#000000;stroke-linecap:butt;stroke-linejoin:miter;enable-background:accumulate;stop-color:#000000;stop-opacity:1;opacity:1;stroke:none"
       d="m -37.199219,3.546875 c -2.025771,-0.1455704 -4.098458,0.037491 -6.144531,0.5800781 a 0.25,0.25 0 0 0 -0.177734,0.3046875 0.25,0.25 0 0 0 0.304687,0.1777344 c 7.968326,-2.1130755 16.362506,1.3763328 20.484375,8.515625 4.121869,7.139292 2.946956,16.151862 -2.867187,21.996094 a 0.25,0.25 0 0 0 0,0.353515 0.25,0.25 0 0 0 0.353515,0 c 5.971725,-6.002628 7.178897,-15.26682 2.945313,-22.599609 -3.175189,-5.4995916 -8.821124,-8.8914138 -14.898438,-9.328125 z"
       id="path5" />
    <!-- Arc -->
    <path
       style="baseline-shift:baseline;display:inline;overflow:visible;vector-effect:none;fill:#000000;stroke-linecap:butt;stroke-linejoin:miter;enable-background:accumulate;stop-color:#000000;stop-opacity:1;opacity:1;stroke:none"
       d="M 37.199219,3.546875 C 31.121905,3.9835862 25.47597,7.3754084 22.300781,12.875 c -4.233584,7.332789 -3.026412,16.596981 2.945313,22.599609 a 0.25,0.25 0 0 0 0.353515,0 0.25,0.25 0 0 0 0,-0.353515 C 19.785466,29.276862 18.610553,20.264292 22.732422,13.125 26.854291,5.9857078 35.248471,2.4962995 43.216797,4.609375 A 0.25,0.25 0 0 0 43.521484,4.4316406 0.25,0.25 0 0 0 43.34375,4.1269531 C 41.297677,3.5843665 39.22499,3.4013046 37.199219,3.546875 Z"
       id="path6" />
    <!-- Arc -->
    <path
       style="baseline-shift:baseline;display:inline;overflow:visible;vector-effect:none;fill:#000000;stroke-linecap:butt;stroke-linejoin:miter;enable-background:accumulate;stop-color:#000000;stop-opacity:1;opacity:1;stroke:none"
       d="m -17.958984,-39.894531 c -17.160617,7.725591 -27.46008,25.562786 -25.570313,44.2871091 a 0.25,0.25 0 0 0 0.273438,0.2246094 0.25,0.25 0 0 0 0.224609,-0.2734375 c -1.868361,-18.512223 8.311115,-36.143171 25.277344,-43.78125 a 0.25,0.25 0 0 0 0.125,-0.330078 0.25,0.25 0 0 0 -0.330078,-0.126953 z"
       id="path7" />
    <!-- Arc -->
    <path
       style="baseline-shift:baseline;display:inline;overflow:visible;vector-effect:none;fill:#000000;stroke-linecap:butt;stroke-linejoin:miter;enable-background:accumulate;stop-color:#000000;stop-opacity:1;opacity:1;stroke:none"
       d="m -17.921875,-39.90625 a 0.25,0.25 0 0 0 -0.175781,0.306641 C -15.885075,-31.426648 -8.4671598,-25.75 0,-25.75 c 8.4671598,0 15.885075,-5.676648 18.097656,-13.849609 a 0.25,0.25 0 0 0 -0.175781,-0.306641 0.25,0.25 0 0 0 -0.306641,0.175781 C 15.461039,-31.773175 8.2437295,-26.25 0,-26.25 c -8.2437295,0 -15.461039,-5.523175 -17.615234,-13.480469 a 0.25,0.25 0 0 0 -0.306641,-0.175781 z"
       id="path8" />
    <!-- Arc -->
    <path
       style="baseline-shift:baseline;display:inline;overflow:visible;vector-effect:none;fill:#000000;stroke-linecap:butt;stroke-linejoin:miter;enable-background:accumulate;stop-color:#000000;stop-opacity:1;opacity:1;stroke:none"
       d="m 17.958984,-39.894531 a 0.25,0.25 0 0 0 -0.330078,0.126953 0.25,0.25 0 0 0 0.125,0.330078 c 16.966229,7.638079 27.145705,25.269027 25.277344,43.78125 a 0.25,0.25 0 0 0 0.224609,0.2734375 0.25,0.25 0 0 0 0.273438,-0.2246094 C 45.419064,-14.331745 35.119601,-32.16894 17.958984,-39.894531 Z"
       id="path9" />
    <!-- Line -->
    <path
       style="baseline-shift:baseline;display:inline;overflow:visible;vector-effect:none;fill:#000000;stroke-linecap:butt;stroke-linejoin:miter;enable-background:accumulate;stop-color:#000000;stop-opacity:1;opacity:1;stroke:none"
       d="m 0,38.25 a 0.25,0.25 0 0 0 -0.25,0.25 v 6 A 0.25,0.25 0 0 0 0,44.75 0.25,0.25 0 0 0 0.25,44.5 v -6 A 0.25,0.25 0 0 0 0,38.25 Z"
       id="path10" />
    <!-- Line -->
    <path
       style="baseline-shift:baseline;display:inline;overflow:visible;vector-effect:none;fill:#000000;stroke-linecap:butt;stroke-linejoin:miter;enable-background:accumulate;stop-color:#000000;stop-opacity:1;opacity:1;stroke:none"
       d="m -19.125,33.125 a 0.25,0.25 0 0 0 -0.341797,0.0918 l -3,5.197265 a 0.25,0.25 0 0 0 0.0918,0.339844 0.25,0.25 0 0 0 0.341797,-0.08984 l 3,-5.197265 A 0.25,0.25 0 0 0 -19.125,33.125 Z"
       id="path11" />
    <!-- Line -->
    <path
       style="baseline-shift:baseline;display:inline;overflow:visible;vector-effect:none;fill:#000000;stroke-linecap:butt;stroke-linejoin:miter;enable-background:accumulate;stop-color:#000000;stop-opacity:1;opacity:1;stroke:none"
       d="M -44.5,-0.25 A 0.25,0.25 0 0 0 -44.75,0 0.25,0.25 0 0 0 -44.5,0.25 h 6 A 0.25,0.25 0 0 0 -38.25,0 0.25,0.25 0 0 0 -38.5,-0.25 Z"
       id="path12" />
    <!-- Line -->
    <path
       style="baseline-shift:baseline;display:inline;overflow:visible;vector-effect:none;fill:#000000;stroke-linecap:butt;stroke-linejoin:miter;enable-background:accumulate;stop-color:#000000;stop-opacity:1;opacity:1;stroke:none"
       d="m -38.414062,-22.466797 a 0.25,0.25 0 0 0 -0.339844,0.0918 0.25,0.25 0 0 0 0.08984,0.341797 l 5.197265,3 a 0.25,0.25 0 0 0 0.341797,-0.0918 0.25,0.25 0 0 0 -0.0918,-0.341797 z"
       id="path13" />
    <!-- Line -->
    <path
       style="baseline-shift:baseline;display:inline;overflow:visible;vector-effect:none;fill:#000000;stroke-linecap:butt;stroke-linejoin:miter;enable-background:accumulate;stop-color:#000000;stop-opacity:1;opacity:1;stroke:none"
       d="m -22.375,-38.753906 a 0.25,0.25 0 0 0 -0.0918,0.339844 l 3,5.197265 a 0.25,0.25 0 0 0 0.341797,0.0918 0.25,0.25 0 0 0 0.0918,-0.341797 l -3,-5.197265 a 0.25,0.25 0 0 0 -0.341797,-0.08984 z"
       id="path14" />
    <!-- Line -->
    <path
       style="baseline-shift:baseline;display:inline;overflow:visible;vector-effect:none;fill:#000000;stroke-linecap:butt;stroke-linejoin:miter;enable-background:accumulate;stop-color:#000000;stop-opacity:1;opacity:1;stroke:none"
       d="m 22.375,-38.753906 a 0.25,0.25 0 0 0 -0.341797,0.08984 l -3,5.197265 a 0.25,0.25 0 0 0 0.0918,0.341797 0.25,0.25 0 0 0 0.341797,-0.0918 l 3,-5.197265 a 0.25,0.25 0 0 0 -0.0918,-0.339844 z"
       id="path15" />
    <!-- Line -->
    <path
       style="baseline-shift:baseline;display:inline;overflow:visible;vector-effect:none;fill:#000000;stroke-linecap:butt;stroke-linejoin:miter;enable-background:accumulate;stop-color:#000000;stop-opacity:1;opacity:1;stroke:none"
       d="m 38.414062,-22.466797 -5.197265,3 a 0.25,0.25 0 0 0 -0.0918,0.341797 0.25,0.25 0 0 0 0.341797,0.0918 l 5.197265,-3 a 0.25,0.25 0 0 0 0.08984,-0.341797 0.25,0.25 0 0 0 -0.339844,-0.0918 z"
       id="path16" />
    <!-- Line -->
    <path
       style="baseline-shift:baseline;display:inline;overflow:visible;vector-effect:none;fill:#000000;stroke-linecap:butt;stroke-linejoin:miter;enable-background:accumulate;stop-color:#000000;stop-opacity:1;opacity:1;stroke:none"
       d="M 38.5,-0.25 A 0.25,0.25 0 0 0 38.25,0 0.25,0.25 0 0 0 38.5,0.25 h 6 A 0.25,0.25 0 0 0 44.75,0 0.25,0.25 0 0 0 44.5,-0.25 Z"
       id="path17" />
    <!-- Line -->
    <path
       style="baseline-shift:baseline;display:inline;overflow:visible;vector-effect:none;fill:#000000;stroke-linecap:butt;stroke-linejoin:miter;enable-background:accumulate;stop-color:#000000;stop-opacity:1;opacity:1;stroke:none"
       d="m 19.125,33.125 a 0.25,0.25 0 0 0 -0.0918,0.341797 l 3,5.197265 a 0.25,0.25 0 0 0 0.341797,0.08984 0.25,0.25 0 0 0 0.0918,-0.339844 l -3,-5.197265 A 0.25,0.25 0 0 0 19.125,33.125 Z"
       id="path18" />
    <!-- Line -->
    <path
       style="baseline-shift:baseline;display:inline;overflow:visible;vector-effect:none;fill:#000000;stroke-linecap:butt;stroke-linejoin:miter;enable-background:accumulate;stop-color:#000000;stop-opacity:1;opacity:1;stroke:none"
       d="m -4.3242187,41.148437 a 0.125,0.125 0 0 0 -0.1386719,0.111329 l -0.3125,2.982421 a 0.125,0.125 0 0 0 0.1113281,0.138672 0.125,0.125 0 0 0 0.1367188,-0.111328 l 0.3144531,-2.984375 a 0.125,0.125 0 0 0 -0.1113281,-0.136719 z"
       id="path19" />
    <!-- Line -->
    <path
       style="baseline-shift:baseline;display:inline;overflow:visible;vector-effect:none;fill:#000000;stroke-linecap:butt;stroke-linejoin:miter;enable-background:accumulate;stop-color:#000000;stop-opacity:1;opacity:1;stroke:none"
       d="M -8.6015625,40.470703 A 0.125,0.125 0 0 0 -8.75,40.566406 l -0.625,2.935547 a 0.125,0.125 0 0 0 0.097656,0.148438 0.125,0.125 0 0 0 0.1484375,-0.09766 l 0.6230469,-2.933593 a 0.125,0.125 0 0 0 -0.095703,-0.148438 z"
       id="path20" />
    <!-- Line -->
    <path
       style="baseline-shift:baseline;display:inline;overflow:visible;vector-effect:none;fill:#000000;stroke-linecap:butt;stroke-linejoin:miter;enable-background:accumulate;stop-color:#000000;stop-opacity:1;opacity:1;stroke:none"
       d="m -12.785156,39.349609 a 0.125,0.125 0 0 0 -0.158203,0.08008 l -0.927735,2.853516 a 0.125,0.125 0 0 0 0.08203,0.158203 0.125,0.125 0 0 0 0.15625,-0.08008 l 0.927735,-2.853516 a 0.125,0.125 0 0 0 -0.08008,-0.158203 z"
       id="path21" />
    <!-- Line -->
    <path
       style="baseline-shift:baseline;display:inline;overflow:visible;vector-effect:none;fill:#000000;stroke-linecap:butt;stroke-linejoin:miter;enable-background:accumulate;stop-color:#000000;stop-opacity:1;opacity:1;stroke:none"
       d="m -16.828125,37.798828 a 0.125,0.125 0 0 0 -0.166016,0.0625 l -1.220703,2.740234 a 0.125,0.125 0 0 0 0.06445,0.166016 0.125,0.125 0 0 0 0.164063,-0.06445 l 1.220703,-2.740234 a 0.125,0.125 0 0 0 -0.0625,-0.164063 z"
       id="path22" />
    <!-- Line -->
    <path
       style="baseline-shift:baseline;display:inline;overflow:visible;vector-effect:none;fill:#000000;stroke-linecap:butt;stroke-linejoin:miter;enable-background:accumulate;stop-color:#000000;stop-opacity:1;opacity:1;stroke:none"
       d="m -18.0625,20.060547 a 0.125,0.125 0 0 0 -0.175781,0.0078 l -2.931641,3.25586 a 0.125,0.125 0 0 0 0.0098,0.175781 0.125,0.125 0 0 0 0.175781,-0.0078 l 2.931641,-3.255859 a 0.125,0.125 0 0 0 -0.0098,-0.175781 z"
       id="path23" />
    <!-- Line -->
    <path
       style="baseline-shift:baseline;display:inline;overflow:visible;vector-effect:none;fill:#000000;stroke-linecap:butt;stroke-linejoin:miter;enable-background:accumulate;stop-color:#000000;stop-opacity:1;opacity:1;stroke:none"
       d="m -18.835937,16.792969 -2.556641,2.300781 a 0.125,0.125 0 0 0 -0.0078,0.175781 0.125,0.125 0 0 0 0.175782,0.0098 l 2.554687,-2.300781 a 0.125,0.125 0 0 0 0.0098,-0.177735 0.125,0.125 0 0 0 -0.175781,-0.0078 z"
       id="path24" />
    <!-- Line -->
    <path
       style="baseline-shift:baseline;display:inline;overflow:visible;vector-effect:none;fill:#000000;stroke-linecap:butt;stroke-linejoin:miter;enable-background:accumulate;stop-color:#000000;stop-opacity:1;opacity:1;stroke:none"
       d="m -19.724609,14.175781 -2.503907,1.820313 a 0.125,0.125 0 0 0 -0.02734,0.173828 0.125,0.125 0 0 0 0.173828,0.02734 l 2.503906,-1.81836 a 0.125,0.125 0 0 0 0.02734,-0.173828 0.125,0.125 0 0 0 -0.173828,-0.0293 z"
       id="path25" />
    <!-- Line -->
    <path
       style="baseline-shift:baseline;display:inline;overflow:visible;vector-effect:none;fill:#000000;stroke-linecap:butt;stroke-linejoin:miter;enable-background:accumulate;stop-color:#000000;stop-opacity:1;opacity:1;stroke:none"
       d="m -22.242187,9.765625 -2.826172,1.259766 a 0.125,0.125 0 0 0 -0.06445,0.164062 0.125,0.125 0 0 0 0.166015,0.06445 l 2.826172,-1.2597654 a 0.125,0.125 0 0 0 0.06445,-0.1640625 0.125,0.125 0 0 0 -0.166015,-0.064453 z"
       id="path26" />
    <!-- Line -->
    <path
       style="baseline-shift:baseline;display:inline;overflow:visible;vector-effect:none;fill:#000000;stroke-linecap:butt;stroke-linejoin:miter;enable-background:accumulate;stop-color:#000000;stop-opacity:1;opacity:1;stroke:none"
       d="m -24.037109,7.6796875 -3.271485,1.0625 a 0.125,0.125 0 0 0 -0.08008,0.15625 0.125,0.125 0 0 0 0.158203,0.080078 l 3.269532,-1.0625 a 0.125,0.125 0 0 0 0.08008,-0.15625 0.125,0.125 0 0 0 -0.15625,-0.080078 z"
       id="path27" />
    <!-- Line -->
    <path
       style="baseline-shift:baseline;display:inline;overflow:visible;vector-effect:none;fill:#000000;stroke-linecap:butt;stroke-linejoin:miter;enable-background:accumulate;stop-color:#000000;stop-opacity:1;opacity:1;stroke:none"
       d="m -26.550781,5.515625 -4.285156,0.9101562 a 0.125,0.125 0 0 0 -0.0957,0.1484375 0.125,0.125 0 0 0 0.148438,0.097656 L -26.5,5.7597656 a 0.125,0.125 0 0 0 0.0957,-0.1484375 0.125,0.125 0 0 0 -0.146484,-0.095703 z"
       id="path28" />
    <!-- Line -->
    <path
       style="baseline-shift:baseline;display:inline;overflow:visible;vector-effect:none;fill:#000000;stroke-linecap:butt;stroke-linejoin:miter;enable-background:accumulate;stop-color:#000000;stop-opacity:1;opacity:1;stroke:none"
       d="m -44.242187,-4.7753906 a 0.125,0.125 0 0 0 -0.138672,0.1113281 0.125,0.125 0 0 0 0.111328,0.1367188 l 2.984375,0.3144531 a 0.125,0.125 0 0 0 0.136719,-0.1113281 0.125,0.125 0 0 0 -0.111329,-0.1386719 z"
       id="path29" />
    <!-- Line -->
    <path
       style="baseline-shift:baseline;display:inline;overflow:visible;vector-effect:none;fill:#000000;stroke-linecap:butt;stroke-linejoin:miter;enable-background:accumulate;stop-color:#000000;stop-opacity:1;opacity:1;stroke:none"
       d="m -43.501953,-9.375 a 0.125,0.125 0 0 0 -0.148438,0.097656 0.125,0.125 0 0 0 0.09766,0.1484375 l 2.933593,0.6230469 a 0.125,0.125 0 0 0 0.148438,-0.095703 0.125,0.125 0 0 0 -0.0957,-0.1484375 z"
       id="path30" />
    <!-- Line -->
    <path
       style="baseline-shift:baseline;display:inline;overflow:visible;vector-effect:none;fill:#000000;stroke-linecap:butt;stroke-linejoin:miter;enable-background:accumulate;stop-color:#000000;stop-opacity:1;opacity:1;stroke:none"
       d="m -42.283203,-13.871094 a 0.125,0.125 0 0 0 -0.158203,0.08203 0.125,0.125 0 0 0 0.08008,0.15625 l 2.853516,0.927735 a 0.125,0.125 0 0 0 0.158203,-0.08008 0.125,0.125 0 0 0 -0.08008,-0.158203 z"
       id="path31" />
    <!-- Line -->
    <path
       style="baseline-shift:baseline;display:inline;overflow:visible;vector-effect:none;fill:#000000;stroke-linecap:butt;stroke-linejoin:miter;enable-background:accumulate;stop-color:#000000;stop-opacity:1;opacity:1;stroke:none"
       d="m -40.601562,-18.214844 a 0.125,0.125 0 0 0 -0.166016,0.06445 0.125,0.125 0 0 0 0.06445,0.164063 l 2.740234,1.220703 a 0.125,0.125 0 0 0 0.164063,-0.0625 0.125,0.125 0 0 0 -0.0625,-0.166016 z"
       id="path32" />
    <!-- Line -->
    <path
       style="baseline-shift:baseline;display:inline;overflow:visible;vector-effect:none;fill:#000000;stroke-linecap:butt;stroke-linejoin:miter;enable-background:accumulate;stop-color:#000000;stop-opacity:1;opacity:1;stroke:none"
       d="m -35.927734,-26.257812 a 0.125,0.125 0 0 0 -0.173828,0.02734 0.125,0.125 0 0 0 0.02734,0.175782 l 2.425782,1.763671 a 0.125,0.125 0 0 0 0.175781,-0.0293 0.125,0.125 0 0 0 -0.02734,-0.173829 z"
       id="path33" />
    <!-- Line -->
    <path
       style="baseline-shift:baseline;display:inline;overflow:visible;vector-effect:none;fill:#000000;stroke-linecap:butt;stroke-linejoin:miter;enable-background:accumulate;stop-color:#000000;stop-opacity:1;opacity:1;stroke:none"
       d="m -32.986328,-29.869141 a 0.125,0.125 0 0 0 -0.175781,0.0098 0.125,0.125 0 0 0 0.0078,0.175781 l 2.230469,2.007813 a 0.125,0.125 0 0 0 0.175781,-0.0098 0.125,0.125 0 0 0 -0.0098,-0.175781 z"
       id="path34" />
    <!-- Line -->
    <path
       style="baseline-shift:baseline;display:inline;overflow:visible;vector-effect:none;fill:#000000;stroke-linecap:butt;stroke-linejoin:miter;enable-background:accumulate;stop-color:#000000;stop-opacity:1;opacity:1;stroke:none"
       d="m -29.859375,-33.162109 a 0.125,0.125 0 0 0 -0.0098,0.175781 l 2.007813,2.228516 a 0.125,0.125 0 0 0 0.175781,0.0098 0.125,0.125 0 0 0 0.0098,-0.175781 l -2.007813,-2.230469 a 0.125,0.125 0 0 0 -0.175781,-0.0078 z"
       id="path35" />
    <!-- Line -->
    <path
       style="baseline-shift:baseline;display:inline;overflow:visible;vector-effect:none;fill:#000000;stroke-linecap:butt;stroke-linejoin:miter;enable-background:accumulate;stop-color:#000000;stop-opacity:1;opacity:1;stroke:none"
       d="m -26.230469,-36.101562 a 0.125,0.125 0 0 0 -0.02734,0.173828 L -24.494141,-33.5 a 0.125,0.125 0 0 0 0.173829,0.02734 0.125,0.125 0 0 0 0.0293,-0.175781 l -1.763671,-2.425782 a 0.125,0.125 0 0 0 -0.175782,-0.02734 z"
       id="path36" />
    <!-- Line -->
    <path
       style="baseline-shift:baseline;display:inline;overflow:visible;vector-effect:none;fill:#000000;stroke-linecap:butt;stroke-linejoin:miter;enable-background:accumulate;stop-color:#000000;stop-opacity:1;opacity:1;stroke:none"
       d="m -9.7714844,-30.076172 a 0.125,0.125 0 0 0 -0.080078,0.158203 l 1.3535156,4.166016 a 0.125,0.125 0 0 0 0.15625,0.08008 0.125,0.125 0 0 0 0.080078,-0.158203 l -1.3535156,-4.166016 a 0.125,0.125 0 0 0 -0.15625,-0.08008 z"
       id="path37" />
    <!-- Line -->
    <path
       style="baseline-shift:baseline;display:inline;overflow:visible;vector-effect:none;fill:#000000;stroke-linecap:butt;stroke-linejoin:miter;enable-background:accumulate;stop-color:#000000;stop-opacity:1;opacity:1;stroke:none"
       d="m -5.9882812,-28.169922 a 0.125,0.125 0 0 0 -0.095703,0.148438 l 0.7148438,3.365234 a 0.125,0.125 0 0 0 0.1484375,0.0957 0.125,0.125 0 0 0 0.095703,-0.148437 l -0.7148437,-3.363282 a 0.125,0.125 0 0 0 -0.1484375,-0.09766 z"
       id="path38" />
    <!-- Line -->
    <path
       style="baseline-shift:baseline;display:inline;overflow:visible;vector-effect:none;fill:#000000;stroke-linecap:butt;stroke-linejoin:miter;enable-background:accumulate;stop-color:#000000;stop-opacity:1;opacity:1;stroke:none"
       d="m -2.875,-27.359375 a 0.125,0.125 0 0 0 -0.1113281,0.136719 l 0.3222656,3.078125 a 0.125,0.125 0 0 0 0.1386719,0.111328 0.125,0.125 0 0 0 0.1113281,-0.138672 l -0.3242188,-3.076172 A 0.125,0.125 0 0 0 -2.875,-27.359375 Z"
       id="path39" />
    <!-- Line -->
    <path
       style="baseline-shift:baseline;display:inline;overflow:visible;vector-effect:none;fill:#000000;stroke-linecap:butt;stroke-linejoin:miter;enable-background:accumulate;stop-color:#000000;stop-opacity:1;opacity:1;stroke:none"
       d="m 2.875,-27.359375 a 0.125,0.125 0 0 0 -0.1367187,0.111328 l -0.3242188,3.076172 a 0.125,0.125 0 0 0 0.1113281,0.138672 0.125,0.125 0 0 0 0.1386719,-0.111328 l 0.3222656,-3.078125 A 0.125,0.125 0 0 0 2.875,-27.359375 Z"
       id="path40" />
    <!-- Line -->
    <path
       style="baseline-shift:baseline;display:inline;overflow:visible;vector-effect:none;fill:#000000;stroke-linecap:butt;stroke-linejoin:miter;enable-background:accumulate;stop-color:#000000;stop-opacity:1;opacity:1;stroke:none"
       d="m 5.9882812,-28.169922 a 0.125,0.125 0 0 0 -0.1484375,0.09766 L 5.125,-24.708984 a 0.125,0.125 0 0 0 0.095703,0.148437 0.125,0.125 0 0 0 0.1484375,-0.0957 l 0.7148438,-3.365234 a 0.125,0.125 0 0 0 -0.095703,-0.148438 z"
       id="path41" />
    <!-- Line -->
    <path
       style="baseline-shift:baseline;display:inline;overflow:visible;vector-effect:none;fill:#000000;stroke-linecap:butt;stroke-linejoin:miter;enable-background:accumulate;stop-color:#000000;stop-opacity:1;opacity:1;stroke:none"
       d="m 9.7714844,-30.076172 a 0.125,0.125 0 0 0 -0.15625,0.08008 l -1.3535156,4.166016 a 0.125,0.125 0 0 0 0.080078,0.158203 0.125,0.125 0 0 0 0.15625,-0.08008 l 1.3535156,-4.166016 a 0.125,0.125 0 0 0 -0.080078,-0.158203 z"
       id="path42" />
    <!-- Line -->
    <path
       style="baseline-shift:baseline;display:inline;overflow:visible;vector-effect:none;fill:#000000;stroke-linecap:butt;stroke-linejoin:miter;enable-background:accumulate;stop-color:#000000;stop-opacity:1;opacity:1;stroke:none"
       d="m 26.230469,-36.101562 a 0.125,0.125 0 0 0 -0.175782,0.02734 l -1.763671,2.425782 a 0.125,0.125 0 0 0 0.0293,0.175781 0.125,0.125 0 0 0 0.173829,-0.02734 l 1.763671,-2.427734 a 0.125,0.125 0 0 0 -0.02734,-0.173828 z"
       id="path43" />
    <!-- Line -->
    <path
       style="baseline-shift:baseline;display:inline;overflow:visible;vector-effect:none;fill:#000000;stroke-linecap:butt;stroke-linejoin:miter;enable-background:accumulate;stop-color:#000000;stop-opacity:1;opacity:1;stroke:none"
       d="m 29.859375,-33.162109 a 0.125,0.125 0 0 0 -0.175781,0.0078 l -2.007813,2.230469 a 0.125,0.125 0 0 0 0.0098,0.175781 0.125,0.125 0 0 0 0.175781,-0.0098 l 2.007813,-2.228516 a 0.125,0.125 0 0 0 -0.0098,-0.175781 z"
       id="path44" />
    <!-- Line -->
    <path
       style="baseline-shift:baseline;display:inline;overflow:visible;vector-effect:none;fill:#000000;stroke-linecap:butt;stroke-linejoin:miter;enable-background:accumulate;stop-color:#000000;stop-opacity:1;opacity:1;stroke:none"
       d="m 32.986328,-29.869141 -2.228516,2.007813 a 0.125,0.125 0 0 0 -0.0098,0.175781 0.125,0.125 0 0 0 0.175781,0.0098 l 2.230469,-2.007813 a 0.125,0.125 0 0 0 0.0078,-0.175781 0.125,0.125 0 0 0 -0.175781,-0.0098 z"
       id="path45" />
    <!-- Line -->
    <path
       style="baseline-shift:baseline;display:inline;overflow:visible;vector-effect:none;fill:#000000;stroke-linecap:butt;stroke-linejoin:miter;enable-background:accumulate;stop-color:#000000;stop-opacity:1;opacity:1;stroke:none"
       d="M 35.927734,-26.257812 33.5,-24.494141 a 0.125,0.125 0 0 0 -0.02734,0.173829 0.125,0.125 0 0 0 0.175781,0.0293 l 2.425782,-1.763671 a 0.125,0.125 0 0 0 0.02734,-0.175782 0.125,0.125 0 0 0 -0.173828,-0.02734 z"
       id="path46" />
    <!-- Line -->
    <path
       style="baseline-shift:baseline;display:inline;overflow:visible;vector-effect:none;fill:#000000;stroke-linecap:butt;stroke-linejoin:miter;enable-background:accumulate;stop-color:#000000;stop-opacity:1;opacity:1;stroke:none"
       d="m 40.601562,-18.214844 -2.740234,1.220703 a 0.125,0.125 0 0 0 -0.0625,0.166016 0.125,0.125 0 0 0 0.164063,0.0625 l 2.740234,-1.220703 a 0.125,0.125 0 0 0 0.06445,-0.164063 0.125,0.125 0 0 0 -0.166016,-0.06445 z"
       id="path47" />
    <!-- Line -->
    <path
       style="baseline-shift:baseline;display:inline;overflow:visible;vector-effect:none;fill:#000000;stroke-linecap:butt;stroke-linejoin:miter;enable-background:accumulate;stop-color:#000000;stop-opacity:1;opacity:1;stroke:none"
       d="m 42.283203,-13.871094 -2.853516,0.927735 a 0.125,0.125 0 0 0 -0.08008,0.158203 0.125,0.125 0 0 0 0.158203,0.08008 l 2.853516,-0.927735 a 0.125,0.125 0 0 0 0.08008,-0.15625 0.125,0.125 0 0 0 -0.158203,-0.08203 z"
       id="path48" />
    <!-- Line -->
    <path
       style="baseline-shift:baseline;display:inline;overflow:visible;vector-effect:none;fill:#000000;stroke-linecap:butt;stroke-linejoin:miter;enable-background:accumulate;stop-color:#000000;stop-opacity:1;opacity:1;stroke:none"
       d="m 43.501953,-9.375 -2.935547,0.625 a 0.125,0.125 0 0 0 -0.0957,0.1484375 0.125,0.125 0 0 0 0.148438,0.095703 l 2.933593,-0.6230469 A 0.125,0.125 0 0 0 43.650391,-9.2773438 0.125,0.125 0 0 0 43.501953,-9.375 Z"
       id="path49" />
    <!-- Line -->
    <path
       style="baseline-shift:baseline;display:inline;overflow:visible;vector-effect:none;fill:#000000;stroke-linecap:butt;stroke-linejoin:miter;enable-background:accumulate;stop-color:#000000;stop-opacity:1;opacity:1;stroke:none"
       d="m 44.242187,-4.7753906 -2.982421,0.3125 a 0.125,0.125 0 0 0 -0.111329,0.1386719 0.125,0.125 0 0 0 0.136719,0.1113281 l 2.984375,-0.3144531 a 0.125,0.125 0 0 0 0.111328,-0.1367188 0.125,0.125 0 0 0 -0.138672,-0.1113281 z"
       id="path50" />
    <!-- Line -->
    <path
       style="baseline-shift:baseline;display:inline;overflow:visible;vector-effect:none;fill:#000000;stroke-linecap:butt;stroke-linejoin:miter;enable-background:accumulate;stop-color:#000000;stop-opacity:1;opacity:1;stroke:none"
       d="M 26.550781,5.515625 A 0.125,0.125 0 0 0 26.404297,5.6113281 0.125,0.125 0 0 0 26.5,5.7597656 l 4.283203,0.9121094 a 0.125,0.125 0 0 0 0.148438,-0.097656 0.125,0.125 0 0 0 -0.0957,-0.1484375 z"
       id="path51" />
    <!-- Line -->
    <path
       style="baseline-shift:baseline;display:inline;overflow:visible;vector-effect:none;fill:#000000;stroke-linecap:butt;stroke-linejoin:miter;enable-background:accumulate;stop-color:#000000;stop-opacity:1;opacity:1;stroke:none"
       d="m 24.037109,7.6796875 a 0.125,0.125 0 0 0 -0.15625,0.080078 0.125,0.125 0 0 0 0.08008,0.15625 l 3.269532,1.0625 a 0.125,0.125 0 0 0 0.158203,-0.080078 0.125,0.125 0 0 0 -0.08008,-0.15625 z"
       id="path52" />
    <!-- Line -->
    <path
       style="baseline-shift:baseline;display:inline;overflow:visible;vector-effect:none;fill:#000000;stroke-linecap:butt;stroke-linejoin:miter;enable-background:accumulate;stop-color:#000000;stop-opacity:1;opacity:1;stroke:none"
       d="m 22.242187,9.765625 a 0.125,0.125 0 0 0 -0.166015,0.064453 0.125,0.125 0 0 0 0.06445,0.1640625 l 2.826172,1.2597654 a 0.125,0.125 0 0 0 0.166015,-0.06445 0.125,0.125 0 0 0 -0.06445,-0.164062 z"
       id="path53" />
    <!-- Line -->
    <path
       style="baseline-shift:baseline;display:inline;overflow:visible;vector-effect:none;fill:#000000;stroke-linecap:butt;stroke-linejoin:miter;enable-background:accumulate;stop-color:#000000;stop-opacity:1;opacity:1;stroke:none"
       d="m 19.724609,14.175781 a 0.125,0.125 0 0 0 -0.173828,0.0293 0.125,0.125 0 0 0 0.02734,0.173828 l 2.503906,1.81836 a 0.125,0.125 0 0 0 0.173828,-0.02734 0.125,0.125 0 0 0 -0.02734,-0.173828 z"
       id="path54" />
    <!-- Line -->
    <path
       style="baseline-shift:baseline;display:inline;overflow:visible;vector-effect:none;fill:#000000;stroke-linecap:butt;stroke-linejoin:miter;enable-background:accumulate;stop-color:#000000;stop-opacity:1;opacity:1;stroke:none"
       d="m 18.835937,16.792969 a 0.125,0.125 0 0 0 -0.175781,0.0078 0.125,0.125 0 0 0 0.0098,0.177735 l 2.554687,2.300781 a 0.125,0.125 0 0 0 0.175782,-0.0098 0.125,0.125 0 0 0 -0.0078,-0.175781 z"
       id="path55" />
    <!-- Line -->
    <path
       style="baseline-shift:baseline;display:inline;overflow:visible;vector-effect:none;fill:#000000;stroke-linecap:butt;stroke-linejoin:miter;enable-background:accumulate;stop-color:#000000;stop-opacity:1;opacity:1;stroke:none"
       d="m 18.0625,20.060547 a 0.125,0.125 0 0 0 -0.0098,0.175781 l 2.931641,3.255859 a 0.125,0.125 0 0 0 0.175781,0.0078 0.125,0.125 0 0 0 0.0098,-0.175781 l -2.931641,-3.25586 a 0.125,0.125 0 0 0 -0.175781,-0.0078 z"
       id="path56" />
    <!-- Line -->
    <path
       style="baseline-shift:baseline;display:inline;overflow:visible;vector-effect:none;fill:#000000;stroke-linecap:butt;stroke-linejoin:miter;enable-background:accumulate;stop-color:#000000;stop-opacity:1;opacity:1;stroke:none"
       d="m 16.828125,37.798828 a 0.125,0.125 0 0 0 -0.0625,0.164063 l 1.220703,2.740234 a 0.125,0.125 0 0 0 0.164063,0.06445 0.125,0.125 0 0 0 0.06445,-0.166016 l -1.220703,-2.740234 a 0.125,0.125 0 0 0 -0.166016,-0.0625 z"
       id="path57" />
    <!-- Line -->
    <path
       style="baseline-shift:baseline;display:inline;overflow:visible;vector-effect:none;fill:#000000;stroke-linecap:butt;stroke-linejoin:miter;enable-background:accumulate;stop-color:#000000;stop-opacity:1;opacity:1;stroke:none"
       d="m 12.785156,39.349609 a 0.125,0.125 0 0 0 -0.08008,0.158203 l 0.927735,2.853516 a 0.125,0.125 0 0 0 0.15625,0.08008 0.125,0.125 0 0 0 0.08203,-0.158203 l -0.927735,-2.853516 a 0.125,0.125 0 0 0 -0.158203,-0.08008 z"
       id="path58" />
    <!-- Line -->
    <path
       style="baseline-shift:baseline;display:inline;overflow:visible;vector-effect:none;fill:#000000;stroke-linecap:butt;stroke-linejoin:miter;enable-background:accumulate;stop-color:#000000;stop-opacity:1;opacity:1;stroke:none"
       d="m 8.6015625,40.470703 a 0.125,0.125 0 0 0 -0.095703,0.148438 l 0.6230469,2.933593 A 0.125,0.125 0 0 0 9.2773438,43.650391 0.125,0.125 0 0 0 9.375,43.501953 L 8.75,40.566406 a 0.125,0.125 0 0 0 -0.1484375,-0.0957 z"
       id="path59" />
    <!-- Line -->
    <path
       style="baseline-shift:baseline;display:inline;overflow:visible;vector-effect:none;fill:#000000;stroke-linecap:butt;stroke-linejoin:miter;enable-background:accumulate;stop-color:#000000;stop-opacity:1;opacity:1;stroke:none"
       d="m 4.3242187,41.148437 a 0.125,0.125 0 0 0 -0.1113281,0.136719 l 0.3144531,2.984375 a 0.125,0.125 0 0 0 0.1367188,0.111328 0.125,0.125 0 0 0 0.1113281,-0.138672 l -0.3125,-2.982421 A 0.125,0.125 0 0 0 4.3242187,41.148437 Z"
       id="path60" />
    <!-- Circle -->
    <path
       style="baseline-shift:baseline;display:inline;overflow:visible;vector-effect:none;fill:#000000;stroke-linecap:butt;stroke-linejoin:miter;enable-background:accumulate;stop-color:#000000;stop-opacity:1;opacity:1;stroke:none"
       d="m 0,-6.25 c -3.4488185,0 -6.25,2.8011815 -6.25,6.25 0,3.4488185 2.8011815,6.25 6.25,6.25 C 3.4488185,6.25 6.25,3.4488185 6.25,0 6.25,-3.4488185 3.4488185,-6.25 0,-6.25 Z m 0,0.5 c 3.1785985,0 5.75,2.5714015 5.75,5.75 0,3.1785985 -2.5714015,5.75 -5.75,5.75 -3.1785985,0 -5.75,-2.5714015 -5.75,-5.75 0,-3.1785985 2.5714015,-5.75 5.75,-5.75 z"
       id="circle60" />
    <!-- Text: 12 -->
    <g
       id="g61"
       style="fill:#000000;stroke:none">
      <path
         d="M-3.2548,30.15 L-3.2548,35.6886 L-4.234,34.5156 L-5.177,34.5156 L-3.5107,36.5 L-2.5222,36.5 L-2.5222,30.15 Z M-1.2352,30.15 L-1.2352,32.5313 C-1.2352,32.7316 -1.188,32.9126 -1.0937,33.0742 C-0.9994,33.2359 -0.8715,33.3637 -0.7098,33.4576 C-0.5482,33.5516 -0.3675,33.5986 -0.1679,33.5986 L4.1097,33.5986 C4.2036,33.5986 4.2845,33.6324 4.3522,33.7001 C4.4199,33.7678 4.4537,33.8486 4.4537,33.9426 L4.4537,35.4337 C4.4537,35.5277 4.4199,35.6083 4.3522,35.6757 C4.2845,35.743 4.2036,35.7767 4.1097,35.7767 L-0.1679,35.7767 C-0.2618,35.7767 -0.3426,35.743 -0.4103,35.6757 C-0.478,35.6083 -0.5119,35.5277 -0.5119,35.4337 L-0.5119,35.1861 L-1.2352,35.1861 L-1.2352,35.4337 C-1.2352,35.6334 -1.188,35.814 -1.0937,35.9757 C-0.9994,36.1373 -0.8715,36.2667 -0.7098,36.3637 C-0.5482,36.4608 -0.3675,36.5093 -0.1679,36.5093 L4.1097,36.5093 C4.3038,36.5093 4.4817,36.4608 4.6433,36.3637 C4.805,36.2667 4.9343,36.1373 5.0314,35.9757 C5.1285,35.814 5.177,35.6334 5.177,35.4337 L5.177,33.9426 C5.177,33.7485 5.1285,33.5706 5.0314,33.4089 C4.9343,33.2473 4.805,33.1179 4.6433,33.0209 C4.4817,32.9238 4.3038,32.8753 4.1097,32.8753 L-0.1679,32.8753 C-0.2618,32.8753 -0.3426,32.8414 -0.4103,32.7737 C-0.478,32.706 -0.5119,32.6252 -0.5119,32.5313 L-0.5119,31.2173 C-0.5119,31.1234 -0.478,31.0425 -0.4103,30.9748 C-0.3426,30.9071 -0.2618,30.8733 -0.1679,30.8733 L5.177,30.8733 L5.177,30.15 Z"
         style="fill:#000000;fill-rule:evenodd;stroke:none"
         id="path61" />
    </g>
    <!-- Text: 11 -->
    <g
       id="g62"
       style="fill:#000000;stroke:none">
      <path
         d="M-16.3185,25.2599 L-16.3185,30.7986 L-17.2977,29.6256 L-18.2407,29.6256 L-16.5744,31.6099 L-15.5859,31.6099 L-15.5859,25.2599 Z M-12.8699,25.2599 L-12.8699,30.7986 L-13.8491,29.6256 L-14.7921,29.6256 L-13.1259,31.6099 L-12.1373,31.6099 L-12.1373,25.2599 Z"
         style="fill:#000000;fill-rule:evenodd;stroke:none"
         id="path62" />
    </g>
    <!-- Text: 9 -->
    <g
       id="g63"
       style="fill:#000000;stroke:none">
      <path
         d="M-34.9736,-3.175 C-35.127,-3.175 -35.2728,-3.1441 -35.4109,-3.0823 C-35.5491,-3.0204 -35.6681,-2.9351 -35.7679,-2.8263 C-35.8677,-2.7175 -35.9411,-2.5926 -35.9881,-2.4517 L-30.6961,-2.4517 C-30.6021,-2.4517 -30.5213,-2.4179 -30.4536,-2.3502 C-30.3859,-2.2825 -30.3521,-2.2016 -30.3521,-2.1077 L-30.3521,-0.829 C-30.3521,-0.735 -30.3859,-0.6542 -30.4536,-0.5865 C-30.5213,-0.5188 -30.6021,-0.485 -30.6961,-0.485 L-34.9736,-0.485 C-35.174,-0.485 -35.355,-0.4364 -35.5166,-0.3394 C-35.6783,-0.2423 -35.8076,-0.1129 -35.9047,0.0487 C-36.0017,0.2104 -36.0503,0.3882 -36.0503,0.5824 L-36.0503,2.1087 C-36.0503,2.3084 -36.0017,2.489 -35.9047,2.6507 C-35.8076,2.8123 -35.6783,2.9417 -35.5166,3.0387 C-35.355,3.1358 -35.174,3.1843 -34.9736,3.1843 L-30.6961,3.1843 C-30.502,3.1843 -30.3241,3.1358 -30.1624,3.0387 C-30.0008,2.9417 -29.8714,2.8123 -29.7744,2.6507 C-29.6773,2.489 -29.6288,2.3084 -29.6288,2.1087 L-29.6288,-2.1077 C-29.6288,-2.3018 -29.6773,-2.4797 -29.7744,-2.6413 C-29.8714,-2.803 -30.0008,-2.9324 -30.1624,-3.0294 C-30.3241,-3.1265 -30.502,-3.175 -30.6961,-3.175 Z M-34.9736,0.2383 L-30.3521,0.2383 L-30.3521,2.1087 C-30.3521,2.2027 -30.3859,2.2833 -30.4536,2.3507 C-30.5213,2.418 -30.6021,2.4517 -30.6961,2.4517 L-34.9736,2.4517 C-35.0683,2.4517 -35.1493,2.418 -35.2166,2.3507 C-35.284,2.2833 -35.3177,2.2027 -35.3177,2.1087 L-35.3177,0.5824 C-35.3177,0.4884 -35.284,0.4076 -35.2166,0.3399 C-35.1493,0.2722 -35.0683,0.2383 -34.9736,0.2383"
         style="fill:#000000;fill-rule:evenodd;stroke:none"
         id="path63" />
    </g>
    <!-- Text: 8 -->
    <g
       id="g64"
       style="fill:#000000;stroke:none">
      <path
         d="M-30.04,-18.25 C-30.2397,-18.25 -30.4203,-18.2015 -30.582,-18.1044 C-30.7436,-18.0074 -30.8716,-17.878 -30.9659,-17.7163 C-31.0602,-17.5547 -31.1074,-17.3768 -31.1074,-17.1827 L-31.1074,-15.6833 C-31.1074,-15.5658 -31.0839,-15.4468 -31.0369,-15.3263 C-30.9899,-15.2057 -30.925,-15.0895 -30.8421,-14.9776 C-30.925,-14.8657 -30.9899,-14.7481 -31.0369,-14.6248 C-31.0839,-14.5014 -31.1074,-14.3811 -31.1074,-14.2636 L-31.1074,-12.9663 C-31.1074,-12.7666 -31.0602,-12.586 -30.9659,-12.4243 C-30.8716,-12.2627 -30.7436,-12.1333 -30.582,-12.0363 C-30.4203,-11.9392 -30.2397,-11.8907 -30.04,-11.8907 L-25.7625,-11.8907 C-25.5974,-11.8907 -25.4428,-11.9333 -25.2988,-12.0186 C-25.1548,-12.104 -25.0283,-12.2157 -24.9195,-12.3539 C-24.8107,-12.492 -24.7359,-12.6374 -24.6952,-12.7901 L-24.6952,-14.2636 C-24.6952,-14.4985 -24.7833,-14.7365 -24.9594,-14.9776 C-24.7833,-15.2069 -24.6952,-15.4422 -24.6952,-15.6833 L-24.6952,-17.1827 C-24.6952,-17.3768 -24.7437,-17.5547 -24.8408,-17.7163 C-24.9378,-17.878 -25.0672,-18.0074 -25.2288,-18.1044 C-25.3905,-18.2015 -25.5684,-18.25 -25.7625,-18.25 Z M-30.04,-17.5267 L-25.7625,-17.5267 C-25.6685,-17.5267 -25.5877,-17.4929 -25.52,-17.4252 C-25.4523,-17.3575 -25.4185,-17.2766 -25.4185,-17.1827 L-25.4185,-15.6833 C-25.4185,-15.5893 -25.4523,-15.5085 -25.52,-15.4408 C-25.5877,-15.3731 -25.6685,-15.3392 -25.7625,-15.3392 L-30.04,-15.3392 C-30.134,-15.3392 -30.2148,-15.3731 -30.2825,-15.4408 C-30.3502,-15.5085 -30.3841,-15.5893 -30.3841,-15.6833 L-30.3841,-17.1827 C-30.3841,-17.2766 -30.3502,-17.3575 -30.2825,-17.4252 C-30.2148,-17.4929 -30.134,-17.5267 -30.04,-17.5267 M-30.04,-14.7134 L-25.7625,-14.7134 C-25.6685,-14.7134 -25.5877,-14.6795 -25.52,-14.6118 C-25.4523,-14.5441 -25.4185,-14.4633 -25.4185,-14.3693 L-25.4185,-12.9756 C-25.4185,-12.8817 -25.4523,-12.8008 -25.52,-12.7331 C-25.5877,-12.6654 -25.6685,-12.6316 -25.7625,-12.6316 L-30.04,-12.6316 C-30.134,-12.6316 -30.2148,-12.6654 -30.2825,-12.7331 C-30.3502,-12.8008 -30.3841,-12.8817 -30.3841,-12.9756 L-30.3841,-14.3693 C-30.3841,-14.4633 -30.3502,-14.5441 -30.2825,-14.6118 C-30.2148,-14.6795 -30.134,-14.7134 -30.04,-14.7134"
         style="fill:#000000;fill-rule:evenodd;stroke:none"
         id="path64" />
    </g>
    <!-- Text: 7 -->
    <g
       id="g65"
       style="fill:#000000;stroke:none">
      <path
         d="M-16.3231,-31.6099 L-16.3231,-26.3262 C-16.3231,-26.2323 -16.357,-26.1516 -16.4247,-26.0842 C-16.4924,-26.0169 -16.5732,-25.9832 -16.6672,-25.9832 L-20.9002,-25.9832 L-20.9002,-25.2506 L-16.6672,-25.2506 C-16.473,-25.2506 -16.2952,-25.2991 -16.1335,-25.3962 C-15.9719,-25.4933 -15.8425,-25.6226 -15.7454,-25.7843 C-15.6484,-25.9459 -15.5998,-26.1266 -15.5998,-26.3262 L-15.5998,-31.6099 Z"
         style="fill:#000000;fill-rule:evenodd;stroke:none"
         id="path65" />
    </g>
    <!-- Text: 5 -->
    <g
       id="g66"
       style="fill:#000000;stroke:none">
      <path
         d="M16.1112,-31.6099 C15.9116,-31.6099 15.7309,-31.5614 15.5693,-31.4643 C15.4076,-31.3673 15.2797,-31.2379 15.1854,-31.0763 C15.0911,-30.9146 15.0439,-30.7367 15.0439,-30.5426 L15.0439,-30.2867 L15.7672,-30.2867 L15.7672,-30.5426 C15.7672,-30.6366 15.801,-30.7174 15.8688,-30.7851 C15.9365,-30.8528 16.0173,-30.8866 16.1112,-30.8866 L20.3888,-30.8866 C20.4827,-30.8866 20.5635,-30.8528 20.6313,-30.7851 C20.699,-30.7174 20.7328,-30.6366 20.7328,-30.5426 L20.7328,-29.0432 C20.7328,-28.9492 20.699,-28.8684 20.6313,-28.8007 C20.5635,-28.733 20.4827,-28.6992 20.3888,-28.6992 L15.0439,-28.6992 L15.0439,-25.2506 L21.4561,-25.2506 L21.4561,-25.9832 L16.1112,-25.9832 C16.0173,-25.9832 15.9365,-26.0169 15.8688,-26.0842 C15.801,-26.1516 15.7672,-26.2323 15.7672,-26.3262 L15.7672,-27.6236 C15.7672,-27.7175 15.801,-27.7997 15.8688,-27.8702 C15.9365,-27.9406 16.0173,-27.9759 16.1112,-27.9759 L20.3888,-27.9759 C20.5829,-27.9759 20.7608,-28.023 20.9224,-28.1173 C21.0841,-28.2116 21.2134,-28.3396 21.3105,-28.5012 C21.4076,-28.6629 21.4561,-28.8435 21.4561,-29.0432 L21.4561,-30.5426 C21.4561,-30.7367 21.4076,-30.9146 21.3105,-31.0763 C21.2134,-31.2379 21.0841,-31.3673 20.9224,-31.4643 C20.7608,-31.5614 20.5829,-31.6099 20.3888,-31.6099 Z"
         style="fill:#000000;fill-rule:evenodd;stroke:none"
         id="path66" />
    </g>
    <!-- Text: 4 -->
    <g
       id="g67"
       style="fill:#000000;stroke:none">
      <path
         d="M29.8991,-18.25 L29.8991,-16.6097 L25.4713,-16.6097 L25.4713,-15.7983 L29.811,-11.8907 L30.6224,-11.8907 L30.6224,-15.8864 L31.6099,-15.8864 L31.6099,-16.6097 L30.6224,-16.6097 L30.6224,-18.25 Z M26.3977,-15.8864 L29.8991,-15.8864 L29.8991,-12.8699 Z"
         style="fill:#000000;fill-rule:evenodd;stroke:none"
         id="path67" />
    </g>
    <!-- Text: 3 -->
    <g
       id="g68"
       style="fill:#000000;stroke:none">
      <path
         d="M31.1551,-3.175 C30.9548,-3.175 30.7738,-3.1265 30.6122,-3.0294 C30.4505,-2.9324 30.3212,-2.803 30.2241,-2.6413 C30.127,-2.4797 30.0785,-2.3018 30.0785,-2.1077 L30.0785,-1.9668 L30.8111,-1.9668 L30.8111,-2.1077 C30.8111,-2.2016 30.8448,-2.2825 30.9121,-2.3502 C30.9795,-2.4179 31.0605,-2.4517 31.1551,-2.4517 L35.4327,-2.4517 C35.5266,-2.4517 35.6075,-2.4179 35.6752,-2.3502 C35.7429,-2.2825 35.7767,-2.2016 35.7767,-2.1077 L35.7767,-0.6352 C35.7767,-0.5406 35.7429,-0.4596 35.6752,-0.3922 C35.6075,-0.3249 35.5266,-0.2912 35.4327,-0.2912 L31.2961,-0.2912 L31.2961,0.4321 L35.1498,0.4321 C35.2444,0.4321 35.3254,0.466 35.3928,0.5337 C35.4601,0.6014 35.4938,0.6822 35.4938,0.7761 L35.4938,2.1087 C35.4938,2.2027 35.4601,2.2833 35.3928,2.3507 C35.3254,2.418 35.2444,2.4517 35.1498,2.4517 L31.1551,2.4517 C31.0605,2.4517 30.9795,2.418 30.9121,2.3507 C30.8448,2.2833 30.8111,2.2027 30.8111,2.1087 L30.8111,1.8787 L30.0785,1.8787 L30.0785,2.1087 C30.0785,2.3084 30.127,2.489 30.2241,2.6507 C30.3212,2.8123 30.4505,2.9417 30.6122,3.0387 C30.7738,3.1358 30.9548,3.1843 31.1551,3.1843 L35.1498,3.1843 C35.3501,3.1843 35.5311,3.1358 35.6928,3.0387 C35.8544,2.9417 35.9822,2.8123 36.0762,2.6507 C36.1701,2.489 36.2171,2.3084 36.2171,2.1087 L36.2171,0.7761 C36.2171,0.6939 36.2069,0.6131 36.1865,0.5337 C36.1662,0.4542 36.1411,0.3824 36.1114,0.3181 C36.2586,0.1765 36.3601,0.0206 36.4161,-0.1497 C36.472,-0.32 36.5,-0.4818 36.5,-0.6352 L36.5,-2.1077 C36.5,-2.3018 36.4515,-2.4797 36.3544,-2.6413 C36.2574,-2.803 36.128,-2.9324 35.9663,-3.0294 C35.8047,-3.1265 35.6268,-3.175 35.4327,-3.175 Z"
         style="fill:#000000;fill-rule:evenodd;stroke:none"
         id="path68" />
    </g>
    <!-- Text: 1 -->
    <g
       id="g69"
       style="fill:#000000;stroke:none">
      <path
         d="M17.5174,25.2599 L17.5174,30.7986 L16.5382,29.6256 L15.5952,29.6256 L17.2614,31.6099 L18.25,31.6099 L18.25,25.2599 Z"
         style="fill:#000000;fill-rule:evenodd;stroke:none"
         id="path69" />
    </g>
  </g>
</svg>
