<?xml version="1.0" encoding="UTF-8" standalone="no"?>
<!-- 2026-04-14 15:24:38 Generated by QCAD 3.28.2 SVG Exporter -->

<svg
   width="89mm"
   height="84.1657mm"
   viewBox="-44.5 -44.5 89 84.1657"
   version="1.1"
   style="stroke-linecap:round;stroke-linejoin:round;fill:none"
   id="svg70"
   sodipodi:docname="clock-face-architectsdaughter.svg"
   inkscape:version="1.4.3 (0d15f75042, 2025-12-25)"
   xmlns:inkscape="http://www.inkscape.org/namespaces/inkscape"
   xmlns:sodipodi="http://sodipodi.sourceforge.net/DTD/sodipodi-0.dtd"
   xmlns="http://www.w3.org/2000/svg"
   xmlns:svg="http://www.w3.org/2000/svg">
  <defs
     id="defs70" />
  <sodipodi:namedview
     id="namedview70"
     pagecolor="#ffffff"
     bordercolor="#000000"
     borderopacity="0.25"
     inkscape:showpageshadow="2"
     inkscape:pageopacity="0.0"
     inkscape:pagecheckerboard="0"
     inkscape:deskcolor="#d1d1d1"
     inkscape:document-units="mm"
     inkscape:zoom="2.4079979"
     inkscape:cx="168.18952"
     inkscape:cy="159.0533"
     inkscape:window-width="1920"
     inkscape:window-height="979"
     inkscape:window-x="320"
     inkscape:window-y="1440"
     inkscape:window-maximized="1"
     inkscape:current-layer="svg70" />
  <g
     transform="scale(1,-1)"
     id="g70"
     style="fill:#000000;stroke:none">
    <!-- Line -->
    <path
       style="baseline-shift:baseline;display:inline;overflow:visible;vector-effect:none;fill:#000000;stroke-linecap:butt;stroke-linejoin:miter;enable-background:accumulate;stop-color:#000000;stop-opacity:1;opacity:1;stroke:none"
       d="m -18.310547,10.283203 -5.197265,3 a 0.25,0.25 0 0 0 -0.0918,0.341797 0.25,0.25 0 0 0 0.341797,0.0918 l 5.197265,-3 a 0.25,0.25 0 0 0 0.08984,-0.341797 0.25,0.25 0 0 0 -0.339844,-0.0918 z"
       id="path1" />
    <!-- Line -->
    <path
       style="baseline-shift:baseline;display:inline;overflow:visible;vector-effect:none;fill:#000000;stroke-linecap:butt;stroke-linejoin:miter;enable-background:accumulate;stop-color:#000000;stop-opacity:1;opacity:1;stroke:none"
       d="M 0,-27.25 A 0.25,0.25 0 0 0 -0.25,-27 v 6 A 0.25,0.25 0 0 0 0,-20.75 0.25,0.25 0 0 0 0.25,-21 v -6 A 0.25,0.25 0 0 0 0,-27.25 Z"
       id="path2" />
    <!-- Line -->
    <path
       style="baseline-shift:baseline;display:inline;overflow:visible;vector-effect:none;fill:#000000;stroke-linecap:butt;stroke-linejoin:miter;enable-background:accumulate;stop-color:#000000;stop-opacity:1;opacity:1;stroke:none"
       d="m 18.310547,10.283203 a 0.25,0.25 0 0 0 -0.339844,0.0918 0.25,0.25 0 0 0 0.08984,0.341797 l 5.197265,3 a 0.25,0.25 0 0 0 0.341797,-0.0918 0.25,0.25 0 0 0 -0.0918,-0.341797 z"
       id="path3" />
    <!-- Arc -->
    <path
       style="baseline-shift:baseline;display:inline;overflow:visible;vector-effect:none;fill:#000000;stroke-linecap:butt;stroke-linejoin:miter;enable-background:accumulate;stop-color:#000000;stop-opacity:1;opacity:1;stroke:none"
       d="M -25.277344,35.095703 A 0.25,0.25 0 0 0 -25.625,35.152344 0.25,0.25 0 0 0 -25.568359,35.5 c 15.270852,10.998722 35.865866,10.998722 51.136718,0 a 0.25,0.25 0 0 0 0.05664,-0.347656 0.25,0.25 0 0 0 -0.347656,-0.05664 c -15.097872,10.874134 -35.456816,10.874134 -50.554688,0 z"
       id="path4" />
    <!-- Arc -->
    <path
       style="baseline-shift:baseline;display:inline;overflow:visible;vector-effect:none;fill:#000000;stroke-linecap:butt;stroke-linejoin:miter;enable-background:accumulate;stop-color:#000000;stop-opacity:1;opacity:1;stroke:none"
       d="m -37.199219,3.546875 c -2.025771,-0.1455704 -4.098458,0.037491 -6.144531,0.5800781 a 0.25,0.25 0 0 0 -0.177734,0.3046875 0.25,0.25 0 0 0 0.304687,0.1777344 c 7.968326,-2.1130755 16.362506,1.3763328 20.484375,8.515625 4.121869,7.139292 2.946956,16.151862 -2.867187,21.996094 a 0.25,0.25 0 0 0 0,0.353515 0.25,0.25 0 0 0 0.353515,0 c 5.971725,-6.002628 7.178897,-15.26682 2.945313,-22.599609 -3.175189,-5.4995916 -8.821124,-8.8914138 -14.898438,-9.328125 z"
       id="path5" />
    <!-- Arc -->
    <path
       style="baseline-shift:baseline;display:inline;overflow:visible;vector-effect:none;fill:#000000;stroke-linecap:butt;stroke-linejoin:miter;enable-background:accumulate;stop-color:#000000;stop-opacity:1;opacity:1;stroke:none"
       d="M 37.199219,3.546875 C 31.121905,3.9835862 25.47597,7.3754084 22.300781,12.875 c -4.233584,7.332789 -3.026412,16.596981 2.945313,22.599609 a 0.25,0.25 0 0 0 0.353515,0 0.25,0.25 0 0 0 0,-0.353515 C 19.785466,29.276862 18.610553,20.264292 22.732422,13.125 26.854291,5.9857078 35.248471,2.4962995 43.216797,4.609375 A 0.25,0.25 0 0 0 43.521484,4.4316406 0.25,0.25 0 0 0 43.34375,4.1269531 C 41.297677,3.5843665 39.22499,3.4013046 37.199219,3.546875 Z"
       id="path6" />
    <!-- Arc -->
    <path
       style="baseline-shift:baseline;display:inline;overflow:visible;vector-effect:none;fill:#000000;stroke-linecap:butt;stroke-linejoin:miter;enable-background:accumulate;stop-color:#000000;stop-opacity:1;opacity:1;stroke:none"
       d="m -17.958984,-39.894531 c -17.160617,7.725591 -27.46008,25.562786 -25.570313,44.2871091 a 0.25,0.25 0 0 0 0.273438,0.2246094 0.25,0.25 0 0 0 0.224609,-0.2734375 c -1.868361,-18.512223 8.311115,-36.143171 25.277344,-43.78125 a 0.25,0.25 0 0 0 0.125,-0.330078 0.25,0.25 0 0 0 -0.330078,-0.126953 z"
       id="path7" />
    <!-- Arc -->
    <path
       style="baseline-shift:baseline;display:inline;overflow:visible;vector-effect:none;fill:#000000;stroke-linecap:butt;stroke-linejoin:miter;enable-background:accumulate;stop-color:#000000;stop-opacity:1;opacity:1;stroke:none"
       d="m -17.921875,-39.90625 a 0.25,0.25 0 0 0 -0.175781,0.306641 C -15.885075,-31.426648 -8.4671598,-25.75 0,-25.75 c 8.4671598,0 15.885075,-5.676648 18.097656,-13.849609 a 0.25,0.25 0 0 0 -0.175781,-0.306641 0.25,0.25 0 0 0 -0.306641,0.175781 C 15.461039,-31.773175 8.2437295,-26.25 0,-26.25 c -8.2437295,0 -15.461039,-5.523175 -17.615234,-13.480469 a 0.25,0.25 0 0 0 -0.306641,-0.175781 z"
       id="path8" />
    <!-- Arc -->
    <path
       style="baseline-shift:baseline;display:inline;overflow:visible;vector-effect:none;fill:#000000;stroke-linecap:butt;stroke-linejoin:miter;enable-background:accumulate;stop-color:#000000;stop-opacity:1;opacity:1;stroke:none"
       d="m 17.958984,-39.894531 a 0.25,0.25 0 0 0 -0.330078,0.126953 0.25,0.25 0 0 0 0.125,0.330078 c 16.966229,7.638079 27.145705,25.269027 25.277344,43.78125 a 0.25,0.25 0 0 0 0.224609,0.2734375 0.25,0.25 0 0 0 0.273438,-0.2246094 C 45.419064,-14.331745 35.119601,-32.16894 17.958984,-39.894531 Z"
       id="path9" />
    <!-- Line -->
    <path
       style="baseline-shift:baseline;display:inline;overflow:visible;vector-effect:none;fill:#000000;stroke-linecap:butt;stroke-linejoin:miter;enable-background:accumulate;stop-color:#000000;stop-opacity:1;opacity:1;stroke:none"
       d="m 0,38.25 a 0.25,0.25 0 0 0 -0.25,0.25 v 6 A 0.25,0.25 0 0 0 0,44.75 0.25,0.25 0 0 0 0.25,44.5 v -6 A 0.25,0.25 0 0 0 0,38.25 Z"
       id="path10" />
    <!-- Line -->
    <path
       style="baseline-shift:baseline;display:inline;overflow:visible;vector-effect:none;fill:#000000;stroke-linecap:butt;stroke-linejoin:miter;enable-background:accumulate;stop-color:#000000;stop-opacity:1;opacity:1;stroke:none"
       d="m -19.125,33.125 a 0.25,0.25 0 0 0 -0.341797,0.0918 l -3,5.197265 a 0.25,0.25 0 0 0 0.0918,0.339844 0.25,0.25 0 0 0 0.341797,-0.08984 l 3,-5.197265 A 0.25,0.25 0 0 0 -19.125,33.125 Z"
       id="path11" />
    <!-- Line -->
    <path
       style="baseline-shift:baseline;display:inline;overflow:visible;vector-effect:none;fill:#000000;stroke-linecap:butt;stroke-linejoin:miter;enable-background:accumulate;stop-color:#000000;stop-opacity:1;opacity:1;stroke:none"
       d="M -44.5,-0.25 A 0.25,0.25 0 0 0 -44.75,0 0.25,0.25 0 0 0 -44.5,0.25 h 6 A 0.25,0.25 0 0 0 -38.25,0 0.25,0.25 0 0 0 -38.5,-0.25 Z"
       id="path12" />
    <!-- Line -->
    <path
       style="baseline-shift:baseline;display:inline;overflow:visible;vector-effect:none;fill:#000000;stroke-linecap:butt;stroke-linejoin:miter;enable-background:accumulate;stop-color:#000000;stop-opacity:1;opacity:1;stroke:none"
       d="m -38.414062,-22.466797 a 0.25,0.25 0 0 0 -0.339844,0.0918 0.25,0.25 0 0 0 0.08984,0.341797 l 5.197265,3 a 0.25,0.25 0 0 0 0.341797,-0.0918 0.25,0.25 0 0 0 -0.0918,-0.341797 z"
       id="path13" />
    <!-- Line -->
    <path
       style="baseline-shift:baseline;display:inline;overflow:visible;vector-effect:none;fill:#000000;stroke-linecap:butt;stroke-linejoin:miter;enable-background:accumulate;stop-color:#000000;stop-opacity:1;opacity:1;stroke:none"
       d="m -22.375,-38.753906 a 0.25,0.25 0 0 0 -0.0918,0.339844 l 3,5.197265 a 0.25,0.25 0 0 0 0.341797,0.0918 0.25,0.25 0 0 0 0.0918,-0.341797 l -3,-5.197265 a 0.25,0.25 0 0 0 -0.341797,-0.08984 z"
       id="path14" />
    <!-- Line -->
    <path
       style="baseline-shift:baseline;display:inline;overflow:visible;vector-effect:none;fill:#000000;stroke-linecap:butt;stroke-linejoin:miter;enable-background:accumulate;stop-color:#000000;stop-opacity:1;opacity:1;stroke:none"
       d="m 22.375,-38.753906 a 0.25,0.25 0 0 0 -0.341797,0.08984 l -3,5.197265 a 0.25,0.25 0 0 0 0.0918,0.341797 0.25,0.25 0 0 0 0.341797,-0.0918 l 3,-5.197265 a 0.25,0.25 0 0 0 -0.0918,-0.339844 z"
       id="path15" />
    <!-- Line -->
    <path
       style="baseline-shift:baseline;display:inline;overflow:visible;vector-effect:none;fill:#000000;stroke-linecap:butt;stroke-linejoin:miter;enable-background:accumulate;stop-color:#000000;stop-opacity:1;opacity:1;stroke:none"
       d="m 38.414062,-22.466797 -5.197265,3 a 0.25,0.25 0 0 0 -0.0918,0.341797 0.25,0.25 0 0 0 0.341797,0.0918 l 5.197265,-3 a 0.25,0.25 0 0 0 0.08984,-0.341797 0.25,0.25 0 0 0 -0.339844,-0.0918 z"
       id="path16" />
    <!-- Line -->
    <path
       style="baseline-shift:baseline;display:inline;overflow:visible;vector-effect:none;fill:#000000;stroke-linecap:butt;stroke-linejoin:miter;enable-background:accumulate;stop-color:#000000;stop-opacity:1;opacity:1;stroke:none"
       d="M 38.5,-0.25 A 0.25,0.25 0 0 0 38.25,0 0.25,0.25 0 0 0 38.5,0.25 h 6 A 0.25,0.25 0 0 0 44.75,0 0.25,0.25 0 0 0 44.5,-0.25 Z"
       id="path17" />
    <!-- Line -->
    <path
       style="baseline-shift:baseline;display:inline;overflow:visible;vector-effect:none;fill:#000000;stroke-linecap:butt;stroke-linejoin:miter;enable-background:accumulate;stop-color:#000000;stop-opacity:1;opacity:1;stroke:none"
       d="m 19.125,33.125 a 0.25,0.25 0 0 0 -0.0918,0.341797 l 3,5.197265 a 0.25,0.25 0 0 0 0.341797,0.08984 0.25,0.25 0 0 0 0.0918,-0.339844 l -3,-5.197265 A 0.25,0.25 0 0 0 19.125,33.125 Z"
       id="path18" />
    <!-- Line -->
    <path
       style="baseline-shift:baseline;display:inline;overflow:visible;vector-effect:none;fill:#000000;stroke-linecap:butt;stroke-linejoin:miter;enable-background:accumulate;stop-color:#000000;stop-opacity:1;opacity:1;stroke:none"
       d="m -4.3242187,41.148437 a 0.125,0.125 0 0 0 -0.1386719,0.111329 l -0.3125,2.982421 a 0.125,0.125 0 0 0 0.1113281,0.138672 0.125,0.125 0 0 0 0.1367188,-0.111328 l 0.3144531,-2.984375 a 0.125,0.125 0 0 0 -0.1113281,-0.136719 z"
       id="path19" />
    <!-- Line -->
    <path
       style="baseline-shift:baseline;display:inline;overflow:visible;vector-effect:none;fill:#000000;stroke-linecap:butt;stroke-linejoin:miter;enable-background:accumulate;stop-color:#000000;stop-opacity:1;opacity:1;stroke:none"
       d="M -8.6015625,40.470703 A 0.125,0.125 0 0 0 -8.75,40.566406 l -0.625,2.935547 a 0.125,0.125 0 0 0 0.097656,0.148438 0.125,0.125 0 0 0 0.1484375,-0.09766 l 0.6230469,-2.933593 a 0.125,0.125 0 0 0 -0.095703,-0.148438 z"
       id="path20" />
    <!-- Line -->
    <path
       style="baseline-shift:baseline;display:inline;overflow:visible;vector-effect:none;fill:#000000;stroke-linecap:butt;stroke-linejoin:miter;enable-background:accumulate;stop-color:#000000;stop-opacity:1;opacity:1;stroke:none"
       d="m -12.785156,39.349609 a 0.125,0.125 0 0 0 -0.158203,0.08008 l -0.927735,2.853516 a 0.125,0.125 0 0 0 0.08203,0.158203 0.125,0.125 0 0 0 0.15625,-0.08008 l 0.927735,-2.853516 a 0.125,0.125 0 0 0 -0.08008,-0.158203 z"
       id="path21" />
    <!-- Line -->
    <path
       style="baseline-shift:baseline;display:inline;overflow:visible;vector-effect:none;fill:#000000;stroke-linecap:butt;stroke-linejoin:miter;enable-background:accumulate;stop-color:#000000;stop-opacity:1;opacity:1;stroke:none"
       d="m -16.828125,37.798828 a 0.125,0.125 0 0 0 -0.166016,0.0625 l -1.220703,2.740234 a 0.125,0.125 0 0 0 0.06445,0.166016 0.125,0.125 0 0 0 0.164063,-0.06445 l 1.220703,-2.740234 a 0.125,0.125 0 0 0 -0.0625,-0.164063 z"
       id="path22" />
    <!-- Line -->
    <path
       style="baseline-shift:baseline;display:inline;overflow:visible;vector-effect:none;fill:#000000;stroke-linecap:butt;stroke-linejoin:miter;enable-background:accumulate;stop-color:#000000;stop-opacity:1;opacity:1;stroke:none"
       d="m -18.0625,20.060547 a 0.125,0.125 0 0 0 -0.175781,0.0078 l -2.931641,3.25586 a 0.125,0.125 0 0 0 0.0098,0.175781 0.125,0.125 0 0 0 0.175781,-0.0078 l 2.931641,-3.255859 a 0.125,0.125 0 0 0 -0.0098,-0.175781 z"
       id="path23" />
    <!-- Line -->
    <path
       style="baseline-shift:baseline;display:inline;overflow:visible;vector-effect:none;fill:#000000;stroke-linecap:butt;stroke-linejoin:miter;enable-background:accumulate;stop-color:#000000;stop-opacity:1;opacity:1;stroke:none"
       d="m -18.835937,16.792969 -2.556641,2.300781 a 0.125,0.125 0 0 0 -0.0078,0.175781 0.125,0.125 0 0 0 0.175782,0.0098 l 2.554687,-2.300781 a 0.125,0.125 0 0 0 0.0098,-0.177735 0.125,0.125 0 0 0 -0.175781,-0.0078 z"
       id="path24" />
    <!-- Line -->
    <path
       style="baseline-shift:baseline;display:inline;overflow:visible;vector-effect:none;fill:#000000;stroke-linecap:butt;stroke-linejoin:miter;enable-background:accumulate;stop-color:#000000;stop-opacity:1;opacity:1;stroke:none"
       d="m -19.724609,14.175781 -2.503907,1.820313 a 0.125,0.125 0 0 0 -0.02734,0.173828 0.125,0.125 0 0 0 0.173828,0.02734 l 2.503906,-1.81836 a 0.125,0.125 0 0 0 0.02734,-0.173828 0.125,0.125 0 0 0 -0.173828,-0.0293 z"
       id="path25" />
    <!-- Line -->
    <path
       style="baseline-shift:baseline;display:inline;overflow:visible;vector-effect:none;fill:#000000;stroke-linecap:butt;stroke-linejoin:miter;enable-background:accumulate;stop-color:#000000;stop-opacity:1;opacity:1;stroke:none"
       d="m -22.242187,9.765625 -2.826172,1.259766 a 0.125,0.125 0 0 0 -0.06445,0.164062 0.125,0.125 0 0 0 0.166015,0.06445 l 2.826172,-1.2597654 a 0.125,0.125 0 0 0 0.06445,-0.1640625 0.125,0.125 0 0 0 -0.166015,-0.064453 z"
       id="path26" />
    <!-- Line -->
    <path
       style="baseline-shift:baseline;display:inline;overflow:visible;vector-effect:none;fill:#000000;stroke-linecap:butt;stroke-linejoin:miter;enable-background:accumulate;stop-color:#000000;stop-opacity:1;opacity:1;stroke:none"
       d="m -24.037109,7.6796875 -3.271485,1.0625 a 0.125,0.125 0 0 0 -0.08008,0.15625 0.125,0.125 0 0 0 0.158203,0.080078 l 3.269532,-1.0625 a 0.125,0.125 0 0 0 0.08008,-0.15625 0.125,0.125 0 0 0 -0.15625,-0.080078 z"
       id="path27" />
    <!-- Line -->
    <path
       style="baseline-shift:baseline;display:inline;overflow:visible;vector-effect:none;fill:#000000;stroke-linecap:butt;stroke-linejoin:miter;enable-background:accumulate;stop-color:#000000;stop-opacity:1;opacity:1;stroke:none"
       d="m -26.550781,5.515625 -4.285156,0.9101562 a 0.125,0.125 0 0 0 -0.0957,0.1484375 0.125,0.125 0 0 0 0.148438,0.097656 L -26.5,5.7597656 a 0.125,0.125 0 0 0 0.0957,-0.1484375 0.125,0.125 0 0 0 -0.146484,-0.095703 z"
       id="path28" />
    <!-- Line -->
    <path
       style="baseline-shift:baseline;display:inline;overflow:visible;vector-effect:none;fill:#000000;stroke-linecap:butt;stroke-linejoin:miter;enable-background:accumulate;stop-color:#000000;stop-opacity:1;opacity:1;stroke:none"
       d="m -44.242187,-4.7753906 a 0.125,0.125 0 0 0 -0.138672,0.1113281 0.125,0.125 0 0 0 0.111328,0.1367188 l 2.984375,0.3144531 a 0.125,0.125 0 0 0 0.136719,-0.1113281 0.125,0.125 0 0 0 -0.111329,-0.1386719 z"
       id="path29" />
    <!-- Line -->
    <path
       style="baseline-shift:baseline;display:inline;overflow:visible;vector-effect:none;fill:#000000;stroke-linecap:butt;stroke-linejoin:miter;enable-background:accumulate;stop-color:#000000;stop-opacity:1;opacity:1;stroke:none"
       d="m -43.501953,-9.375 a 0.125,0.125 0 0 0 -0.148438,0.097656 0.125,0.125 0 0 0 0.09766,0.1484375 l 2.933593,0.6230469 a 0.125,0.125 0 0 0 0.148438,-0.095703 0.125,0.125 0 0 0 -0.0957,-0.1484375 z"
       id="path30" />
    <!-- Line -->
    <path
       style="baseline-shift:baseline;display:inline;overflow:visible;vector-effect:none;fill:#000000;stroke-linecap:butt;stroke-linejoin:miter;enable-background:accumulate;stop-color:#000000;stop-opacity:1;opacity:1;stroke:none"
       d="m -42.283203,-13.871094 a 0.125,0.125 0 0 0 -0.158203,0.08203 0.125,0.125 0 0 0 0.08008,0.15625 l 2.853516,0.927735 a 0.125,0.125 0 0 0 0.158203,-0.08008 0.125,0.125 0 0 0 -0.08008,-0.158203 z"
       id="path31" />
    <!-- Line -->
    <path
       style="baseline-shift:baseline;display:inline;overflow:visible;vector-effect:none;fill:#000000;stroke-linecap:butt;stroke-linejoin:miter;enable-background:accumulate;stop-color:#000000;stop-opacity:1;opacity:1;stroke:none"
       d="m -40.601562,-18.214844 a 0.125,0.125 0 0 0 -0.166016,0.06445 0.125,0.125 0 0 0 0.06445,0.164063 l 2.740234,1.220703 a 0.125,0.125 0 0 0 0.164063,-0.0625 0.125,0.125 0 0 0 -0.0625,-0.166016 z"
       id="path32" />
    <!-- Line -->
    <path
       style="baseline-shift:baseline;display:inline;overflow:visible;vector-effect:none;fill:#000000;stroke-linecap:butt;stroke-linejoin:miter;enable-background:accumulate;stop-color:#000000;stop-opacity:1;opacity:1;stroke:none"
       d="m -35.927734,-26.257812 a 0.125,0.125 0 0 0 -0.173828,0.02734 0.125,0.125 0 0 0 0.02734,0.175782 l 2.425782,1.763671 a 0.125,0.125 0 0 0 0.175781,-0.0293 0.125,0.125 0 0 0 -0.02734,-0.173829 z"
       id="path33" />
    <!-- Line -->
    <path
       style="baseline-shift:baseline;display:inline;overflow:visible;vector-effect:none;fill:#000000;stroke-linecap:butt;stroke-linejoin:miter;enable-background:accumulate;stop-color:#000000;stop-opacity:1;opacity:1;stroke:none"
       d="m -32.986328,-29.869141 a 0.125,0.125 0 0 0 -0.175781,0.0098 0.125,0.125 0 0 0 0.0078,0.175781 l 2.230469,2.007813 a 0.125,0.125 0 0 0 0.175781,-0.0098 0.125,0.125 0 0 0 -0.0098,-0.175781 z"
       id="path34" />
    <!-- Line -->
    <path
       style="baseline-shift:baseline;display:inline;overflow:visible;vector-effect:none;fill:#000000;stroke-linecap:butt;stroke-linejoin:miter;enable-background:accumulate;stop-color:#000000;stop-opacity:1;opacity:1;stroke:none"
       d="m -29.859375,-33.162109 a 0.125,0.125 0 0 0 -0.0098,0.175781 l 2.007813,2.228516 a 0.125,0.125 0 0 0 0.175781,0.0098 0.125,0.125 0 0 0 0.0098,-0.175781 l -2.007813,-2.230469 a 0.125,0.125 0 0 0 -0.175781,-0.0078 z"
       id="path35" />
    <!-- Line -->
    <path
       style="baseline-shift:baseline;display:inline;overflow:visible;vector-effect:none;fill:#000000;stroke-linecap:butt;stroke-linejoin:miter;enable-background:accumulate;stop-color:#000000;stop-opacity:1;opacity:1;stroke:none"
       d="m -26.230469,-36.101562 a 0.125,0.125 0 0 0 -0.02734,0.173828 L -24.494141,-33.5 a 0.125,0.125 0 0 0 0.173829,0.02734 0.125,0.125 0 0 0 0.0293,-0.175781 l -1.763671,-2.425782 a 0.125,0.125 0 0 0 -0.175782,-0.02734 z"
       id="path36" />
    <!-- Line -->
    <path
       style="baseline-shift:baseline;display:inline;overflow:visible;vector-effect:none;fill:#000000;stroke-linecap:butt;stroke-linejoin:miter;enable-background:accumulate;stop-color:#000000;stop-opacity:1;opacity:1;stroke:none"
       d="m -9.7714844,-30.076172 a 0.125,0.125 0 0 0 -0.080078,0.158203 l 1.3535156,4.166016 a 0.125,0.125 0 0 0 0.15625,0.08008 0.125,0.125 0 0 0 0.080078,-0.158203 l -1.3535156,-4.166016 a 0.125,0.125 0 0 0 -0.15625,-0.08008 z"
       id="path37" />
    <!-- Line -->
    <path
       style="baseline-shift:baseline;display:inline;overflow:visible;vector-effect:none;fill:#000000;stroke-linecap:butt;stroke-linejoin:miter;enable-background:accumulate;stop-color:#000000;stop-opacity:1;opacity:1;stroke:none"
       d="m -5.9882812,-28.169922 a 0.125,0.125 0 0 0 -0.095703,0.148438 l 0.7148438,3.365234 a 0.125,0.125 0 0 0 0.1484375,0.0957 0.125,0.125 0 0 0 0.095703,-0.148437 l -0.7148437,-3.363282 a 0.125,0.125 0 0 0 -0.1484375,-0.09766 z"
       id="path38" />
    <!-- Line -->
    <path
       style="baseline-shift:baseline;display:inline;overflow:visible;vector-effect:none;fill:#000000;stroke-linecap:butt;stroke-linejoin:miter;enable-background:accumulate;stop-color:#000000;stop-opacity:1;opacity:1;stroke:none"
       d="m -2.875,-27.359375 a 0.125,0.125 0 0 0 -0.1113281,0.136719 l 0.3222656,3.078125 a 0.125,0.125 0 0 0 0.1386719,0.111328 0.125,0.125 0 0 0 0.1113281,-0.138672 l -0.3242188,-3.076172 A 0.125,0.125 0 0 0 -2.875,-27.359375 Z"
       id="path39" />
    <!-- Line -->
    <path
       style="baseline-shift:baseline;display:inline;overflow:visible;vector-effect:none;fill:#000000;stroke-linecap:butt;stroke-linejoin:miter;enable-background:accumulate;stop-color:#000000;stop-opacity:1;opacity:1;stroke:none"
       d="m 2.875,-27.359375 a 0.125,0.125 0 0 0 -0.1367187,0.111328 l -0.3242188,3.076172 a 0.125,0.125 0 0 0 0.1113281,0.138672 0.125,0.125 0 0 0 0.1386719,-0.111328 l 0.3222656,-3.078125 A 0.125,0.125 0 0 0 2.875,-27.359375 Z"
       id="path40" />
    <!-- Line -->
    <path
       style="baseline-shift:baseline;display:inline;overflow:visible;vector-effect:none;fill:#000000;stroke-linecap:butt;stroke-linejoin:miter;enable-background:accumulate;stop-color:#000000;stop-opacity:1;opacity:1;stroke:none"
       d="m 5.9882812,-28.169922 a 0.125,0.125 0 0 0 -0.1484375,0.09766 L 5.125,-24.708984 a 0.125,0.125 0 0 0 0.095703,0.148437 0.125,0.125 0 0 0 0.1484375,-0.0957 l 0.7148438,-3.365234 a 0.125,0.125 0 0 0 -0.095703,-0.148438 z"
       id="path41" />
    <!-- Line -->
    <path
       style="baseline-shift:baseline;display:inline;overflow:visible;vector-effect:none;fill:#000000;stroke-linecap:butt;stroke-linejoin:miter;enable-background:accumulate;stop-color:#000000;stop-opacity:1;opacity:1;stroke:none"
       d="m 9.7714844,-30.076172 a 0.125,0.125 0 0 0 -0.15625,0.08008 l -1.3535156,4.166016 a 0.125,0.125 0 0 0 0.080078,0.158203 0.125,0.125 0 0 0 0.15625,-0.08008 l 1.3535156,-4.166016 a 0.125,0.125 0 0 0 -0.080078,-0.158203 z"
       id="path42" />
    <!-- Line -->
    <path
       style="baseline-shift:baseline;display:inline;overflow:visible;vector-effect:none;fill:#000000;stroke-linecap:butt;stroke-linejoin:miter;enable-background:accumulate;stop-color:#000000;stop-opacity:1;opacity:1;stroke:none"
       d="m 26.230469,-36.101562 a 0.125,0.125 0 0 0 -0.175782,0.02734 l -1.763671,2.425782 a 0.125,0.125 0 0 0 0.0293,0.175781 0.125,0.125 0 0 0 0.173829,-0.02734 l 1.763671,-2.427734 a 0.125,0.125 0 0 0 -0.02734,-0.173828 z"
       id="path43" />
    <!-- Line -->
    <path
       style="baseline-shift:baseline;display:inline;overflow:visible;vector-effect:none;fill:#000000;stroke-linecap:butt;stroke-linejoin:miter;enable-background:accumulate;stop-color:#000000;stop-opacity:1;opacity:1;stroke:none"
       d="m 29.859375,-33.162109 a 0.125,0.125 0 0 0 -0.175781,0.0078 l -2.007813,2.230469 a 0.125,0.125 0 0 0 0.0098,0.175781 0.125,0.125 0 0 0 0.175781,-0.0098 l 2.007813,-2.228516 a 0.125,0.125 0 0 0 -0.0098,-0.175781 z"
       id="path44" />
    <!-- Line -->
    <path
       style="baseline-shift:baseline;display:inline;overflow:visible;vector-effect:none;fill:#000000;stroke-linecap:butt;stroke-linejoin:miter;enable-background:accumulate;stop-color:#000000;stop-opacity:1;opacity:1;stroke:none"
       d="m 32.986328,-29.869141 -2.228516,2.007813 a 0.125,0.125 0 0 0 -0.0098,0.175781 0.125,0.125 0 0 0 0.175781,0.0098 l 2.230469,-2.007813 a 0.125,0.125 0 0 0 0.0078,-0.175781 0.125,0.125 0 0 0 -0.175781,-0.0098 z"
       id="path45" />
    <!-- Line -->
    <path
       style="baseline-shift:baseline;display:inline;overflow:visible;vector-effect:none;fill:#000000;stroke-linecap:butt;stroke-linejoin:miter;enable-background:accumulate;stop-color:#000000;stop-opacity:1;opacity:1;stroke:none"
       d="M 35.927734,-26.257812 33.5,-24.494141 a 0.125,0.125 0 0 0 -0.02734,0.173829 0.125,0.125 0 0 0 0.175781,0.0293 l 2.425782,-1.763671 a 0.125,0.125 0 0 0 0.02734,-0.175782 0.125,0.125 0 0 0 -0.173828,-0.02734 z"
       id="path46" />
    <!-- Line -->
    <path
       style="baseline-shift:baseline;display:inline;overflow:visible;vector-effect:none;fill:#000000;stroke-linecap:butt;stroke-linejoin:miter;enable-background:accumulate;stop-color:#000000;stop-opacity:1;opacity:1;stroke:none"
       d="m 40.601562,-18.214844 -2.740234,1.220703 a 0.125,0.125 0 0 0 -0.0625,0.166016 0.125,0.125 0 0 0 0.164063,0.0625 l 2.740234,-1.220703 a 0.125,0.125 0 0 0 0.06445,-0.164063 0.125,0.125 0 0 0 -0.166016,-0.06445 z"
       id="path47" />
    <!-- Line -->
    <path
       style="baseline-shift:baseline;display:inline;overflow:visible;vector-effect:none;fill:#000000;stroke-linecap:butt;stroke-linejoin:miter;enable-background:accumulate;stop-color:#000000;stop-opacity:1;opacity:1;stroke:none"
       d="m 42.283203,-13.871094 -2.853516,0.927735 a 0.125,0.125 0 0 0 -0.08008,0.158203 0.125,0.125 0 0 0 0.158203,0.08008 l 2.853516,-0.927735 a 0.125,0.125 0 0 0 0.08008,-0.15625 0.125,0.125 0 0 0 -0.158203,-0.08203 z"
       id="path48" />
    <!-- Line -->
    <path
       style="baseline-shift:baseline;display:inline;overflow:visible;vector-effect:none;fill:#000000;stroke-linecap:butt;stroke-linejoin:miter;enable-background:accumulate;stop-color:#000000;stop-opacity:1;opacity:1;stroke:none"
       d="m 43.501953,-9.375 -2.935547,0.625 a 0.125,0.125 0 0 0 -0.0957,0.1484375 0.125,0.125 0 0 0 0.148438,0.095703 l 2.933593,-0.6230469 A 0.125,0.125 0 0 0 43.650391,-9.2773438 0.125,0.125 0 0 0 43.501953,-9.375 Z"
       id="path49" />
    <!-- Line -->
    <path
       style="baseline-shift:baseline;display:inline;overflow:visible;vector-effect:none;fill:#000000;stroke-linecap:butt;stroke-linejoin:miter;enable-background:accumulate;stop-color:#000000;stop-opacity:1;opacity:1;stroke:none"
       d="m 44.242187,-4.7753906 -2.982421,0.3125 a 0.125,0.125 0 0 0 -0.111329,0.1386719 0.125,0.125 0 0 0 0.136719,0.1113281 l 2.984375,-0.3144531 a 0.125,0.125 0 0 0 0.111328,-0.1367188 0.125,0.125 0 0 0 -0.138672,-0.1113281 z"
       id="path50" />
    <!-- Line -->
    <path
       style="baseline-shift:baseline;display:inline;overflow:visible;vector-effect:none;fill:#000000;stroke-linecap:butt;stroke-linejoin:miter;enable-background:accumulate;stop-color:#000000;stop-opacity:1;opacity:1;stroke:none"
       d="M 26.550781,5.515625 A 0.125,0.125 0 0 0 26.404297,5.6113281 0.125,0.125 0 0 0 26.5,5.7597656 l 4.283203,0.9121094 a 0.125,0.125 0 0 0 0.148438,-0.097656 0.125,0.125 0 0 0 -0.0957,-0.1484375 z"
       id="path51" />
    <!-- Line -->
    <path
       style="baseline-shift:baseline;display:inline;overflow:visible;vector-effect:none;fill:#000000;stroke-linecap:butt;stroke-linejoin:miter;enable-background:accumulate;stop-color:#000000;stop-opacity:1;opacity:1;stroke:none"
       d="m 24.037109,7.6796875 a 0.125,0.125 0 0 0 -0.15625,0.080078 0.125,0.125 0 0 0 0.08008,0.15625 l 3.269532,1.0625 a 0.125,0.125 0 0 0 0.158203,-0.080078 0.125,0.125 0 0 0 -0.08008,-0.15625 z"
       id="path52" />
    <!-- Line -->
    <path
       style="baseline-shift:baseline;display:inline;overflow:visible;vector-effect:none;fill:#000000;stroke-linecap:butt;stroke-linejoin:miter;enable-background:accumulate;stop-color:#000000;stop-opacity:1;opacity:1;stroke:none"
       d="m 22.242187,9.765625 a 0.125,0.125 0 0 0 -0.166015,0.064453 0.125,0.125 0 0 0 0.06445,0.1640625 l 2.826172,1.2597654 a 0.125,0.125 0 0 0 0.166015,-0.06445 0.125,0.125 0 0 0 -0.06445,-0.164062 z"
       id="path53" />
    <!-- Line -->
    <path
       style="baseline-shift:baseline;display:inline;overflow:visible;vector-effect:none;fill:#000000;stroke-linecap:butt;stroke-linejoin:miter;enable-background:accumulate;stop-color:#000000;stop-opacity:1;opacity:1;stroke:none"
       d="m 19.724609,14.175781 a 0.125,0.125 0 0 0 -0.173828,0.0293 0.125,0.125 0 0 0 0.02734,0.173828 l 2.503906,1.81836 a 0.125,0.125 0 0 0 0.173828,-0.02734 0.125,0.125 0 0 0 -0.02734,-0.173828 z"
       id="path54" />
    <!-- Line -->
    <path
       style="baseline-shift:baseline;display:inline;overflow:visible;vector-effect:none;fill:#000000;stroke-linecap:butt;stroke-linejoin:miter;enable-background:accumulate;stop-color:#000000;stop-opacity:1;opacity:1;stroke:none"
       d="m 18.835937,16.792969 a 0.125,0.125 0 0 0 -0.175781,0.0078 0.125,0.125 0 0 0 0.0098,0.177735 l 2.554687,2.300781 a 0.125,0.125 0 0 0 0.175782,-0.0098 0.125,0.125 0 0 0 -0.0078,-0.175781 z"
       id="path55" />
    <!-- Line -->
    <path
       style="baseline-shift:baseline;display:inline;overflow:visible;vector-effect:none;fill:#000000;stroke-linecap:butt;stroke-linejoin:miter;enable-background:accumulate;stop-color:#000000;stop-opacity:1;opacity:1;stroke:none"
       d="m 18.0625,20.060547 a 0.125,0.125 0 0 0 -0.0098,0.175781 l 2.931641,3.255859 a 0.125,0.125 0 0 0 0.175781,0.0078 0.125,0.125 0 0 0 0.0098,-0.175781 l -2.931641,-3.25586 a 0.125,0.125 0 0 0 -0.175781,-0.0078 z"
       id="path56" />
    <!-- Line -->
    <path
       style="baseline-shift:baseline;display:inline;overflow:visible;vector-effect:none;fill:#000000;stroke-linecap:butt;stroke-linejoin:miter;enable-background:accumulate;stop-color:#000000;stop-opacity:1;opacity:1;stroke:none"
       d="m 16.828125,37.798828 a 0.125,0.125 0 0 0 -0.0625,0.164063 l 1.220703,2.740234 a 0.125,0.125 0 0 0 0.164063,0.06445 0.125,0.125 0 0 0 0.06445,-0.166016 l -1.220703,-2.740234 a 0.125,0.125 0 0 0 -0.166016,-0.0625 z"
       id="path57" />
    <!-- Line -->
    <path
       style="baseline-shift:baseline;display:inline;overflow:visible;vector-effect:none;fill:#000000;stroke-linecap:butt;stroke-linejoin:miter;enable-background:accumulate;stop-color:#000000;stop-opacity:1;opacity:1;stroke:none"
       d="m 12.785156,39.349609 a 0.125,0.125 0 0 0 -0.08008,0.158203 l 0.927735,2.853516 a 0.125,0.125 0 0 0 0.15625,0.08008 0.125,0.125 0 0 0 0.08203,-0.158203 l -0.927735,-2.853516 a 0.125,0.125 0 0 0 -0.158203,-0.08008 z"
       id="path58" />
    <!-- Line -->
    <path
       style="baseline-shift:baseline;display:inline;overflow:visible;vector-effect:none;fill:#000000;stroke-linecap:butt;stroke-linejoin:miter;enable-background:accumulate;stop-color:#000000;stop-opacity:1;opacity:1;stroke:none"
       d="m 8.6015625,40.470703 a 0.125,0.125 0 0 0 -0.095703,0.148438 l 0.6230469,2.933593 A 0.125,0.125 0 0 0 9.2773438,43.650391 0.125,0.125 0 0 0 9.375,43.501953 L 8.75,40.566406 a 0.125,0.125 0 0 0 -0.1484375,-0.0957 z"
       id="path59" />
    <!-- Line -->
    <path
       style="baseline-shift:baseline;display:inline;overflow:visible;vector-effect:none;fill:#000000;stroke-linecap:butt;stroke-linejoin:miter;enable-background:accumulate;stop-color:#000000;stop-opacity:1;opacity:1;stroke:none"
       d="m 4.3242187,41.148437 a 0.125,0.125 0 0 0 -0.1113281,0.136719 l 0.3144531,2.984375 a 0.125,0.125 0 0 0 0.1367188,0.111328 0.125,0.125 0 0 0 0.1113281,-0.138672 l -0.3125,-2.982421 A 0.125,0.125 0 0 0 4.3242187,41.148437 Z"
       id="path60" />
    <!-- Circle -->
    <path
       style="baseline-shift:baseline;display:inline;overflow:visible;vector-effect:none;fill:#000000;stroke-linecap:butt;stroke-linejoin:miter;enable-background:accumulate;stop-color:#000000;stop-opacity:1;opacity:1;stroke:none"
       d="m 0,-6.25 c -3.4488185,0 -6.25,2.8011815 -6.25,6.25 0,3.4488185 2.8011815,6.25 6.25,6.25 C 3.4488185,6.25 6.25,3.4488185 6.25,0 6.25,-3.4488185 3.4488185,-6.25 0,-6.25 Z m 0,0.5 c 3.1785985,0 5.75,2.5714015 5.75,5.75 0,3.1785985 -2.5714015,5.75 -5.75,5.75 -3.1785985,0 -5.75,-2.5714015 -5.75,-5.75 0,-3.1785985 2.5714015,-5.75 5.75,-5.75 z"
       id="circle60" />
    <!-- Text: 12 -->
    <g
       id="g61"
       style="fill:#000000;stroke:none">
      <path
         d="M-3.0004,30.4264 C-3.0004,30.5393 -2.9959,30.7159 -2.987,30.9562 C-2.978,31.1965 -2.9691,31.4681 -2.9602,31.771 C-2.9513,32.0738 -2.9409,32.3915 -2.9291,32.724 C-2.9173,33.0564 -2.907,33.3741 -2.8981,33.6769 C-2.8891,33.9798 -2.8818,34.2499 -2.8761,34.4874 C-2.8704,34.7249 -2.8643,34.9029 -2.8579,35.0215 C-2.87,35.1522 -2.8464,35.2354 -2.7872,35.2711 C-2.7279,35.3069 -2.6611,35.3247 -2.5868,35.3247 C-2.5125,35.3247 -2.4472,35.3188 -2.3908,35.307 C-2.3343,35.2952 -2.2943,35.2476 -2.2708,35.164 L-2.4133,30.5871 C-2.4247,30.48 -2.5075,30.4041 -2.6618,30.3595 C-2.8161,30.3148 -2.9289,30.3371 -3.0004,30.4264 M2.7068,31.771 C2.9025,31.771 3.0004,31.6969 3.0004,31.5487 C3.0004,31.4005 2.9352,31.2921 2.8048,31.2235 C2.6745,31.1549 2.5277,31.1058 2.3645,31.0762 C2.2013,31.0466 2.0485,31.0303 1.906,31.0275 C1.7635,31.0246 1.6728,31.0187 1.6338,31.0098 C1.5949,31.0008 1.5087,30.9771 1.3751,30.9385 C1.2415,30.9 1.0828,30.8555 0.8989,30.8051 C0.715,30.7548 0.5162,30.7 0.3027,30.6407 C-0.3687,30.4621 -0.903,30.3728 -1.3001,30.3728 C-1.5022,30.3728 -1.6374,30.4041 -1.7056,30.4666 C-1.7738,30.5291 -1.7872,30.6168 -1.7458,30.7296 C-1.3008,31.121 -0.8376,31.6256 -0.3562,32.2435 C0.3616,33.1634 0.7205,33.8816 0.7205,34.398 C0.7205,34.4994 0.7059,34.5944 0.6766,34.683 C0.6109,34.8672 0.4416,34.9862 0.1687,35.0397 C-0.0927,35.0397 -0.3064,34.9863 -0.4725,34.8796 C-0.6385,34.7728 -0.7942,34.654 -0.9396,34.5233 C-1.0849,34.3926 -1.2333,34.2739 -1.3847,34.1671 C-1.5362,34.0603 -1.7219,34.0069 -1.9419,34.0069 C-1.9361,34.2026 -1.8561,34.3926 -1.7019,34.5769 C-1.3926,34.9569 -0.9562,35.2297 -0.3927,35.3954 C-0.1905,35.4611 -0.03,35.494 0.0889,35.494 C0.2078,35.494 0.2969,35.4911 0.3562,35.4854 C0.5876,35.4611 0.7864,35.3777 0.9524,35.2352 C1.1185,35.0928 1.2165,34.8733 1.2465,34.5769 C1.2465,33.7398 0.8548,32.8106 0.0712,31.7892 C-0.143,31.5099 -0.3541,31.2517 -0.5619,31.0146 C-0.4962,31.0082 -0.3935,31.005 -0.2539,31.005 C-0.1143,31.005 0.0771,31.0392 0.3203,31.1078 C0.5635,31.1764 0.8217,31.2596 1.0949,31.3574 C1.3681,31.4553 1.6383,31.5487 1.9054,31.6376 C2.1726,31.7265 2.4397,31.771 2.7068,31.771"
         style="fill:#000000;fill-rule:evenodd;stroke:none"
         id="path61" />
    </g>
    <!-- Text: 11 -->
    <g
       id="g62"
       style="fill:#000000;stroke:none">
      <path
         d="M-18.0004,25.5363 C-18.0004,25.6492 -17.9959,25.8258 -17.987,26.0661 C-17.9781,26.3065 -17.9691,26.5781 -17.9602,26.8809 C-17.9513,27.1837 -17.9409,27.5014 -17.9291,27.8339 C-17.9173,28.1664 -17.907,28.484 -17.8981,28.7869 C-17.8891,29.0897 -17.8818,29.3599 -17.8761,29.5974 C-17.8704,29.8348 -17.8643,30.0129 -17.8579,30.1314 C-17.87,30.2621 -17.8465,30.3454 -17.7872,30.3811 C-17.7279,30.4168 -17.6611,30.4346 -17.5868,30.4346 C-17.5125,30.4346 -17.4472,30.4287 -17.3908,30.417 C-17.3343,30.4052 -17.2943,30.3575 -17.2708,30.2739 L-17.4133,25.697 C-17.4247,25.5899 -17.5075,25.514 -17.6618,25.4694 C-17.8161,25.4247 -17.9289,25.4471 -18.0004,25.5363 M-16.8347,25.5363 C-16.8347,25.6492 -16.8303,25.8258 -16.8213,26.0661 C-16.8124,26.3065 -16.8035,26.5781 -16.7945,26.8809 C-16.7856,27.1837 -16.7753,27.5014 -16.7635,27.8339 C-16.7517,28.1664 -16.7413,28.484 -16.7324,28.7869 C-16.7235,29.0897 -16.7162,29.3599 -16.7104,29.5974 C-16.7047,29.8348 -16.6987,30.0129 -16.6922,30.1314 C-16.7044,30.2621 -16.6808,30.3454 -16.6215,30.3811 C-16.5622,30.4168 -16.4955,30.4346 -16.4212,30.4346 C-16.3469,30.4346 -16.2815,30.4287 -16.2251,30.417 C-16.1687,30.4052 -16.1287,30.3575 -16.1051,30.2739 L-16.2476,25.697 C-16.259,25.5899 -16.3419,25.514 -16.4962,25.4694 C-16.6504,25.4247 -16.7633,25.4471 -16.8347,25.5363"
         style="fill:#000000;fill-rule:evenodd;stroke:none"
         id="path62" />
    </g>
    <!-- Text: 9 -->
    <g
       id="g63"
       style="fill:#000000;stroke:none">
      <path
         d="M-34.3005,-3.0411 C-34.3776,-3.0289 -34.4444,-2.9843 -34.5008,-2.9072 C-34.5573,-2.83 -34.5855,-2.7382 -34.5855,-2.6318 C-34.0155,-2.2933 -33.6073,-1.9949 -33.3609,-1.7367 C-33.1145,-1.4785 -32.9259,-1.2217 -32.7952,-0.9664 C-32.6645,-0.711 -32.5874,-0.4202 -32.5638,-0.0937 C-32.6231,-0.0873 -32.7032,-0.0841 -32.8043,-0.0841 C-32.9054,-0.0841 -33.0464,-0.0975 -33.2275,-0.1243 C-33.4086,-0.1511 -33.603,-0.1823 -33.8109,-0.218 C-34.2858,-0.2952 -34.5915,-0.3337 -34.728,-0.3337 C-34.8644,-0.3337 -34.9994,-0.3293 -35.1329,-0.3203 C-35.2665,-0.3114 -35.4238,-0.2714 -35.6049,-0.2003 C-35.7859,-0.1293 -35.9536,-0.0134 -36.1079,0.1473 C-36.1914,0.2602 -36.2332,0.3612 -36.2332,0.4505 C-36.2332,0.8898 -35.9332,1.323 -35.3333,1.7501 C-34.8462,2.1008 -34.3623,2.3236 -33.8816,2.4186 C-33.763,2.4422 -33.6518,2.454 -33.5478,2.454 C-33.4439,2.454 -33.3445,2.439 -33.2495,2.409 C-32.5545,2.1954 -32.1092,1.7886 -31.9135,1.1887 C-31.842,0.9694 -31.8063,0.7826 -31.8063,0.6284 C-31.8063,0.4741 -31.8124,0.3048 -31.8245,0.1205 C-31.8367,-0.0637 -31.8931,-0.3118 -31.9938,-0.6235 C-32.0945,-0.9353 -32.2295,-1.2337 -32.3988,-1.5187 C-32.5681,-1.8036 -32.7566,-2.0558 -32.9645,-2.2751 C-33.4159,-2.7622 -33.8612,-3.0175 -34.3005,-3.0411 M-35.3954,0.3969 C-35.1226,0.2777 -34.7844,0.218 -34.3808,0.218 C-33.793,0.218 -33.1991,0.3398 -32.5991,0.5834 C-32.5756,0.6848 -32.5638,0.7741 -32.5638,0.8512 C-32.5638,0.9283 -32.5697,1.0158 -32.5815,1.1137 C-32.5933,1.2115 -32.6349,1.3169 -32.7063,1.4297 C-32.8727,1.6847 -33.122,1.8244 -33.4541,1.8486 C-34.3269,1.8486 -34.9176,1.5962 -35.2261,1.0912 C-35.339,0.9012 -35.3954,0.6698 -35.3954,0.3969"
         style="fill:#000000;fill-rule:evenodd;stroke:none"
         id="path63" />
    </g>
    <!-- Text: 8 -->
    <g
       id="g64"
       style="fill:#000000;stroke:none">
      <path
         d="M-26.9747,-12.8616 C-26.7936,-12.9212 -26.6481,-13.0089 -26.5381,-13.1246 C-26.4281,-13.2403 -26.3761,-13.4287 -26.3822,-13.6897 C-26.3883,-13.9508 -26.5366,-14.2449 -26.8273,-14.572 C-26.4831,-14.7084 -26.2634,-14.833 -26.1684,-14.9459 C-26.0735,-15.0588 -26.0097,-15.1759 -25.9772,-15.2973 C-25.9447,-15.4187 -25.9285,-15.5687 -25.9285,-15.7473 C-25.9285,-16.1508 -26.0338,-16.5026 -26.2445,-16.8026 C-26.4552,-17.1026 -26.7209,-17.3504 -27.0416,-17.5461 C-27.3623,-17.7418 -27.7141,-17.8872 -28.0969,-17.9822 C-28.4797,-18.0772 -28.8106,-18.1246 -29.0895,-18.1246 C-29.3684,-18.1246 -29.637,-18.1054 -29.8952,-18.0668 C-30.1534,-18.0282 -30.3954,-17.9586 -30.6211,-17.8579 C-31.1496,-17.62 -31.4139,-17.2636 -31.4139,-16.7887 C-31.4139,-16.6408 -31.3664,-16.494 -31.2714,-16.3483 C-31.1764,-16.2026 -31.0741,-16.0646 -30.9644,-15.9342 C-30.8548,-15.8039 -30.7525,-15.6807 -30.6575,-15.5646 C-30.5625,-15.4486 -30.515,-15.3475 -30.515,-15.2614 C-30.515,-15.1754 -30.5312,-15.1041 -30.5637,-15.0477 C-30.5962,-14.9913 -30.6332,-14.9366 -30.6746,-14.8838 C-30.7818,-14.7466 -30.8353,-14.595 -30.8353,-14.429 C-30.8353,-14.2629 -30.7878,-14.0967 -30.6928,-13.9302 C-30.5978,-13.7638 -30.4716,-13.6169 -30.3141,-13.4894 C-30.1566,-13.3619 -29.977,-13.2521 -29.7752,-13.1599 C-29.5734,-13.0678 -29.3686,-12.9921 -29.1608,-12.9328 C-28.7572,-12.8257 -28.3712,-12.7721 -28.0026,-12.7721 C-27.4984,-12.7721 -27.1557,-12.8019 -26.9747,-12.8616 M-30.6928,-16.6912 C-30.6928,-17.089 -30.4911,-17.3679 -30.0875,-17.5279 C-29.8082,-17.635 -29.4727,-17.6886 -29.081,-17.6886 C-28.6892,-17.6886 -28.3448,-17.647 -28.0476,-17.5638 C-27.7505,-17.4806 -27.4891,-17.3558 -27.2634,-17.1893 C-26.7591,-16.8272 -26.507,-16.3405 -26.507,-15.7291 C-26.6491,-15.2484 -27.0973,-15.008 -27.8516,-15.008 C-28.3744,-15.008 -28.894,-15.1237 -29.4104,-15.3552 C-29.9032,-15.5809 -30.2625,-15.8512 -30.4882,-16.1662 C-30.6068,-16.3319 -30.675,-16.5069 -30.6928,-16.6912 M-27.1123,-13.3603 C-27.368,-13.2474 -27.6859,-13.191 -28.0658,-13.191 C-28.8908,-13.191 -29.4904,-13.396 -29.8647,-13.806 C-29.9954,-13.9481 -30.0725,-14.1202 -30.0961,-14.3224 C-30.0961,-14.5002 -30.0397,-14.6352 -29.9268,-14.7273 C-29.814,-14.8195 -29.6686,-14.8655 -29.4908,-14.8655 C-29.4608,-14.8713 -29.4145,-14.8741 -29.352,-14.8741 C-29.2895,-14.8741 -29.187,-14.8607 -29.0445,-14.8339 C-28.902,-14.8072 -28.7358,-14.7672 -28.5458,-14.7139 C-28.3558,-14.6607 -28.1644,-14.597 -27.9716,-14.5227 C-27.7787,-14.4484 -27.6023,-14.3699 -27.4423,-14.287 C-27.0859,-14.097 -26.8781,-13.9217 -26.8188,-13.761 C-26.8188,-13.6603 -26.8425,-13.5683 -26.89,-13.4851 C-26.9375,-13.4019 -27.0116,-13.3603 -27.1123,-13.3603"
         style="fill:#000000;fill-rule:evenodd;stroke:none"
         id="path64" />
    </g>
    <!-- Text: 7 -->
    <g
       id="g65"
       style="fill:#000000;stroke:none">
      <path
         d="M-18.25,-31.476 L-18.2768,-30.9596 C-18.2768,-30.9239 -18.2768,-30.891 -18.2768,-30.861 C-18.2768,-30.3154 -18.0897,-29.6593 -17.7154,-28.8929 C-17.5554,-28.5787 -17.4011,-28.279 -17.2526,-27.9941 C-17.104,-27.7091 -17.0029,-27.4509 -16.9494,-27.2195 C-17.2701,-27.2195 -17.5879,-27.2284 -17.9029,-27.2462 C-19.055,-27.3112 -19.766,-27.3437 -20.036,-27.3437 C-20.306,-27.3437 -20.5477,-27.3377 -20.7613,-27.3255 C-20.827,-27.2962 -20.8702,-27.2668 -20.8909,-27.2371 C-20.9116,-27.2075 -20.922,-27.1659 -20.922,-27.1123 C-20.922,-27.0588 -20.9116,-27.0171 -20.8909,-26.9875 C-20.8702,-26.9579 -20.827,-26.928 -20.7613,-26.898 C-20.6484,-26.9045 -20.4881,-26.9077 -20.2802,-26.9077 C-20.0724,-26.9077 -19.7904,-26.8868 -19.4344,-26.845 C-19.0783,-26.8032 -18.6969,-26.7513 -18.2902,-26.6891 C-17.8834,-26.627 -17.4783,-26.5691 -17.0747,-26.5156 C-16.6712,-26.462 -16.2673,-26.4352 -15.863,-26.4352 C-15.768,-26.4352 -15.6968,-26.459 -15.6493,-26.5065 C-15.6018,-26.554 -15.578,-26.6 -15.578,-26.6447 C-15.578,-26.6893 -15.578,-26.7206 -15.578,-26.7384 C-16.6115,-27.8841 -17.2468,-28.9972 -17.484,-30.0779 C-17.5318,-30.3093 -17.5558,-30.5289 -17.5558,-30.7368 C-17.5558,-30.9446 -17.5379,-31.1435 -17.5022,-31.3335 Z"
         style="fill:#000000;fill-rule:evenodd;stroke:none"
         id="path65" />
    </g>
    <!-- Text: 5 -->
    <g
       id="g66"
       style="fill:#000000;stroke:none">
      <path
         d="M15.2127,-28.9026 L15.2759,-28.2876 C15.3173,-27.9433 15.3648,-27.5277 15.4184,-27.0405 L15.5244,-26.1502 C15.5487,-26.0731 15.586,-26.0286 15.6364,-26.0168 C15.6868,-26.0051 15.7564,-25.9992 15.8453,-25.9992 C15.9342,-25.9992 15.9996,-26.0213 16.0414,-26.0656 C16.0832,-26.1099 16.1055,-26.1647 16.1083,-26.2301 C16.1112,-26.2954 16.1037,-26.3697 16.0858,-26.4529 C16.068,-26.5361 16.0591,-26.6163 16.0591,-26.6934 C16.4747,-26.6934 16.8888,-26.649 17.3013,-26.56 C17.7138,-26.4711 18.125,-26.3733 18.535,-26.2665 C18.945,-26.1597 19.3548,-26.0617 19.7644,-25.9724 C20.174,-25.8831 20.5867,-25.8385 21.0023,-25.8385 C21.0616,-25.8385 21.1164,-25.846 21.1668,-25.861 C21.2172,-25.876 21.2573,-25.9249 21.2873,-26.0077 C21.263,-26.0792 21.2213,-26.1386 21.162,-26.1861 C21.1027,-26.2336 21.0032,-26.2811 20.8636,-26.3286 C20.724,-26.3761 20.5354,-26.425 20.2979,-26.4754 C20.0604,-26.5257 19.7547,-26.5911 19.3808,-26.6715 C19.0069,-26.7518 18.5512,-26.8482 18.0138,-26.9607 C17.4763,-27.0732 16.8426,-27.2127 16.1126,-27.3791 L16.1126,-28.519 C16.3026,-28.5012 16.5194,-28.4715 16.7629,-28.4301 C17.2143,-28.353 17.5588,-28.3144 17.7963,-28.3144 C18.0338,-28.3144 18.2311,-28.3174 18.3882,-28.3235 C18.5453,-28.3296 18.725,-28.3712 18.9271,-28.4483 C19.3607,-28.614 19.6039,-28.9554 19.6567,-29.4725 C19.6567,-29.8461 19.5544,-30.1622 19.3498,-30.4207 C19.1451,-30.6793 18.8885,-30.8857 18.58,-31.04 C17.9979,-31.3307 17.3208,-31.476 16.5487,-31.476 C16.383,-31.476 16.2644,-31.4582 16.193,-31.4224 C16.1215,-31.3867 16.0858,-31.3096 16.0858,-31.191 C16.0858,-31.0725 16.1333,-30.9596 16.2283,-30.8525 C16.3233,-30.7453 16.4301,-30.6918 16.5487,-30.6918 L16.5487,-30.8525 C17.2493,-30.8525 17.7541,-30.8035 18.063,-30.7057 C18.372,-30.6078 18.6169,-30.4712 18.798,-30.2959 C18.9791,-30.1205 19.0696,-29.9023 19.0696,-29.6413 C19.0696,-29.3802 19.0162,-29.1902 18.9094,-29.0713 C18.8026,-28.9524 18.6718,-28.8633 18.5168,-28.804 C18.2796,-28.709 18.0097,-28.6615 17.7068,-28.6615 C17.404,-28.6615 17.1754,-28.6853 17.0211,-28.7328 C16.8669,-28.7803 16.7154,-28.8337 16.5669,-28.8929 C16.169,-29.0415 15.8662,-29.1158 15.6584,-29.1158 L15.5159,-29.1158 C15.3137,-29.1158 15.2127,-29.0447 15.2127,-28.9026"
         style="fill:#000000;fill-rule:evenodd;stroke:none"
         id="path66" />
    </g>
    <!-- Text: 4 -->
    <g
       id="g67"
       style="fill:#000000;stroke:none">
      <path
         d="M29.089,-18.25 C28.9647,-18.25 28.8937,-18.2143 28.8758,-18.1429 L28.9112,-16.3794 L28.2608,-16.3794 L27.1927,-16.3708 L26.5509,-16.3708 C26.4738,-16.3708 26.3966,-16.3589 26.3195,-16.3349 C26.2424,-16.311 26.2038,-16.2487 26.2038,-16.148 C26.5181,-15.7444 26.8238,-15.3377 27.1209,-14.9277 C28.0651,-13.6392 28.7122,-12.9949 29.0622,-12.9949 C29.4543,-12.9949 29.6504,-13.6838 29.6504,-15.0616 C29.6504,-15.2395 29.6472,-15.4294 29.6408,-15.6316 L31.6099,-15.6048 C31.6099,-15.7591 31.5905,-15.8717 31.5515,-15.9428 C31.5126,-16.0139 31.4785,-16.0526 31.4492,-16.0591 L29.8015,-16.1919 C29.7186,-16.424 29.6683,-16.6854 29.6504,-16.9761 C29.6204,-17.4511 29.6054,-17.849 29.6054,-18.1696 Z M28.9112,-13.8231 C28.7804,-14.0017 28.6215,-14.1756 28.4344,-14.3449 C28.2473,-14.5141 28.0648,-14.6832 27.8869,-14.8522 C27.7091,-15.0211 27.5489,-15.1916 27.4064,-15.3637 C27.2639,-15.5359 27.1748,-15.7141 27.1391,-15.8983 C27.1805,-15.8983 27.2725,-15.8983 27.415,-15.8983 C27.5575,-15.8983 27.7623,-15.8821 28.0294,-15.8496 C28.2965,-15.8171 28.5905,-15.783 28.9112,-15.7473 Z"
         style="fill:#000000;fill-rule:evenodd;stroke:none"
         id="path67" />
    </g>
    <!-- Text: 3 -->
    <g
       id="g68"
       style="fill:#000000;stroke:none">
      <path
         d="M36.3672,1.4737 C36.3672,1.118 36.0822,0.6994 35.5122,0.218 C35.3693,0.1052 35.2476,0.0045 35.1469,-0.0841 C35.8768,-0.0962 36.3132,-0.2684 36.4561,-0.6005 C36.4854,-0.6776 36.5,-0.7578 36.5,-0.841 C36.5,-0.9242 36.4779,-1.0357 36.4336,-1.1753 C36.3893,-1.3149 36.2959,-1.4797 36.1534,-1.6697 C36.0109,-1.8597 35.8386,-2.0436 35.6365,-2.2215 C35.2151,-2.59 34.7697,-2.8454 34.3005,-2.9875 C34.1405,-3.0354 34.0114,-3.0593 33.9132,-3.0593 C33.815,-3.0593 33.7362,-3.0577 33.6769,-3.0545 C33.6177,-3.0513 33.5553,-3.032 33.49,-2.9966 C33.4246,-2.9613 33.392,-2.9018 33.392,-2.8182 C33.8376,-2.7054 34.2296,-2.545 34.5678,-2.3372 C34.906,-2.1293 35.1733,-1.9126 35.3697,-1.6869 C35.6011,-1.4083 35.7168,-1.1769 35.7168,-0.9926 C35.7168,-0.8083 35.6604,-0.6837 35.5476,-0.6187 C35.4347,-0.5537 35.2894,-0.5212 35.1115,-0.5212 C34.6601,-0.5212 34.0455,-0.7051 33.2677,-1.073 L32.9559,-0.6723 C34.7551,0.1591 35.6547,0.7559 35.6547,1.118 C35.6547,1.2722 35.4854,1.3733 35.1469,1.4212 C34.7962,1.4212 34.3967,1.3617 33.9485,1.2428 C33.5003,1.1239 33.1547,1.0376 32.9115,0.9841 C32.6683,0.9305 32.4188,0.9037 32.1631,0.9037 C32.1631,1.183 32.2313,1.3465 32.3677,1.3944 C32.617,1.4537 32.8813,1.519 33.1605,1.5904 C34.0748,1.8219 34.8065,1.9376 35.3558,1.9376 C35.905,1.9376 36.2422,1.7829 36.3672,1.4737"
         style="fill:#000000;fill-rule:evenodd;stroke:none"
         id="path68" />
    </g>
    <!-- Text: 1 -->
    <g
       id="g69"
       style="fill:#000000;stroke:none">
      <path
         d="M17.5204,25.5363 C17.5204,25.6492 17.5249,25.8258 17.5338,26.0661 C17.5427,26.3065 17.5516,26.5781 17.5606,26.8809 C17.5695,27.1837 17.5799,27.5014 17.5916,27.8339 C17.6034,28.1664 17.6138,28.484 17.6227,28.7869 C17.6316,29.0897 17.639,29.3599 17.6447,29.5974 C17.6504,29.8348 17.6565,30.0129 17.6629,30.1314 C17.6507,30.2621 17.6743,30.3454 17.7336,30.3811 C17.7929,30.4168 17.8597,30.4346 17.9339,30.4346 C18.0082,30.4346 18.0736,30.4287 18.13,30.417 C18.1864,30.4052 18.2264,30.3575 18.25,30.2739 L18.1075,25.697 C18.0961,25.5899 18.0132,25.514 17.859,25.4694 C17.7047,25.4247 17.5918,25.4471 17.5204,25.5363"
         style="fill:#000000;fill-rule:evenodd;stroke:none"
         id="path69" />
    </g>
  </g>
</svg>
